# Wavefront OBJ file automatically generated by Tiled2Unity

# Vertices (Count = 55)
v -576 -624 0
v -592 -624 0
v -592 -608 0
v -576 -608 0
v -608 -624 0
v -608 -608 0
v -560 -640 0
v -576 -640 0
v -560 -624 0
v -592 -640 0
v -560 -656 0
v -576 -656 0
v -592 -656 0
v -560 -672 0
v -576 -672 0
v -592 -672 0
v -560 -688 0
v -576 -688 0
v -592 -688 0
v -608 -688 0
v -608 -672 0
v -576 -704 0
v -592 -704 0
v -608 -704 0
v -624 -704 0
v -624 -688 0
v -640 -704 0
v -640 -688 0
v -656 -704 0
v -656 -688 0
v -672 -704 0
v -672 -688 0
v -688 -704 0
v -688 -688 0
v -592 -720 0
v -608 -720 0
v -624 -720 0
v -640 -720 0
v -656 -720 0
v -672 -720 0
v -688 -720 0
v -704 -720 0
v -704 -704 0
v -720 -720 0
v -720 -704 0
v -736 -720 0
v -736 -704 0
v -752 -720 0
v -752 -704 0
v -672 -736 0
v -688 -736 0
v -704 -736 0
v -720 -736 0
v -736 -736 0
v -752 -736 0

# Texture cooridinates (Count = 8)
vt 0.1000122 0.7000122
vt 0.1999878 0.7000122
vt 0.1999878 0.7999878
vt 0.1000122 0.7999878
vt 0.9000122 0.9000122
vt 0.9999878 0.9000122
vt 0.9999878 0.9999878
vt 0.9000122 0.9999878

# Normal
vn 0 0 -1

# Groups (Count = 2)

g mesh_0001
f 1/1/1 2/2/1 3/3/1 4/4/1
f 2/1/1 5/2/1 6/3/1 3/4/1
f 7/1/1 8/2/1 1/3/1 9/4/1
f 8/1/1 10/2/1 2/3/1 1/4/1
f 11/1/1 12/2/1 8/3/1 7/4/1
f 12/1/1 13/2/1 10/3/1 8/4/1
f 14/1/1 15/2/1 12/3/1 11/4/1
f 15/1/1 16/2/1 13/3/1 12/4/1
f 17/1/1 18/2/1 15/3/1 14/4/1
f 18/1/1 19/2/1 16/3/1 15/4/1
f 19/1/1 20/2/1 21/3/1 16/4/1
f 22/1/1 23/2/1 19/3/1 18/4/1
f 23/1/1 24/2/1 20/3/1 19/4/1
f 24/1/1 25/2/1 26/3/1 20/4/1
f 25/1/1 27/2/1 28/3/1 26/4/1
f 27/1/1 29/2/1 30/3/1 28/4/1
f 29/1/1 31/2/1 32/3/1 30/4/1
f 31/1/1 33/2/1 34/3/1 32/4/1
f 35/1/1 36/2/1 24/3/1 23/4/1
f 36/1/1 37/2/1 25/3/1 24/4/1
f 37/1/1 38/2/1 27/3/1 25/4/1
f 38/1/1 39/2/1 29/3/1 27/4/1
f 39/1/1 40/2/1 31/3/1 29/4/1
f 40/1/1 41/2/1 33/3/1 31/4/1
f 41/1/1 42/2/1 43/3/1 33/4/1
f 42/1/1 44/2/1 45/3/1 43/4/1
f 44/1/1 46/2/1 47/3/1 45/4/1
f 46/1/1 48/2/1 49/3/1 47/4/1
f 50/1/1 51/2/1 41/3/1 40/4/1
f 51/1/1 52/2/1 42/3/1 41/4/1
f 52/1/1 53/2/1 44/3/1 42/4/1
f 53/1/1 54/2/1 46/3/1 44/4/1
f 54/1/1 55/2/1 48/3/1 46/4/1

g mesh_0002
f 1/5/1 2/6/1 3/7/1 4/8/1
f 2/5/1 5/6/1 6/7/1 3/8/1
f 7/5/1 8/6/1 1/7/1 9/8/1
f 8/5/1 10/6/1 2/7/1 1/8/1
f 11/5/1 12/6/1 8/7/1 7/8/1
f 12/5/1 13/6/1 10/7/1 8/8/1
f 14/5/1 15/6/1 12/7/1 11/8/1
f 15/5/1 16/6/1 13/7/1 12/8/1
f 17/5/1 18/6/1 15/7/1 14/8/1
f 18/5/1 19/6/1 16/7/1 15/8/1
f 19/5/1 20/6/1 21/7/1 16/8/1
f 22/5/1 23/6/1 19/7/1 18/8/1
f 23/5/1 24/6/1 20/7/1 19/8/1
f 24/5/1 25/6/1 26/7/1 20/8/1
f 25/5/1 27/6/1 28/7/1 26/8/1
f 27/5/1 29/6/1 30/7/1 28/8/1
f 29/5/1 31/6/1 32/7/1 30/8/1
f 31/5/1 33/6/1 34/7/1 32/8/1
f 35/5/1 36/6/1 24/7/1 23/8/1
f 36/5/1 37/6/1 25/7/1 24/8/1
f 37/5/1 38/6/1 27/7/1 25/8/1
f 38/5/1 39/6/1 29/7/1 27/8/1
f 39/5/1 40/6/1 31/7/1 29/8/1
f 40/5/1 41/6/1 33/7/1 31/8/1
f 41/5/1 42/6/1 43/7/1 33/8/1
f 42/5/1 44/6/1 45/7/1 43/8/1
f 44/5/1 46/6/1 47/7/1 45/8/1
f 46/5/1 48/6/1 49/7/1 47/8/1
f 50/5/1 51/6/1 41/7/1 40/8/1
f 51/5/1 52/6/1 42/7/1 41/8/1
f 52/5/1 53/6/1 44/7/1 42/8/1
f 53/5/1 54/6/1 46/7/1 44/8/1
f 54/5/1 55/6/1 48/7/1 46/8/1

