# Wavefront OBJ file automatically generated by Tiled2Unity

# Vertices (Count = 234)
v -368 -304 -0.5625
v -384 -304 -0.5625
v -384 -288 -0.5625
v -368 -288 -0.5625
v -400 -304 -0.5625
v -400 -288 -0.5625
v -416 -304 -0.5625
v -416 -288 -0.5625
v -432 -304 -0.5625
v -432 -288 -0.5625
v -448 -304 -0.5625
v -448 -288 -0.5625
v -464 -304 -0.5625
v -464 -288 -0.5625
v -480 -304 -0.5625
v -480 -288 -0.5625
v -496 -304 -0.5625
v -496 -288 -0.5625
v -512 -304 -0.5625
v -512 -288 -0.5625
v -528 -304 -0.5625
v -528 -288 -0.5625
v -544 -304 -0.5625
v -544 -288 -0.5625
v -592 -304 -0.5625
v -608 -304 -0.5625
v -608 -288 -0.5625
v -592 -288 -0.5625
v -624 -304 -0.5625
v -624 -288 -0.5625
v -640 -304 -0.5625
v -640 -288 -0.5625
v -656 -304 -0.5625
v -656 -288 -0.5625
v -672 -304 -0.5625
v -672 -288 -0.5625
v -352 -320 -0.59375
v -368 -320 -0.59375
v -368 -304 -0.59375
v -352 -304 -0.59375
v -384 -320 -0.59375
v -384 -304 -0.59375
v -400 -320 -0.59375
v -400 -304 -0.59375
v -768 -320 -0.59375
v -784 -320 -0.59375
v -784 -304 -0.59375
v -768 -304 -0.59375
v -800 -320 -0.59375
v -800 -304 -0.59375
v -816 -320 -0.59375
v -816 -304 -0.59375
v -336 -336 -0.625
v -352 -336 -0.625
v -352 -320 -0.625
v -336 -320 -0.625
v -368 -336 -0.625
v -368 -320 -0.625
v -384 -336 -0.625
v -384 -320 -0.625
v -752 -336 -0.625
v -768 -336 -0.625
v -768 -320 -0.625
v -752 -320 -0.625
v -816 -336 -0.625
v -832 -336 -0.625
v -832 -320 -0.625
v -816 -320 -0.625
v -320 -352 -0.65625
v -336 -352 -0.65625
v -336 -336 -0.65625
v -320 -336 -0.65625
v -816 -352 -0.65625
v -832 -352 -0.65625
v -832 -336 -0.65625
v -816 -336 -0.65625
v -816 -368 -0.6875
v -832 -368 -0.6875
v -832 -352 -0.6875
v -816 -352 -0.6875
v 0 -384 -0.71875
v -16 -384 -0.71875
v -16 -368 -0.71875
v 0 -368 -0.71875
v -32 -384 -0.71875
v -32 -368 -0.71875
v -48 -384 -0.71875
v -48 -368 -0.71875
v -64 -384 -0.71875
v -64 -368 -0.71875
v -80 -384 -0.71875
v -80 -368 -0.71875
v -96 -384 -0.71875
v -96 -368 -0.71875
v -112 -384 -0.71875
v -112 -368 -0.71875
v -128 -384 -0.71875
v -128 -368 -0.71875
v -144 -384 -0.71875
v -144 -368 -0.71875
v -160 -384 -0.71875
v -160 -368 -0.71875
v -176 -384 -0.71875
v -176 -368 -0.71875
v -192 -384 -0.71875
v -192 -368 -0.71875
v -208 -384 -0.71875
v -208 -368 -0.71875
v -224 -384 -0.71875
v -224 -368 -0.71875
v -240 -384 -0.71875
v -240 -368 -0.71875
v -272 -384 -0.71875
v -288 -384 -0.71875
v -288 -368 -0.71875
v -272 -368 -0.71875
v -304 -384 -0.71875
v -304 -368 -0.71875
v -320 -384 -0.71875
v -320 -368 -0.71875
v -336 -384 -0.71875
v -336 -368 -0.71875
v -352 -384 -0.71875
v -352 -368 -0.71875
v -368 -384 -0.71875
v -368 -368 -0.71875
v -384 -384 -0.71875
v -384 -368 -0.71875
v -400 -384 -0.71875
v -400 -368 -0.71875
v -416 -384 -0.71875
v -416 -368 -0.71875
v -480 -384 -0.71875
v -496 -384 -0.71875
v -496 -368 -0.71875
v -480 -368 -0.71875
v -512 -384 -0.71875
v -512 -368 -0.71875
v -528 -384 -0.71875
v -528 -368 -0.71875
v -544 -384 -0.71875
v -544 -368 -0.71875
v -560 -384 -0.71875
v -560 -368 -0.71875
v -576 -384 -0.71875
v -576 -368 -0.71875
v -592 -384 -0.71875
v -592 -368 -0.71875
v -608 -384 -0.71875
v -608 -368 -0.71875
v -624 -384 -0.71875
v -624 -368 -0.71875
v -640 -384 -0.71875
v -640 -368 -0.71875
v -656 -384 -0.71875
v -656 -368 -0.71875
v -672 -384 -0.71875
v -672 -368 -0.71875
v -688 -384 -0.71875
v -688 -368 -0.71875
v -704 -384 -0.71875
v -704 -368 -0.71875
v -720 -384 -0.71875
v -720 -368 -0.71875
v -736 -384 -0.71875
v -736 -368 -0.71875
v -752 -384 -0.71875
v -752 -368 -0.71875
v -768 -384 -0.71875
v -768 -368 -0.71875
v -784 -384 -0.71875
v -784 -368 -0.71875
v -800 -384 -0.71875
v -800 -368 -0.71875
v -816 -384 -0.71875
v -816 -368 -0.71875
v -832 -384 -0.71875
v -832 -368 -0.71875
v 0 -448 -0.84375
v -16 -448 -0.84375
v -16 -432 -0.84375
v 0 -432 -0.84375
v -32 -448 -0.84375
v -32 -432 -0.84375
v -48 -448 -0.84375
v -48 -432 -0.84375
v -64 -448 -0.84375
v -64 -432 -0.84375
v -80 -448 -0.84375
v -80 -432 -0.84375
v -96 -448 -0.84375
v -96 -432 -0.84375
v -112 -448 -0.84375
v -112 -432 -0.84375
v -128 -448 -0.84375
v -128 -432 -0.84375
v -144 -448 -0.84375
v -144 -432 -0.84375
v -160 -448 -0.84375
v -160 -432 -0.84375
v -176 -448 -0.84375
v -176 -432 -0.84375
v -192 -448 -0.84375
v -192 -432 -0.84375
v -208 -448 -0.84375
v -208 -432 -0.84375
v -224 -448 -0.84375
v -224 -432 -0.84375
v -240 -448 -0.84375
v -240 -432 -0.84375
v -256 -448 -0.84375
v -256 -432 -0.84375
v -272 -448 -0.84375
v -272 -432 -0.84375
v -288 -448 -0.84375
v -288 -432 -0.84375
v -304 -448 -0.84375
v -304 -432 -0.84375
v -320 -448 -0.84375
v -320 -432 -0.84375
v -336 -448 -0.84375
v -336 -432 -0.84375
v -352 -448 -0.84375
v -352 -432 -0.84375
v -368 -448 -0.84375
v -368 -432 -0.84375
v -384 -448 -0.84375
v -384 -432 -0.84375
v -400 -448 -0.84375
v -400 -432 -0.84375
v -416 -448 -0.84375
v -416 -432 -0.84375
v -432 -448 -0.84375
v -432 -432 -0.84375

# Texture cooridinates (Count = 4)
vt 1.220703E-05 0.8000122
vt 0.09998779 0.8000122
vt 0.09998779 0.8999878
vt 1.220703E-05 0.8999878

# Normal
vn 0 0 -1

# Groups (Count = 1)

g mesh_0001
f 1/1/1 2/2/1 3/3/1 4/4/1
f 2/1/1 5/2/1 6/3/1 3/4/1
f 5/1/1 7/2/1 8/3/1 6/4/1
f 7/1/1 9/2/1 10/3/1 8/4/1
f 9/1/1 11/2/1 12/3/1 10/4/1
f 11/1/1 13/2/1 14/3/1 12/4/1
f 13/1/1 15/2/1 16/3/1 14/4/1
f 15/1/1 17/2/1 18/3/1 16/4/1
f 17/1/1 19/2/1 20/3/1 18/4/1
f 19/1/1 21/2/1 22/3/1 20/4/1
f 21/1/1 23/2/1 24/3/1 22/4/1
f 25/1/1 26/2/1 27/3/1 28/4/1
f 26/1/1 29/2/1 30/3/1 27/4/1
f 29/1/1 31/2/1 32/3/1 30/4/1
f 31/1/1 33/2/1 34/3/1 32/4/1
f 33/1/1 35/2/1 36/3/1 34/4/1
f 37/1/1 38/2/1 39/3/1 40/4/1
f 38/1/1 41/2/1 42/3/1 39/4/1
f 41/1/1 43/2/1 44/3/1 42/4/1
f 45/1/1 46/2/1 47/3/1 48/4/1
f 46/1/1 49/2/1 50/3/1 47/4/1
f 49/1/1 51/2/1 52/3/1 50/4/1
f 53/1/1 54/2/1 55/3/1 56/4/1
f 54/1/1 57/2/1 58/3/1 55/4/1
f 57/1/1 59/2/1 60/3/1 58/4/1
f 61/1/1 62/2/1 63/3/1 64/4/1
f 65/1/1 66/2/1 67/3/1 68/4/1
f 69/1/1 70/2/1 71/3/1 72/4/1
f 73/1/1 74/2/1 75/3/1 76/4/1
f 77/1/1 78/2/1 79/3/1 80/4/1
f 81/1/1 82/2/1 83/3/1 84/4/1
f 82/1/1 85/2/1 86/3/1 83/4/1
f 85/1/1 87/2/1 88/3/1 86/4/1
f 87/1/1 89/2/1 90/3/1 88/4/1
f 89/1/1 91/2/1 92/3/1 90/4/1
f 91/1/1 93/2/1 94/3/1 92/4/1
f 93/1/1 95/2/1 96/3/1 94/4/1
f 95/1/1 97/2/1 98/3/1 96/4/1
f 97/1/1 99/2/1 100/3/1 98/4/1
f 99/1/1 101/2/1 102/3/1 100/4/1
f 101/1/1 103/2/1 104/3/1 102/4/1
f 103/1/1 105/2/1 106/3/1 104/4/1
f 105/1/1 107/2/1 108/3/1 106/4/1
f 107/1/1 109/2/1 110/3/1 108/4/1
f 109/1/1 111/2/1 112/3/1 110/4/1
f 113/1/1 114/2/1 115/3/1 116/4/1
f 114/1/1 117/2/1 118/3/1 115/4/1
f 117/1/1 119/2/1 120/3/1 118/4/1
f 119/1/1 121/2/1 122/3/1 120/4/1
f 121/1/1 123/2/1 124/3/1 122/4/1
f 123/1/1 125/2/1 126/3/1 124/4/1
f 125/1/1 127/2/1 128/3/1 126/4/1
f 127/1/1 129/2/1 130/3/1 128/4/1
f 129/1/1 131/2/1 132/3/1 130/4/1
f 133/1/1 134/2/1 135/3/1 136/4/1
f 134/1/1 137/2/1 138/3/1 135/4/1
f 137/1/1 139/2/1 140/3/1 138/4/1
f 139/1/1 141/2/1 142/3/1 140/4/1
f 141/1/1 143/2/1 144/3/1 142/4/1
f 143/1/1 145/2/1 146/3/1 144/4/1
f 145/1/1 147/2/1 148/3/1 146/4/1
f 147/1/1 149/2/1 150/3/1 148/4/1
f 149/1/1 151/2/1 152/3/1 150/4/1
f 151/1/1 153/2/1 154/3/1 152/4/1
f 153/1/1 155/2/1 156/3/1 154/4/1
f 155/1/1 157/2/1 158/3/1 156/4/1
f 157/1/1 159/2/1 160/3/1 158/4/1
f 159/1/1 161/2/1 162/3/1 160/4/1
f 161/1/1 163/2/1 164/3/1 162/4/1
f 163/1/1 165/2/1 166/3/1 164/4/1
f 165/1/1 167/2/1 168/3/1 166/4/1
f 167/1/1 169/2/1 170/3/1 168/4/1
f 169/1/1 171/2/1 172/3/1 170/4/1
f 171/1/1 173/2/1 174/3/1 172/4/1
f 173/1/1 175/2/1 176/3/1 174/4/1
f 175/1/1 177/2/1 178/3/1 176/4/1
f 179/1/1 180/2/1 181/3/1 182/4/1
f 180/1/1 183/2/1 184/3/1 181/4/1
f 183/1/1 185/2/1 186/3/1 184/4/1
f 185/1/1 187/2/1 188/3/1 186/4/1
f 187/1/1 189/2/1 190/3/1 188/4/1
f 189/1/1 191/2/1 192/3/1 190/4/1
f 191/1/1 193/2/1 194/3/1 192/4/1
f 193/1/1 195/2/1 196/3/1 194/4/1
f 195/1/1 197/2/1 198/3/1 196/4/1
f 197/1/1 199/2/1 200/3/1 198/4/1
f 199/1/1 201/2/1 202/3/1 200/4/1
f 201/1/1 203/2/1 204/3/1 202/4/1
f 203/1/1 205/2/1 206/3/1 204/4/1
f 205/1/1 207/2/1 208/3/1 206/4/1
f 207/1/1 209/2/1 210/3/1 208/4/1
f 209/1/1 211/2/1 212/3/1 210/4/1
f 211/1/1 213/2/1 214/3/1 212/4/1
f 213/1/1 215/2/1 216/3/1 214/4/1
f 215/1/1 217/2/1 218/3/1 216/4/1
f 217/1/1 219/2/1 220/3/1 218/4/1
f 219/1/1 221/2/1 222/3/1 220/4/1
f 221/1/1 223/2/1 224/3/1 222/4/1
f 223/1/1 225/2/1 226/3/1 224/4/1
f 225/1/1 227/2/1 228/3/1 226/4/1
f 227/1/1 229/2/1 230/3/1 228/4/1
f 229/1/1 231/2/1 232/3/1 230/4/1
f 231/1/1 233/2/1 234/3/1 232/4/1

