# Wavefront OBJ file automatically generated by Tiled2Unity

# Vertices (Count = 314)
v -672 -336 -0.625
v -688 -336 -0.625
v -688 -320 -0.625
v -672 -320 -0.625
v -704 -336 -0.625
v -704 -320 -0.625
v -720 -336 -0.625
v -720 -320 -0.625
v -736 -336 -0.625
v -736 -320 -0.625
v -752 -336 -0.625
v -752 -320 -0.625
v -768 -336 -0.625
v -768 -320 -0.625
v -832 -336 -0.625
v -848 -336 -0.625
v -848 -320 -0.625
v -832 -320 -0.625
v -832 -352 -0.65625
v -848 -352 -0.65625
v -848 -336 -0.65625
v -832 -336 -0.65625
v -832 -368 -0.6875
v -848 -368 -0.6875
v -848 -352 -0.6875
v -832 -352 -0.6875
v -832 -384 -0.71875
v -848 -384 -0.71875
v -848 -368 -0.71875
v -832 -368 -0.71875
v -832 -400 -0.75
v -848 -400 -0.75
v -848 -384 -0.75
v -832 -384 -0.75
v -560 -416 -0.78125
v -576 -416 -0.78125
v -576 -400 -0.78125
v -560 -400 -0.78125
v -592 -416 -0.78125
v -592 -400 -0.78125
v -608 -416 -0.78125
v -608 -400 -0.78125
v -624 -416 -0.78125
v -624 -400 -0.78125
v -640 -416 -0.78125
v -640 -400 -0.78125
v -656 -416 -0.78125
v -656 -400 -0.78125
v -672 -416 -0.78125
v -672 -400 -0.78125
v -688 -416 -0.78125
v -688 -400 -0.78125
v -704 -416 -0.78125
v -704 -400 -0.78125
v -720 -416 -0.78125
v -720 -400 -0.78125
v -736 -416 -0.78125
v -736 -400 -0.78125
v -752 -416 -0.78125
v -752 -400 -0.78125
v -768 -416 -0.78125
v -768 -400 -0.78125
v -784 -416 -0.78125
v -784 -400 -0.78125
v -800 -416 -0.78125
v -800 -400 -0.78125
v -816 -416 -0.78125
v -816 -400 -0.78125
v -832 -416 -0.78125
v -832 -400 -0.78125
v -848 -416 -0.78125
v -848 -400 -0.78125
v -928 -416 -0.78125
v -944 -416 -0.78125
v -944 -400 -0.78125
v -928 -400 -0.78125
v -960 -416 -0.78125
v -960 -400 -0.78125
v -976 -416 -0.78125
v -976 -400 -0.78125
v -992 -416 -0.78125
v -992 -400 -0.78125
v -1008 -416 -0.78125
v -1024 -416 -0.78125
v -1024 -400 -0.78125
v -1008 -400 -0.78125
v -1040 -416 -0.78125
v -1040 -400 -0.78125
v -1056 -416 -0.78125
v -1056 -400 -0.78125
v -1072 -416 -0.78125
v -1072 -400 -0.78125
v -1088 -416 -0.78125
v -1088 -400 -0.78125
v -1104 -416 -0.78125
v -1104 -400 -0.78125
v -1120 -416 -0.78125
v -1120 -400 -0.78125
v -1136 -416 -0.78125
v -1136 -400 -0.78125
v -1152 -416 -0.78125
v -1152 -400 -0.78125
v -1168 -416 -0.78125
v -1168 -400 -0.78125
v -1184 -416 -0.78125
v -1184 -400 -0.78125
v -1200 -416 -0.78125
v -1200 -400 -0.78125
v -1216 -416 -0.78125
v -1216 -400 -0.78125
v -1232 -416 -0.78125
v -1232 -400 -0.78125
v -1248 -416 -0.78125
v -1248 -400 -0.78125
v -1264 -416 -0.78125
v -1264 -400 -0.78125
v -544 -432 -0.8125
v -560 -432 -0.8125
v -560 -416 -0.8125
v -544 -416 -0.8125
v -576 -432 -0.8125
v -576 -416 -0.8125
v -592 -432 -0.8125
v -592 -416 -0.8125
v -608 -432 -0.8125
v -608 -416 -0.8125
v -624 -432 -0.8125
v -624 -416 -0.8125
v -640 -432 -0.8125
v -640 -416 -0.8125
v -656 -432 -0.8125
v -656 -416 -0.8125
v -672 -432 -0.8125
v -672 -416 -0.8125
v -688 -432 -0.8125
v -688 -416 -0.8125
v -704 -432 -0.8125
v -704 -416 -0.8125
v -720 -432 -0.8125
v -720 -416 -0.8125
v -736 -432 -0.8125
v -736 -416 -0.8125
v -752 -432 -0.8125
v -752 -416 -0.8125
v -912 -432 -0.8125
v -928 -432 -0.8125
v -928 -416 -0.8125
v -912 -416 -0.8125
v -528 -448 -0.84375
v -544 -448 -0.84375
v -544 -432 -0.84375
v -528 -432 -0.84375
v -560 -448 -0.84375
v -560 -432 -0.84375
v -576 -448 -0.84375
v -576 -432 -0.84375
v -592 -448 -0.84375
v -592 -432 -0.84375
v -608 -448 -0.84375
v -608 -432 -0.84375
v -624 -448 -0.84375
v -624 -432 -0.84375
v -640 -448 -0.84375
v -640 -432 -0.84375
v -656 -448 -0.84375
v -656 -432 -0.84375
v -672 -448 -0.84375
v -672 -432 -0.84375
v -688 -448 -0.84375
v -688 -432 -0.84375
v -704 -448 -0.84375
v -704 -432 -0.84375
v -720 -448 -0.84375
v -720 -432 -0.84375
v -736 -448 -0.84375
v -736 -432 -0.84375
v -896 -448 -0.84375
v -912 -448 -0.84375
v -912 -432 -0.84375
v -896 -432 -0.84375
v -1040 -464 -0.875
v -1056 -464 -0.875
v -1056 -448 -0.875
v -1040 -448 -0.875
v 0 -480 -0.90625
v -16 -480 -0.90625
v -16 -464 -0.90625
v 0 -464 -0.90625
v -32 -480 -0.90625
v -32 -464 -0.90625
v -48 -480 -0.90625
v -48 -464 -0.90625
v -64 -480 -0.90625
v -64 -464 -0.90625
v -80 -480 -0.90625
v -80 -464 -0.90625
v -96 -480 -0.90625
v -96 -464 -0.90625
v -112 -480 -0.90625
v -112 -464 -0.90625
v -128 -480 -0.90625
v -128 -464 -0.90625
v -144 -480 -0.90625
v -144 -464 -0.90625
v -304 -480 -0.90625
v -320 -480 -0.90625
v -320 -464 -0.90625
v -304 -464 -0.90625
v -336 -480 -0.90625
v -336 -464 -0.90625
v -352 -480 -0.90625
v -352 -464 -0.90625
v -368 -480 -0.90625
v -368 -464 -0.90625
v -384 -480 -0.90625
v -384 -464 -0.90625
v -400 -480 -0.90625
v -400 -464 -0.90625
v -416 -480 -0.90625
v -416 -464 -0.90625
v -432 -480 -0.90625
v -432 -464 -0.90625
v -448 -480 -0.90625
v -448 -464 -0.90625
v -464 -480 -0.90625
v -464 -464 -0.90625
v -480 -480 -0.90625
v -480 -464 -0.90625
v -496 -480 -0.90625
v -496 -464 -0.90625
v -512 -480 -0.90625
v -512 -464 -0.90625
v -528 -480 -0.90625
v -528 -464 -0.90625
v -544 -480 -0.90625
v -544 -464 -0.90625
v -560 -480 -0.90625
v -560 -464 -0.90625
v -720 -480 -0.90625
v -736 -480 -0.90625
v -736 -464 -0.90625
v -720 -464 -0.90625
v -752 -480 -0.90625
v -752 -464 -0.90625
v -768 -480 -0.90625
v -768 -464 -0.90625
v -784 -480 -0.90625
v -784 -464 -0.90625
v -800 -480 -0.90625
v -800 -464 -0.90625
v -832 -480 -0.90625
v -848 -480 -0.90625
v -848 -464 -0.90625
v -832 -464 -0.90625
v -864 -480 -0.90625
v -864 -464 -0.90625
v -880 -480 -0.90625
v -880 -464 -0.90625
v -896 -480 -0.90625
v -896 -464 -0.90625
v -912 -480 -0.90625
v -912 -464 -0.90625
v -928 -480 -0.90625
v -928 -464 -0.90625
v -944 -480 -0.90625
v -944 -464 -0.90625
v -960 -480 -0.90625
v -960 -464 -0.90625
v -976 -480 -0.90625
v -976 -464 -0.90625
v -992 -480 -0.90625
v -992 -464 -0.90625
v -1008 -480 -0.90625
v -1008 -464 -0.90625
v -1024 -480 -0.90625
v -1024 -464 -0.90625
v -1040 -480 -0.90625
v -1040 -464 -0.90625
v -800 -496 -0.9375
v -816 -496 -0.9375
v -816 -480 -0.9375
v -800 -480 -0.9375
v -816 -512 -0.96875
v -832 -512 -0.96875
v -832 -496 -0.96875
v -816 -496 -0.96875
v -848 -512 -0.96875
v -848 -496 -0.96875
v -864 -512 -0.96875
v -864 -496 -0.96875
v -880 -512 -0.96875
v -880 -496 -0.96875
v -896 -512 -0.96875
v -896 -496 -0.96875
v -912 -512 -0.96875
v -912 -496 -0.96875
v -928 -512 -0.96875
v -928 -496 -0.96875
v -944 -512 -0.96875
v -944 -496 -0.96875
v -960 -512 -0.96875
v -960 -496 -0.96875
v -976 -512 -0.96875
v -976 -496 -0.96875
v -992 -512 -0.96875
v -992 -496 -0.96875
v -1008 -512 -0.96875
v -1008 -496 -0.96875
v -1024 -512 -0.96875
v -1024 -496 -0.96875
v -1040 -512 -0.96875
v -1040 -496 -0.96875
v -1056 -512 -0.96875
v -1056 -496 -0.96875

# Texture cooridinates (Count = 4)
vt 1.220703E-05 0.7000122
vt 0.09998779 0.7000122
vt 0.09998779 0.7999878
vt 1.220703E-05 0.7999878

# Normal
vn 0 0 -1

# Groups (Count = 1)

g mesh_0001
f 1/1/1 2/2/1 3/3/1 4/4/1
f 2/1/1 5/2/1 6/3/1 3/4/1
f 5/1/1 7/2/1 8/3/1 6/4/1
f 7/1/1 9/2/1 10/3/1 8/4/1
f 9/1/1 11/2/1 12/3/1 10/4/1
f 11/1/1 13/2/1 14/3/1 12/4/1
f 15/1/1 16/2/1 17/3/1 18/4/1
f 19/1/1 20/2/1 21/3/1 22/4/1
f 23/1/1 24/2/1 25/3/1 26/4/1
f 27/1/1 28/2/1 29/3/1 30/4/1
f 31/1/1 32/2/1 33/3/1 34/4/1
f 35/1/1 36/2/1 37/3/1 38/4/1
f 36/1/1 39/2/1 40/3/1 37/4/1
f 39/1/1 41/2/1 42/3/1 40/4/1
f 41/1/1 43/2/1 44/3/1 42/4/1
f 43/1/1 45/2/1 46/3/1 44/4/1
f 45/1/1 47/2/1 48/3/1 46/4/1
f 47/1/1 49/2/1 50/3/1 48/4/1
f 49/1/1 51/2/1 52/3/1 50/4/1
f 51/1/1 53/2/1 54/3/1 52/4/1
f 53/1/1 55/2/1 56/3/1 54/4/1
f 55/1/1 57/2/1 58/3/1 56/4/1
f 57/1/1 59/2/1 60/3/1 58/4/1
f 59/1/1 61/2/1 62/3/1 60/4/1
f 61/1/1 63/2/1 64/3/1 62/4/1
f 63/1/1 65/2/1 66/3/1 64/4/1
f 65/1/1 67/2/1 68/3/1 66/4/1
f 67/1/1 69/2/1 70/3/1 68/4/1
f 69/1/1 71/2/1 72/3/1 70/4/1
f 73/1/1 74/2/1 75/3/1 76/4/1
f 74/1/1 77/2/1 78/3/1 75/4/1
f 77/1/1 79/2/1 80/3/1 78/4/1
f 79/1/1 81/2/1 82/3/1 80/4/1
f 83/1/1 84/2/1 85/3/1 86/4/1
f 84/1/1 87/2/1 88/3/1 85/4/1
f 87/1/1 89/2/1 90/3/1 88/4/1
f 89/1/1 91/2/1 92/3/1 90/4/1
f 91/1/1 93/2/1 94/3/1 92/4/1
f 93/1/1 95/2/1 96/3/1 94/4/1
f 95/1/1 97/2/1 98/3/1 96/4/1
f 97/1/1 99/2/1 100/3/1 98/4/1
f 99/1/1 101/2/1 102/3/1 100/4/1
f 101/1/1 103/2/1 104/3/1 102/4/1
f 103/1/1 105/2/1 106/3/1 104/4/1
f 105/1/1 107/2/1 108/3/1 106/4/1
f 107/1/1 109/2/1 110/3/1 108/4/1
f 109/1/1 111/2/1 112/3/1 110/4/1
f 111/1/1 113/2/1 114/3/1 112/4/1
f 113/1/1 115/2/1 116/3/1 114/4/1
f 117/1/1 118/2/1 119/3/1 120/4/1
f 118/1/1 121/2/1 122/3/1 119/4/1
f 121/1/1 123/2/1 124/3/1 122/4/1
f 123/1/1 125/2/1 126/3/1 124/4/1
f 125/1/1 127/2/1 128/3/1 126/4/1
f 127/1/1 129/2/1 130/3/1 128/4/1
f 129/1/1 131/2/1 132/3/1 130/4/1
f 131/1/1 133/2/1 134/3/1 132/4/1
f 133/1/1 135/2/1 136/3/1 134/4/1
f 135/1/1 137/2/1 138/3/1 136/4/1
f 137/1/1 139/2/1 140/3/1 138/4/1
f 139/1/1 141/2/1 142/3/1 140/4/1
f 141/1/1 143/2/1 144/3/1 142/4/1
f 145/1/1 146/2/1 147/3/1 148/4/1
f 149/1/1 150/2/1 151/3/1 152/4/1
f 150/1/1 153/2/1 154/3/1 151/4/1
f 153/1/1 155/2/1 156/3/1 154/4/1
f 155/1/1 157/2/1 158/3/1 156/4/1
f 157/1/1 159/2/1 160/3/1 158/4/1
f 159/1/1 161/2/1 162/3/1 160/4/1
f 161/1/1 163/2/1 164/3/1 162/4/1
f 163/1/1 165/2/1 166/3/1 164/4/1
f 165/1/1 167/2/1 168/3/1 166/4/1
f 167/1/1 169/2/1 170/3/1 168/4/1
f 169/1/1 171/2/1 172/3/1 170/4/1
f 171/1/1 173/2/1 174/3/1 172/4/1
f 173/1/1 175/2/1 176/3/1 174/4/1
f 177/1/1 178/2/1 179/3/1 180/4/1
f 181/1/1 182/2/1 183/3/1 184/4/1
f 185/1/1 186/2/1 187/3/1 188/4/1
f 186/1/1 189/2/1 190/3/1 187/4/1
f 189/1/1 191/2/1 192/3/1 190/4/1
f 191/1/1 193/2/1 194/3/1 192/4/1
f 193/1/1 195/2/1 196/3/1 194/4/1
f 195/1/1 197/2/1 198/3/1 196/4/1
f 197/1/1 199/2/1 200/3/1 198/4/1
f 199/1/1 201/2/1 202/3/1 200/4/1
f 201/1/1 203/2/1 204/3/1 202/4/1
f 205/1/1 206/2/1 207/3/1 208/4/1
f 206/1/1 209/2/1 210/3/1 207/4/1
f 209/1/1 211/2/1 212/3/1 210/4/1
f 211/1/1 213/2/1 214/3/1 212/4/1
f 213/1/1 215/2/1 216/3/1 214/4/1
f 215/1/1 217/2/1 218/3/1 216/4/1
f 217/1/1 219/2/1 220/3/1 218/4/1
f 219/1/1 221/2/1 222/3/1 220/4/1
f 221/1/1 223/2/1 224/3/1 222/4/1
f 223/1/1 225/2/1 226/3/1 224/4/1
f 225/1/1 227/2/1 228/3/1 226/4/1
f 227/1/1 229/2/1 230/3/1 228/4/1
f 229/1/1 231/2/1 232/3/1 230/4/1
f 231/1/1 233/2/1 234/3/1 232/4/1
f 233/1/1 235/2/1 236/3/1 234/4/1
f 235/1/1 237/2/1 238/3/1 236/4/1
f 239/1/1 240/2/1 241/3/1 242/4/1
f 240/1/1 243/2/1 244/3/1 241/4/1
f 243/1/1 245/2/1 246/3/1 244/4/1
f 245/1/1 247/2/1 248/3/1 246/4/1
f 247/1/1 249/2/1 250/3/1 248/4/1
f 251/1/1 252/2/1 253/3/1 254/4/1
f 252/1/1 255/2/1 256/3/1 253/4/1
f 255/1/1 257/2/1 258/3/1 256/4/1
f 257/1/1 259/2/1 260/3/1 258/4/1
f 259/1/1 261/2/1 262/3/1 260/4/1
f 261/1/1 263/2/1 264/3/1 262/4/1
f 263/1/1 265/2/1 266/3/1 264/4/1
f 265/1/1 267/2/1 268/3/1 266/4/1
f 267/1/1 269/2/1 270/3/1 268/4/1
f 269/1/1 271/2/1 272/3/1 270/4/1
f 271/1/1 273/2/1 274/3/1 272/4/1
f 273/1/1 275/2/1 276/3/1 274/4/1
f 275/1/1 277/2/1 278/3/1 276/4/1
f 279/1/1 280/2/1 281/3/1 282/4/1
f 283/1/1 284/2/1 285/3/1 286/4/1
f 284/1/1 287/2/1 288/3/1 285/4/1
f 287/1/1 289/2/1 290/3/1 288/4/1
f 289/1/1 291/2/1 292/3/1 290/4/1
f 291/1/1 293/2/1 294/3/1 292/4/1
f 293/1/1 295/2/1 296/3/1 294/4/1
f 295/1/1 297/2/1 298/3/1 296/4/1
f 297/1/1 299/2/1 300/3/1 298/4/1
f 299/1/1 301/2/1 302/3/1 300/4/1
f 301/1/1 303/2/1 304/3/1 302/4/1
f 303/1/1 305/2/1 306/3/1 304/4/1
f 305/1/1 307/2/1 308/3/1 306/4/1
f 307/1/1 309/2/1 310/3/1 308/4/1
f 309/1/1 311/2/1 312/3/1 310/4/1
f 311/1/1 313/2/1 314/3/1 312/4/1

