# Wavefront OBJ file automatically generated by Tiled2Unity

# Vertices (Count = 20)
v 0 -464 -0.875
v -16 -464 -0.875
v -16 -448 -0.875
v 0 -448 -0.875
v -32 -464 -0.875
v -32 -448 -0.875
v -48 -464 -0.875
v -48 -448 -0.875
v -64 -464 -0.875
v -64 -448 -0.875
v -80 -464 -0.875
v -80 -448 -0.875
v -96 -464 -0.875
v -96 -448 -0.875
v -112 -464 -0.875
v -112 -448 -0.875
v -128 -464 -0.875
v -128 -448 -0.875
v -144 -464 -0.875
v -144 -448 -0.875

# Texture cooridinates (Count = 4)
vt 1.220703E-05 0.4000122
vt 0.09998779 0.4000122
vt 0.09998779 0.4999878
vt 1.220703E-05 0.4999878

# Normal
vn 0 0 -1

# Groups (Count = 1)

g mesh_0001
f 1/1/1 2/2/1 3/3/1 4/4/1
f 2/1/1 5/2/1 6/3/1 3/4/1
f 5/1/1 7/2/1 8/3/1 6/4/1
f 7/1/1 9/2/1 10/3/1 8/4/1
f 9/1/1 11/2/1 12/3/1 10/4/1
f 11/1/1 13/2/1 14/3/1 12/4/1
f 13/1/1 15/2/1 16/3/1 14/4/1
f 15/1/1 17/2/1 18/3/1 16/4/1
f 17/1/1 19/2/1 20/3/1 18/4/1

