# Wavefront OBJ file automatically generated by Tiled2Unity

# Vertices (Count = 324)
v -624 -512 0
v -640 -512 0
v -640 -496 0
v -624 -496 0
v -656 -512 0
v -656 -496 0
v -672 -512 0
v -672 -496 0
v -688 -512 0
v -688 -496 0
v -704 -512 0
v -704 -496 0
v -720 -512 0
v -720 -496 0
v -768 -512 0
v -784 -512 0
v -784 -496 0
v -768 -496 0
v -800 -512 0
v -800 -496 0
v -816 -512 0
v -816 -496 0
v -832 -512 0
v -832 -496 0
v -848 -512 0
v -848 -496 0
v -864 -512 0
v -864 -496 0
v -880 -512 0
v -880 -496 0
v -896 -512 0
v -896 -496 0
v -912 -512 0
v -912 -496 0
v -928 -512 0
v -928 -496 0
v -640 -528 0
v -656 -528 0
v -672 -528 0
v -688 -528 0
v -832 -528 0
v -848 -528 0
v -864 -528 0
v -880 -528 0
v -896 -528 0
v -976 -624 0
v -992 -624 0
v -992 -608 0
v -976 -608 0
v -1008 -624 0
v -1008 -608 0
v -1024 -624 0
v -1024 -608 0
v -688 -640 0
v -704 -640 0
v -704 -624 0
v -688 -624 0
v -720 -640 0
v -720 -624 0
v -736 -640 0
v -736 -624 0
v -752 -640 0
v -752 -624 0
v -768 -640 0
v -768 -624 0
v -784 -640 0
v -784 -624 0
v -880 -640 0
v -896 -640 0
v -896 -624 0
v -880 -624 0
v -912 -640 0
v -912 -624 0
v -928 -640 0
v -928 -624 0
v -944 -640 0
v -944 -624 0
v -960 -640 0
v -960 -624 0
v -976 -640 0
v -992 -640 0
v -1008 -640 0
v -400 -656 0
v -416 -656 0
v -416 -640 0
v -400 -640 0
v -432 -656 0
v -432 -640 0
v -448 -656 0
v -448 -640 0
v -464 -656 0
v -464 -640 0
v -480 -656 0
v -480 -640 0
v -544 -656 0
v -560 -656 0
v -560 -640 0
v -544 -640 0
v -576 -656 0
v -576 -640 0
v -592 -656 0
v -592 -640 0
v -608 -656 0
v -608 -640 0
v -624 -656 0
v -624 -640 0
v -640 -656 0
v -640 -640 0
v -656 -656 0
v -656 -640 0
v -704 -656 0
v -720 -656 0
v -736 -656 0
v -752 -656 0
v -896 -656 0
v -912 -656 0
v -928 -656 0
v -944 -656 0
v -960 -656 0
v -976 -656 0
v -352 -672 0
v -368 -672 0
v -368 -656 0
v -352 -656 0
v -384 -672 0
v -384 -656 0
v -400 -672 0
v -416 -672 0
v -432 -672 0
v -448 -672 0
v -464 -672 0
v -576 -672 0
v -592 -672 0
v -608 -672 0
v -624 -672 0
v -640 -672 0
v -128 -688 0
v -144 -688 0
v -144 -672 0
v -128 -672 0
v -160 -688 0
v -160 -672 0
v -176 -688 0
v -176 -672 0
v -192 -688 0
v -192 -672 0
v -208 -688 0
v -208 -672 0
v -224 -688 0
v -224 -672 0
v -288 -688 0
v -304 -688 0
v -304 -672 0
v -288 -672 0
v -320 -688 0
v -320 -672 0
v -336 -688 0
v -336 -672 0
v -352 -688 0
v -368 -688 0
v -384 -688 0
v -400 -688 0
v -416 -688 0
v -432 -688 0
v -448 -688 0
v -144 -704 0
v -160 -704 0
v -176 -704 0
v -192 -704 0
v -304 -704 0
v -320 -704 0
v -336 -704 0
v -352 -704 0
v -368 -704 0
v -384 -704 0
v -400 -704 0
v -112 -800 0
v -128 -800 0
v -128 -784 0
v -112 -784 0
v -144 -800 0
v -144 -784 0
v -160 -800 0
v -160 -784 0
v -176 -800 0
v -176 -784 0
v -192 -800 0
v -192 -784 0
v -128 -816 0
v -144 -816 0
v -160 -816 0
v -208 -816 0
v -224 -816 0
v -224 -800 0
v -208 -800 0
v -240 -816 0
v -240 -800 0
v -256 -816 0
v -256 -800 0
v -272 -816 0
v -272 -800 0
v -288 -816 0
v -288 -800 0
v -304 -816 0
v -304 -800 0
v -352 -816 0
v -368 -816 0
v -368 -800 0
v -352 -800 0
v -384 -816 0
v -384 -800 0
v -400 -816 0
v -400 -800 0
v -416 -816 0
v -416 -800 0
v -432 -816 0
v -432 -800 0
v -448 -816 0
v -448 -800 0
v -464 -816 0
v -464 -800 0
v -480 -816 0
v -480 -800 0
v -496 -816 0
v -496 -800 0
v -512 -816 0
v -512 -800 0
v -528 -816 0
v -528 -800 0
v -544 -816 0
v -544 -800 0
v -224 -832 0
v -240 -832 0
v -256 -832 0
v -272 -832 0
v -384 -832 0
v -400 -832 0
v -416 -832 0
v -432 -832 0
v -448 -832 0
v -464 -832 0
v -480 -832 0
v -496 -832 0
v -512 -832 0
v -528 -832 0
v -544 -832 0
v -560 -832 0
v -560 -816 0
v -576 -832 0
v -576 -816 0
v -592 -832 0
v -592 -816 0
v 0 -912 0
v -16 -912 0
v -16 -896 0
v 0 -896 0
v 0 -928 0
v -16 -928 0
v -32 -928 0
v -32 -912 0
v -48 -928 0
v -48 -912 0
v -64 -928 0
v -64 -912 0
v -80 -928 0
v -80 -912 0
v -128 -928 0
v -144 -928 0
v -144 -912 0
v -128 -912 0
v -160 -928 0
v -160 -912 0
v -176 -928 0
v -176 -912 0
v -192 -928 0
v -192 -912 0
v -208 -928 0
v -208 -912 0
v -224 -928 0
v -224 -912 0
v -240 -928 0
v -240 -912 0
v -256 -928 0
v -256 -912 0
v -272 -928 0
v -272 -912 0
v -432 -928 0
v -448 -928 0
v -448 -912 0
v -432 -912 0
v -464 -928 0
v -464 -912 0
v -480 -928 0
v -480 -912 0
v -496 -928 0
v -496 -912 0
v -512 -928 0
v -512 -912 0
v -528 -928 0
v -528 -912 0
v -544 -928 0
v -544 -912 0
v -560 -928 0
v -560 -912 0
v -576 -928 0
v -576 -912 0
v -592 -928 0
v -592 -912 0
v -16 -944 0
v -32 -944 0
v -48 -944 0
v -144 -944 0
v -160 -944 0
v -176 -944 0
v -192 -944 0
v -208 -944 0
v -224 -944 0
v -240 -944 0
v -256 -944 0
v -464 -944 0
v -480 -944 0
v -496 -944 0
v -512 -944 0
v -528 -944 0

# Texture cooridinates (Count = 8)
vt 1.220703E-05 0.8000122
vt 0.09998779 0.8000122
vt 0.09998779 0.8999878
vt 1.220703E-05 0.8999878
vt 0.9000122 0.9000122
vt 0.9999878 0.9000122
vt 0.9999878 0.9999878
vt 0.9000122 0.9999878

# Normal
vn 0 0 -1

# Groups (Count = 2)

g mesh_0001
f 1/1/1 2/2/1 3/3/1 4/4/1
f 2/1/1 5/2/1 6/3/1 3/4/1
f 5/1/1 7/2/1 8/3/1 6/4/1
f 7/1/1 9/2/1 10/3/1 8/4/1
f 9/1/1 11/2/1 12/3/1 10/4/1
f 11/1/1 13/2/1 14/3/1 12/4/1
f 15/1/1 16/2/1 17/3/1 18/4/1
f 16/1/1 19/2/1 20/3/1 17/4/1
f 19/1/1 21/2/1 22/3/1 20/4/1
f 21/1/1 23/2/1 24/3/1 22/4/1
f 23/1/1 25/2/1 26/3/1 24/4/1
f 25/1/1 27/2/1 28/3/1 26/4/1
f 27/1/1 29/2/1 30/3/1 28/4/1
f 29/1/1 31/2/1 32/3/1 30/4/1
f 31/1/1 33/2/1 34/3/1 32/4/1
f 33/1/1 35/2/1 36/3/1 34/4/1
f 37/1/1 38/2/1 5/3/1 2/4/1
f 38/1/1 39/2/1 7/3/1 5/4/1
f 39/1/1 40/2/1 9/3/1 7/4/1
f 41/1/1 42/2/1 25/3/1 23/4/1
f 42/1/1 43/2/1 27/3/1 25/4/1
f 43/1/1 44/2/1 29/3/1 27/4/1
f 44/1/1 45/2/1 31/3/1 29/4/1
f 46/1/1 47/2/1 48/3/1 49/4/1
f 47/1/1 50/2/1 51/3/1 48/4/1
f 50/1/1 52/2/1 53/3/1 51/4/1
f 54/1/1 55/2/1 56/3/1 57/4/1
f 55/1/1 58/2/1 59/3/1 56/4/1
f 58/1/1 60/2/1 61/3/1 59/4/1
f 60/1/1 62/2/1 63/3/1 61/4/1
f 62/1/1 64/2/1 65/3/1 63/4/1
f 64/1/1 66/2/1 67/3/1 65/4/1
f 68/1/1 69/2/1 70/3/1 71/4/1
f 69/1/1 72/2/1 73/3/1 70/4/1
f 72/1/1 74/2/1 75/3/1 73/4/1
f 74/1/1 76/2/1 77/3/1 75/4/1
f 76/1/1 78/2/1 79/3/1 77/4/1
f 78/1/1 80/2/1 46/3/1 79/4/1
f 80/1/1 81/2/1 47/3/1 46/4/1
f 81/1/1 82/2/1 50/3/1 47/4/1
f 83/1/1 84/2/1 85/3/1 86/4/1
f 84/1/1 87/2/1 88/3/1 85/4/1
f 87/1/1 89/2/1 90/3/1 88/4/1
f 89/1/1 91/2/1 92/3/1 90/4/1
f 91/1/1 93/2/1 94/3/1 92/4/1
f 95/1/1 96/2/1 97/3/1 98/4/1
f 96/1/1 99/2/1 100/3/1 97/4/1
f 99/1/1 101/2/1 102/3/1 100/4/1
f 101/1/1 103/2/1 104/3/1 102/4/1
f 103/1/1 105/2/1 106/3/1 104/4/1
f 105/1/1 107/2/1 108/3/1 106/4/1
f 107/1/1 109/2/1 110/3/1 108/4/1
f 111/1/1 112/2/1 58/3/1 55/4/1
f 112/1/1 113/2/1 60/3/1 58/4/1
f 113/1/1 114/2/1 62/3/1 60/4/1
f 115/1/1 116/2/1 72/3/1 69/4/1
f 116/1/1 117/2/1 74/3/1 72/4/1
f 117/1/1 118/2/1 76/3/1 74/4/1
f 118/1/1 119/2/1 78/3/1 76/4/1
f 119/1/1 120/2/1 80/3/1 78/4/1
f 121/1/1 122/2/1 123/3/1 124/4/1
f 122/1/1 125/2/1 126/3/1 123/4/1
f 125/1/1 127/2/1 83/3/1 126/4/1
f 127/1/1 128/2/1 84/3/1 83/4/1
f 128/1/1 129/2/1 87/3/1 84/4/1
f 129/1/1 130/2/1 89/3/1 87/4/1
f 130/1/1 131/2/1 91/3/1 89/4/1
f 132/1/1 133/2/1 101/3/1 99/4/1
f 133/1/1 134/2/1 103/3/1 101/4/1
f 134/1/1 135/2/1 105/3/1 103/4/1
f 135/1/1 136/2/1 107/3/1 105/4/1
f 137/1/1 138/2/1 139/3/1 140/4/1
f 138/1/1 141/2/1 142/3/1 139/4/1
f 141/1/1 143/2/1 144/3/1 142/4/1
f 143/1/1 145/2/1 146/3/1 144/4/1
f 145/1/1 147/2/1 148/3/1 146/4/1
f 147/1/1 149/2/1 150/3/1 148/4/1
f 151/1/1 152/2/1 153/3/1 154/4/1
f 152/1/1 155/2/1 156/3/1 153/4/1
f 155/1/1 157/2/1 158/3/1 156/4/1
f 157/1/1 159/2/1 121/3/1 158/4/1
f 159/1/1 160/2/1 122/3/1 121/4/1
f 160/1/1 161/2/1 125/3/1 122/4/1
f 161/1/1 162/2/1 127/3/1 125/4/1
f 162/1/1 163/2/1 128/3/1 127/4/1
f 163/1/1 164/2/1 129/3/1 128/4/1
f 164/1/1 165/2/1 130/3/1 129/4/1
f 166/1/1 167/2/1 141/3/1 138/4/1
f 167/1/1 168/2/1 143/3/1 141/4/1
f 168/1/1 169/2/1 145/3/1 143/4/1
f 170/1/1 171/2/1 155/3/1 152/4/1
f 171/1/1 172/2/1 157/3/1 155/4/1
f 172/1/1 173/2/1 159/3/1 157/4/1
f 173/1/1 174/2/1 160/3/1 159/4/1
f 174/1/1 175/2/1 161/3/1 160/4/1
f 175/1/1 176/2/1 162/3/1 161/4/1
f 177/1/1 178/2/1 179/3/1 180/4/1
f 178/1/1 181/2/1 182/3/1 179/4/1
f 181/1/1 183/2/1 184/3/1 182/4/1
f 183/1/1 185/2/1 186/3/1 184/4/1
f 185/1/1 187/2/1 188/3/1 186/4/1
f 189/1/1 190/2/1 181/3/1 178/4/1
f 190/1/1 191/2/1 183/3/1 181/4/1
f 192/1/1 193/2/1 194/3/1 195/4/1
f 193/1/1 196/2/1 197/3/1 194/4/1
f 196/1/1 198/2/1 199/3/1 197/4/1
f 198/1/1 200/2/1 201/3/1 199/4/1
f 200/1/1 202/2/1 203/3/1 201/4/1
f 202/1/1 204/2/1 205/3/1 203/4/1
f 206/1/1 207/2/1 208/3/1 209/4/1
f 207/1/1 210/2/1 211/3/1 208/4/1
f 210/1/1 212/2/1 213/3/1 211/4/1
f 212/1/1 214/2/1 215/3/1 213/4/1
f 214/1/1 216/2/1 217/3/1 215/4/1
f 216/1/1 218/2/1 219/3/1 217/4/1
f 218/1/1 220/2/1 221/3/1 219/4/1
f 220/1/1 222/2/1 223/3/1 221/4/1
f 222/1/1 224/2/1 225/3/1 223/4/1
f 224/1/1 226/2/1 227/3/1 225/4/1
f 226/1/1 228/2/1 229/3/1 227/4/1
f 228/1/1 230/2/1 231/3/1 229/4/1
f 232/1/1 233/2/1 196/3/1 193/4/1
f 233/1/1 234/2/1 198/3/1 196/4/1
f 234/1/1 235/2/1 200/3/1 198/4/1
f 236/1/1 237/2/1 212/3/1 210/4/1
f 237/1/1 238/2/1 214/3/1 212/4/1
f 238/1/1 239/2/1 216/3/1 214/4/1
f 239/1/1 240/2/1 218/3/1 216/4/1
f 240/1/1 241/2/1 220/3/1 218/4/1
f 241/1/1 242/2/1 222/3/1 220/4/1
f 242/1/1 243/2/1 224/3/1 222/4/1
f 243/1/1 244/2/1 226/3/1 224/4/1
f 244/1/1 245/2/1 228/3/1 226/4/1
f 245/1/1 246/2/1 230/3/1 228/4/1
f 246/1/1 247/2/1 248/3/1 230/4/1
f 247/1/1 249/2/1 250/3/1 248/4/1
f 249/1/1 251/2/1 252/3/1 250/4/1
f 253/1/1 254/2/1 255/3/1 256/4/1
f 257/1/1 258/2/1 254/3/1 253/4/1
f 258/1/1 259/2/1 260/3/1 254/4/1
f 259/1/1 261/2/1 262/3/1 260/4/1
f 261/1/1 263/2/1 264/3/1 262/4/1
f 263/1/1 265/2/1 266/3/1 264/4/1
f 267/1/1 268/2/1 269/3/1 270/4/1
f 268/1/1 271/2/1 272/3/1 269/4/1
f 271/1/1 273/2/1 274/3/1 272/4/1
f 273/1/1 275/2/1 276/3/1 274/4/1
f 275/1/1 277/2/1 278/3/1 276/4/1
f 277/1/1 279/2/1 280/3/1 278/4/1
f 279/1/1 281/2/1 282/3/1 280/4/1
f 281/1/1 283/2/1 284/3/1 282/4/1
f 283/1/1 285/2/1 286/3/1 284/4/1
f 287/1/1 288/2/1 289/3/1 290/4/1
f 288/1/1 291/2/1 292/3/1 289/4/1
f 291/1/1 293/2/1 294/3/1 292/4/1
f 293/1/1 295/2/1 296/3/1 294/4/1
f 295/1/1 297/2/1 298/3/1 296/4/1
f 297/1/1 299/2/1 300/3/1 298/4/1
f 299/1/1 301/2/1 302/3/1 300/4/1
f 301/1/1 303/2/1 304/3/1 302/4/1
f 303/1/1 305/2/1 306/3/1 304/4/1
f 305/1/1 307/2/1 308/3/1 306/4/1
f 309/1/1 310/2/1 259/3/1 258/4/1
f 310/1/1 311/2/1 261/3/1 259/4/1
f 312/1/1 313/2/1 271/3/1 268/4/1
f 313/1/1 314/2/1 273/3/1 271/4/1
f 314/1/1 315/2/1 275/3/1 273/4/1
f 315/1/1 316/2/1 277/3/1 275/4/1
f 316/1/1 317/2/1 279/3/1 277/4/1
f 317/1/1 318/2/1 281/3/1 279/4/1
f 318/1/1 319/2/1 283/3/1 281/4/1
f 320/1/1 321/2/1 293/3/1 291/4/1
f 321/1/1 322/2/1 295/3/1 293/4/1
f 322/1/1 323/2/1 297/3/1 295/4/1
f 323/1/1 324/2/1 299/3/1 297/4/1

g mesh_0002
f 1/5/1 2/6/1 3/7/1 4/8/1
f 2/5/1 5/6/1 6/7/1 3/8/1
f 5/5/1 7/6/1 8/7/1 6/8/1
f 7/5/1 9/6/1 10/7/1 8/8/1
f 9/5/1 11/6/1 12/7/1 10/8/1
f 11/5/1 13/6/1 14/7/1 12/8/1
f 15/5/1 16/6/1 17/7/1 18/8/1
f 16/5/1 19/6/1 20/7/1 17/8/1
f 19/5/1 21/6/1 22/7/1 20/8/1
f 21/5/1 23/6/1 24/7/1 22/8/1
f 23/5/1 25/6/1 26/7/1 24/8/1
f 25/5/1 27/6/1 28/7/1 26/8/1
f 27/5/1 29/6/1 30/7/1 28/8/1
f 29/5/1 31/6/1 32/7/1 30/8/1
f 31/5/1 33/6/1 34/7/1 32/8/1
f 33/5/1 35/6/1 36/7/1 34/8/1
f 37/5/1 38/6/1 5/7/1 2/8/1
f 38/5/1 39/6/1 7/7/1 5/8/1
f 39/5/1 40/6/1 9/7/1 7/8/1
f 41/5/1 42/6/1 25/7/1 23/8/1
f 42/5/1 43/6/1 27/7/1 25/8/1
f 43/5/1 44/6/1 29/7/1 27/8/1
f 44/5/1 45/6/1 31/7/1 29/8/1
f 46/5/1 47/6/1 48/7/1 49/8/1
f 47/5/1 50/6/1 51/7/1 48/8/1
f 50/5/1 52/6/1 53/7/1 51/8/1
f 54/5/1 55/6/1 56/7/1 57/8/1
f 55/5/1 58/6/1 59/7/1 56/8/1
f 58/5/1 60/6/1 61/7/1 59/8/1
f 60/5/1 62/6/1 63/7/1 61/8/1
f 62/5/1 64/6/1 65/7/1 63/8/1
f 64/5/1 66/6/1 67/7/1 65/8/1
f 68/5/1 69/6/1 70/7/1 71/8/1
f 69/5/1 72/6/1 73/7/1 70/8/1
f 72/5/1 74/6/1 75/7/1 73/8/1
f 74/5/1 76/6/1 77/7/1 75/8/1
f 76/5/1 78/6/1 79/7/1 77/8/1
f 78/5/1 80/6/1 46/7/1 79/8/1
f 80/5/1 81/6/1 47/7/1 46/8/1
f 81/5/1 82/6/1 50/7/1 47/8/1
f 83/5/1 84/6/1 85/7/1 86/8/1
f 84/5/1 87/6/1 88/7/1 85/8/1
f 87/5/1 89/6/1 90/7/1 88/8/1
f 89/5/1 91/6/1 92/7/1 90/8/1
f 91/5/1 93/6/1 94/7/1 92/8/1
f 95/5/1 96/6/1 97/7/1 98/8/1
f 96/5/1 99/6/1 100/7/1 97/8/1
f 99/5/1 101/6/1 102/7/1 100/8/1
f 101/5/1 103/6/1 104/7/1 102/8/1
f 103/5/1 105/6/1 106/7/1 104/8/1
f 105/5/1 107/6/1 108/7/1 106/8/1
f 107/5/1 109/6/1 110/7/1 108/8/1
f 111/5/1 112/6/1 58/7/1 55/8/1
f 112/5/1 113/6/1 60/7/1 58/8/1
f 113/5/1 114/6/1 62/7/1 60/8/1
f 115/5/1 116/6/1 72/7/1 69/8/1
f 116/5/1 117/6/1 74/7/1 72/8/1
f 117/5/1 118/6/1 76/7/1 74/8/1
f 118/5/1 119/6/1 78/7/1 76/8/1
f 119/5/1 120/6/1 80/7/1 78/8/1
f 121/5/1 122/6/1 123/7/1 124/8/1
f 122/5/1 125/6/1 126/7/1 123/8/1
f 125/5/1 127/6/1 83/7/1 126/8/1
f 127/5/1 128/6/1 84/7/1 83/8/1
f 128/5/1 129/6/1 87/7/1 84/8/1
f 129/5/1 130/6/1 89/7/1 87/8/1
f 130/5/1 131/6/1 91/7/1 89/8/1
f 132/5/1 133/6/1 101/7/1 99/8/1
f 133/5/1 134/6/1 103/7/1 101/8/1
f 134/5/1 135/6/1 105/7/1 103/8/1
f 135/5/1 136/6/1 107/7/1 105/8/1
f 137/5/1 138/6/1 139/7/1 140/8/1
f 138/5/1 141/6/1 142/7/1 139/8/1
f 141/5/1 143/6/1 144/7/1 142/8/1
f 143/5/1 145/6/1 146/7/1 144/8/1
f 145/5/1 147/6/1 148/7/1 146/8/1
f 147/5/1 149/6/1 150/7/1 148/8/1
f 151/5/1 152/6/1 153/7/1 154/8/1
f 152/5/1 155/6/1 156/7/1 153/8/1
f 155/5/1 157/6/1 158/7/1 156/8/1
f 157/5/1 159/6/1 121/7/1 158/8/1
f 159/5/1 160/6/1 122/7/1 121/8/1
f 160/5/1 161/6/1 125/7/1 122/8/1
f 161/5/1 162/6/1 127/7/1 125/8/1
f 162/5/1 163/6/1 128/7/1 127/8/1
f 163/5/1 164/6/1 129/7/1 128/8/1
f 164/5/1 165/6/1 130/7/1 129/8/1
f 166/5/1 167/6/1 141/7/1 138/8/1
f 167/5/1 168/6/1 143/7/1 141/8/1
f 168/5/1 169/6/1 145/7/1 143/8/1
f 170/5/1 171/6/1 155/7/1 152/8/1
f 171/5/1 172/6/1 157/7/1 155/8/1
f 172/5/1 173/6/1 159/7/1 157/8/1
f 173/5/1 174/6/1 160/7/1 159/8/1
f 174/5/1 175/6/1 161/7/1 160/8/1
f 175/5/1 176/6/1 162/7/1 161/8/1
f 177/5/1 178/6/1 179/7/1 180/8/1
f 178/5/1 181/6/1 182/7/1 179/8/1
f 181/5/1 183/6/1 184/7/1 182/8/1
f 183/5/1 185/6/1 186/7/1 184/8/1
f 185/5/1 187/6/1 188/7/1 186/8/1
f 189/5/1 190/6/1 181/7/1 178/8/1
f 190/5/1 191/6/1 183/7/1 181/8/1
f 192/5/1 193/6/1 194/7/1 195/8/1
f 193/5/1 196/6/1 197/7/1 194/8/1
f 196/5/1 198/6/1 199/7/1 197/8/1
f 198/5/1 200/6/1 201/7/1 199/8/1
f 200/5/1 202/6/1 203/7/1 201/8/1
f 202/5/1 204/6/1 205/7/1 203/8/1
f 206/5/1 207/6/1 208/7/1 209/8/1
f 207/5/1 210/6/1 211/7/1 208/8/1
f 210/5/1 212/6/1 213/7/1 211/8/1
f 212/5/1 214/6/1 215/7/1 213/8/1
f 214/5/1 216/6/1 217/7/1 215/8/1
f 216/5/1 218/6/1 219/7/1 217/8/1
f 218/5/1 220/6/1 221/7/1 219/8/1
f 220/5/1 222/6/1 223/7/1 221/8/1
f 222/5/1 224/6/1 225/7/1 223/8/1
f 224/5/1 226/6/1 227/7/1 225/8/1
f 226/5/1 228/6/1 229/7/1 227/8/1
f 228/5/1 230/6/1 231/7/1 229/8/1
f 232/5/1 233/6/1 196/7/1 193/8/1
f 233/5/1 234/6/1 198/7/1 196/8/1
f 234/5/1 235/6/1 200/7/1 198/8/1
f 236/5/1 237/6/1 212/7/1 210/8/1
f 237/5/1 238/6/1 214/7/1 212/8/1
f 238/5/1 239/6/1 216/7/1 214/8/1
f 239/5/1 240/6/1 218/7/1 216/8/1
f 240/5/1 241/6/1 220/7/1 218/8/1
f 241/5/1 242/6/1 222/7/1 220/8/1
f 242/5/1 243/6/1 224/7/1 222/8/1
f 243/5/1 244/6/1 226/7/1 224/8/1
f 244/5/1 245/6/1 228/7/1 226/8/1
f 245/5/1 246/6/1 230/7/1 228/8/1
f 246/5/1 247/6/1 248/7/1 230/8/1
f 247/5/1 249/6/1 250/7/1 248/8/1
f 249/5/1 251/6/1 252/7/1 250/8/1
f 253/5/1 254/6/1 255/7/1 256/8/1
f 257/5/1 258/6/1 254/7/1 253/8/1
f 258/5/1 259/6/1 260/7/1 254/8/1
f 259/5/1 261/6/1 262/7/1 260/8/1
f 261/5/1 263/6/1 264/7/1 262/8/1
f 263/5/1 265/6/1 266/7/1 264/8/1
f 267/5/1 268/6/1 269/7/1 270/8/1
f 268/5/1 271/6/1 272/7/1 269/8/1
f 271/5/1 273/6/1 274/7/1 272/8/1
f 273/5/1 275/6/1 276/7/1 274/8/1
f 275/5/1 277/6/1 278/7/1 276/8/1
f 277/5/1 279/6/1 280/7/1 278/8/1
f 279/5/1 281/6/1 282/7/1 280/8/1
f 281/5/1 283/6/1 284/7/1 282/8/1
f 283/5/1 285/6/1 286/7/1 284/8/1
f 287/5/1 288/6/1 289/7/1 290/8/1
f 288/5/1 291/6/1 292/7/1 289/8/1
f 291/5/1 293/6/1 294/7/1 292/8/1
f 293/5/1 295/6/1 296/7/1 294/8/1
f 295/5/1 297/6/1 298/7/1 296/8/1
f 297/5/1 299/6/1 300/7/1 298/8/1
f 299/5/1 301/6/1 302/7/1 300/8/1
f 301/5/1 303/6/1 304/7/1 302/8/1
f 303/5/1 305/6/1 306/7/1 304/8/1
f 305/5/1 307/6/1 308/7/1 306/8/1
f 309/5/1 310/6/1 259/7/1 258/8/1
f 310/5/1 311/6/1 261/7/1 259/8/1
f 312/5/1 313/6/1 271/7/1 268/8/1
f 313/5/1 314/6/1 273/7/1 271/8/1
f 314/5/1 315/6/1 275/7/1 273/8/1
f 315/5/1 316/6/1 277/7/1 275/8/1
f 316/5/1 317/6/1 279/7/1 277/8/1
f 317/5/1 318/6/1 281/7/1 279/8/1
f 318/5/1 319/6/1 283/7/1 281/8/1
f 320/5/1 321/6/1 293/7/1 291/8/1
f 321/5/1 322/6/1 295/7/1 293/8/1
f 322/5/1 323/6/1 297/7/1 295/8/1
f 323/5/1 324/6/1 299/7/1 297/8/1

