# Wavefront OBJ file automatically generated by Tiled2Unity

# Vertices (Count = 160)
v -496 -448 0
v -512 -448 0
v -512 -432 0
v -496 -432 0
v -528 -448 0
v -528 -432 0
v -544 -448 0
v -544 -432 0
v -560 -448 0
v -560 -432 0
v -576 -448 0
v -576 -432 0
v -592 -448 0
v -592 -432 0
v -608 -448 0
v -608 -432 0
v -384 -576 0
v -400 -576 0
v -400 -560 0
v -384 -560 0
v -416 -576 0
v -416 -560 0
v -432 -576 0
v -432 -560 0
v -448 -576 0
v -448 -560 0
v -464 -576 0
v -464 -560 0
v -480 -576 0
v -480 -560 0
v -496 -576 0
v -496 -560 0
v -512 -576 0
v -512 -560 0
v -528 -576 0
v -528 -560 0
v -560 -576 0
v -576 -576 0
v -576 -560 0
v -560 -560 0
v -592 -576 0
v -592 -560 0
v -608 -576 0
v -608 -560 0
v -624 -576 0
v -624 -560 0
v -640 -576 0
v -640 -560 0
v -656 -576 0
v -656 -560 0
v -672 -576 0
v -672 -560 0
v -288 -656 0
v -304 -656 0
v -304 -640 0
v -288 -640 0
v -320 -656 0
v -320 -640 0
v -336 -656 0
v -336 -640 0
v -352 -656 0
v -352 -640 0
v -368 -656 0
v -368 -640 0
v -384 -656 0
v -384 -640 0
v -400 -656 0
v -400 -640 0
v -416 -656 0
v -416 -640 0
v -432 -656 0
v -432 -640 0
v -624 -656 0
v -640 -656 0
v -640 -640 0
v -624 -640 0
v -656 -656 0
v -656 -640 0
v -672 -656 0
v -672 -640 0
v -688 -656 0
v -688 -640 0
v -704 -656 0
v -704 -640 0
v -720 -656 0
v -720 -640 0
v -736 -656 0
v -736 -640 0
v -752 -656 0
v -752 -640 0
v -144 -736 0
v -160 -736 0
v -160 -720 0
v -144 -720 0
v -176 -736 0
v -176 -720 0
v -192 -736 0
v -192 -720 0
v -208 -736 0
v -208 -720 0
v -592 -736 0
v -608 -736 0
v -608 -720 0
v -592 -720 0
v -272 -816 0
v -288 -816 0
v -288 -800 0
v -272 -800 0
v -304 -816 0
v -304 -800 0
v -320 -816 0
v -320 -800 0
v -336 -816 0
v -336 -800 0
v -368 -816 0
v -384 -816 0
v -384 -800 0
v -368 -800 0
v -400 -816 0
v -400 -800 0
v -416 -816 0
v -416 -800 0
v -432 -816 0
v -432 -800 0
v -480 -816 0
v -496 -816 0
v -496 -800 0
v -480 -800 0
v -512 -816 0
v -512 -800 0
v -528 -816 0
v -528 -800 0
v -544 -816 0
v -544 -800 0
v -416 -896 0
v -432 -896 0
v -432 -880 0
v -416 -880 0
v -448 -896 0
v -448 -880 0
v -464 -896 0
v -464 -880 0
v -480 -896 0
v -480 -880 0
v -496 -896 0
v -496 -880 0
v -512 -896 0
v -512 -880 0
v -528 -896 0
v -528 -880 0
v -544 -896 0
v -544 -880 0
v -560 -896 0
v -560 -880 0
v -576 -896 0
v -576 -880 0
v -592 -896 0
v -592 -880 0
v -608 -896 0
v -608 -880 0

# Texture cooridinates (Count = 8)
vt 0.1000122 0.8000122
vt 0.1999878 0.8000122
vt 0.1999878 0.8999878
vt 0.1000122 0.8999878
vt 0.9000122 0.9000122
vt 0.9999878 0.9000122
vt 0.9999878 0.9999878
vt 0.9000122 0.9999878

# Normal
vn 0 0 -1

# Groups (Count = 2)

g mesh_0001
f 1/1/1 2/2/1 3/3/1 4/4/1
f 2/1/1 5/2/1 6/3/1 3/4/1
f 5/1/1 7/2/1 8/3/1 6/4/1
f 7/1/1 9/2/1 10/3/1 8/4/1
f 9/1/1 11/2/1 12/3/1 10/4/1
f 11/1/1 13/2/1 14/3/1 12/4/1
f 13/1/1 15/2/1 16/3/1 14/4/1
f 17/1/1 18/2/1 19/3/1 20/4/1
f 18/1/1 21/2/1 22/3/1 19/4/1
f 21/1/1 23/2/1 24/3/1 22/4/1
f 23/1/1 25/2/1 26/3/1 24/4/1
f 25/1/1 27/2/1 28/3/1 26/4/1
f 27/1/1 29/2/1 30/3/1 28/4/1
f 29/1/1 31/2/1 32/3/1 30/4/1
f 31/1/1 33/2/1 34/3/1 32/4/1
f 33/1/1 35/2/1 36/3/1 34/4/1
f 37/1/1 38/2/1 39/3/1 40/4/1
f 38/1/1 41/2/1 42/3/1 39/4/1
f 41/1/1 43/2/1 44/3/1 42/4/1
f 43/1/1 45/2/1 46/3/1 44/4/1
f 45/1/1 47/2/1 48/3/1 46/4/1
f 47/1/1 49/2/1 50/3/1 48/4/1
f 49/1/1 51/2/1 52/3/1 50/4/1
f 53/1/1 54/2/1 55/3/1 56/4/1
f 54/1/1 57/2/1 58/3/1 55/4/1
f 57/1/1 59/2/1 60/3/1 58/4/1
f 59/1/1 61/2/1 62/3/1 60/4/1
f 61/1/1 63/2/1 64/3/1 62/4/1
f 63/1/1 65/2/1 66/3/1 64/4/1
f 65/1/1 67/2/1 68/3/1 66/4/1
f 67/1/1 69/2/1 70/3/1 68/4/1
f 69/1/1 71/2/1 72/3/1 70/4/1
f 73/1/1 74/2/1 75/3/1 76/4/1
f 74/1/1 77/2/1 78/3/1 75/4/1
f 77/1/1 79/2/1 80/3/1 78/4/1
f 79/1/1 81/2/1 82/3/1 80/4/1
f 81/1/1 83/2/1 84/3/1 82/4/1
f 83/1/1 85/2/1 86/3/1 84/4/1
f 85/1/1 87/2/1 88/3/1 86/4/1
f 87/1/1 89/2/1 90/3/1 88/4/1
f 91/1/1 92/2/1 93/3/1 94/4/1
f 92/1/1 95/2/1 96/3/1 93/4/1
f 95/1/1 97/2/1 98/3/1 96/4/1
f 97/1/1 99/2/1 100/3/1 98/4/1
f 101/1/1 102/2/1 103/3/1 104/4/1
f 105/1/1 106/2/1 107/3/1 108/4/1
f 106/1/1 109/2/1 110/3/1 107/4/1
f 109/1/1 111/2/1 112/3/1 110/4/1
f 111/1/1 113/2/1 114/3/1 112/4/1
f 115/1/1 116/2/1 117/3/1 118/4/1
f 116/1/1 119/2/1 120/3/1 117/4/1
f 119/1/1 121/2/1 122/3/1 120/4/1
f 121/1/1 123/2/1 124/3/1 122/4/1
f 125/1/1 126/2/1 127/3/1 128/4/1
f 126/1/1 129/2/1 130/3/1 127/4/1
f 129/1/1 131/2/1 132/3/1 130/4/1
f 131/1/1 133/2/1 134/3/1 132/4/1
f 135/1/1 136/2/1 137/3/1 138/4/1
f 136/1/1 139/2/1 140/3/1 137/4/1
f 139/1/1 141/2/1 142/3/1 140/4/1
f 141/1/1 143/2/1 144/3/1 142/4/1
f 143/1/1 145/2/1 146/3/1 144/4/1
f 145/1/1 147/2/1 148/3/1 146/4/1
f 147/1/1 149/2/1 150/3/1 148/4/1
f 149/1/1 151/2/1 152/3/1 150/4/1
f 151/1/1 153/2/1 154/3/1 152/4/1
f 153/1/1 155/2/1 156/3/1 154/4/1
f 155/1/1 157/2/1 158/3/1 156/4/1
f 157/1/1 159/2/1 160/3/1 158/4/1

g mesh_0002
f 1/5/1 2/6/1 3/7/1 4/8/1
f 2/5/1 5/6/1 6/7/1 3/8/1
f 5/5/1 7/6/1 8/7/1 6/8/1
f 7/5/1 9/6/1 10/7/1 8/8/1
f 9/5/1 11/6/1 12/7/1 10/8/1
f 11/5/1 13/6/1 14/7/1 12/8/1
f 13/5/1 15/6/1 16/7/1 14/8/1
f 17/5/1 18/6/1 19/7/1 20/8/1
f 18/5/1 21/6/1 22/7/1 19/8/1
f 21/5/1 23/6/1 24/7/1 22/8/1
f 23/5/1 25/6/1 26/7/1 24/8/1
f 25/5/1 27/6/1 28/7/1 26/8/1
f 27/5/1 29/6/1 30/7/1 28/8/1
f 29/5/1 31/6/1 32/7/1 30/8/1
f 31/5/1 33/6/1 34/7/1 32/8/1
f 33/5/1 35/6/1 36/7/1 34/8/1
f 37/5/1 38/6/1 39/7/1 40/8/1
f 38/5/1 41/6/1 42/7/1 39/8/1
f 41/5/1 43/6/1 44/7/1 42/8/1
f 43/5/1 45/6/1 46/7/1 44/8/1
f 45/5/1 47/6/1 48/7/1 46/8/1
f 47/5/1 49/6/1 50/7/1 48/8/1
f 49/5/1 51/6/1 52/7/1 50/8/1
f 53/5/1 54/6/1 55/7/1 56/8/1
f 54/5/1 57/6/1 58/7/1 55/8/1
f 57/5/1 59/6/1 60/7/1 58/8/1
f 59/5/1 61/6/1 62/7/1 60/8/1
f 61/5/1 63/6/1 64/7/1 62/8/1
f 63/5/1 65/6/1 66/7/1 64/8/1
f 65/5/1 67/6/1 68/7/1 66/8/1
f 67/5/1 69/6/1 70/7/1 68/8/1
f 69/5/1 71/6/1 72/7/1 70/8/1
f 73/5/1 74/6/1 75/7/1 76/8/1
f 74/5/1 77/6/1 78/7/1 75/8/1
f 77/5/1 79/6/1 80/7/1 78/8/1
f 79/5/1 81/6/1 82/7/1 80/8/1
f 81/5/1 83/6/1 84/7/1 82/8/1
f 83/5/1 85/6/1 86/7/1 84/8/1
f 85/5/1 87/6/1 88/7/1 86/8/1
f 87/5/1 89/6/1 90/7/1 88/8/1
f 91/5/1 92/6/1 93/7/1 94/8/1
f 92/5/1 95/6/1 96/7/1 93/8/1
f 95/5/1 97/6/1 98/7/1 96/8/1
f 97/5/1 99/6/1 100/7/1 98/8/1
f 101/5/1 102/6/1 103/7/1 104/8/1
f 105/5/1 106/6/1 107/7/1 108/8/1
f 106/5/1 109/6/1 110/7/1 107/8/1
f 109/5/1 111/6/1 112/7/1 110/8/1
f 111/5/1 113/6/1 114/7/1 112/8/1
f 115/5/1 116/6/1 117/7/1 118/8/1
f 116/5/1 119/6/1 120/7/1 117/8/1
f 119/5/1 121/6/1 122/7/1 120/8/1
f 121/5/1 123/6/1 124/7/1 122/8/1
f 125/5/1 126/6/1 127/7/1 128/8/1
f 126/5/1 129/6/1 130/7/1 127/8/1
f 129/5/1 131/6/1 132/7/1 130/8/1
f 131/5/1 133/6/1 134/7/1 132/8/1
f 135/5/1 136/6/1 137/7/1 138/8/1
f 136/5/1 139/6/1 140/7/1 137/8/1
f 139/5/1 141/6/1 142/7/1 140/8/1
f 141/5/1 143/6/1 144/7/1 142/8/1
f 143/5/1 145/6/1 146/7/1 144/8/1
f 145/5/1 147/6/1 148/7/1 146/8/1
f 147/5/1 149/6/1 150/7/1 148/8/1
f 149/5/1 151/6/1 152/7/1 150/8/1
f 151/5/1 153/6/1 154/7/1 152/8/1
f 153/5/1 155/6/1 156/7/1 154/8/1
f 155/5/1 157/6/1 158/7/1 156/8/1
f 157/5/1 159/6/1 160/7/1 158/8/1

