# Wavefront OBJ file automatically generated by Tiled2Unity

# Vertices (Count = 188)
v -752 -480 0
v -768 -480 0
v -768 -464 0
v -752 -464 0
v -784 -480 0
v -784 -464 0
v -800 -480 0
v -800 -464 0
v -816 -480 0
v -816 -464 0
v -832 -480 0
v -832 -464 0
v -848 -480 0
v -848 -464 0
v -864 -480 0
v -864 -464 0
v -352 -496 0
v -368 -496 0
v -368 -480 0
v -352 -480 0
v -384 -496 0
v -384 -480 0
v -400 -496 0
v -400 -480 0
v -416 -496 0
v -416 -480 0
v -432 -496 0
v -432 -480 0
v -448 -496 0
v -448 -480 0
v -464 -496 0
v -464 -480 0
v -480 -496 0
v -480 -480 0
v -496 -496 0
v -496 -480 0
v -768 -496 0
v -784 -496 0
v -800 -496 0
v -816 -496 0
v -832 -496 0
v -848 -496 0
v -864 -496 0
v -880 -496 0
v -880 -480 0
v -896 -496 0
v -896 -480 0
v -368 -512 0
v -384 -512 0
v -400 -512 0
v -416 -512 0
v -432 -512 0
v -448 -512 0
v -464 -512 0
v -480 -512 0
v -496 -512 0
v -512 -512 0
v -512 -496 0
v -784 -512 0
v -800 -512 0
v -816 -512 0
v -832 -512 0
v -848 -512 0
v -864 -512 0
v -880 -512 0
v -896 -512 0
v -912 -512 0
v -912 -496 0
v -928 -512 0
v -928 -496 0
v -976 -672 0
v -992 -672 0
v -992 -656 0
v -976 -656 0
v -1008 -672 0
v -1008 -656 0
v -1024 -672 0
v -1024 -656 0
v -944 -688 0
v -960 -688 0
v -960 -672 0
v -944 -672 0
v -976 -688 0
v -992 -688 0
v -1008 -688 0
v -1024 -688 0
v -864 -704 0
v -880 -704 0
v -880 -688 0
v -864 -688 0
v -896 -704 0
v -896 -688 0
v -912 -704 0
v -912 -688 0
v -928 -704 0
v -928 -688 0
v -944 -704 0
v -960 -704 0
v -976 -704 0
v -992 -704 0
v -1008 -704 0
v -1024 -704 0
v -624 -720 0
v -640 -720 0
v -640 -704 0
v -624 -704 0
v -656 -720 0
v -656 -704 0
v -672 -720 0
v -672 -704 0
v -688 -720 0
v -688 -704 0
v -704 -720 0
v -704 -704 0
v -720 -720 0
v -720 -704 0
v -864 -720 0
v -880 -720 0
v -896 -720 0
v -912 -720 0
v -928 -720 0
v -944 -720 0
v -960 -720 0
v -976 -720 0
v -384 -736 0
v -400 -736 0
v -400 -720 0
v -384 -720 0
v -416 -736 0
v -416 -720 0
v -432 -736 0
v -432 -720 0
v -448 -736 0
v -448 -720 0
v -464 -736 0
v -464 -720 0
v -480 -736 0
v -480 -720 0
v -592 -736 0
v -608 -736 0
v -608 -720 0
v -592 -720 0
v -624 -736 0
v -640 -736 0
v -656 -736 0
v -672 -736 0
v -336 -752 0
v -352 -752 0
v -352 -736 0
v -336 -736 0
v -368 -752 0
v -368 -736 0
v -384 -752 0
v -400 -752 0
v -416 -752 0
v -432 -752 0
v -448 -752 0
v -464 -752 0
v -480 -752 0
v -496 -752 0
v -496 -736 0
v -512 -752 0
v -512 -736 0
v -528 -752 0
v -528 -736 0
v -544 -752 0
v -544 -736 0
v -560 -752 0
v -560 -736 0
v -576 -752 0
v -576 -736 0
v -592 -752 0
v -608 -752 0
v -624 -752 0
v -640 -752 0
v -656 -752 0
v -176 -768 0
v -192 -768 0
v -192 -752 0
v -176 -752 0
v -208 -768 0
v -208 -752 0
v -224 -768 0
v -224 -752 0
v -240 -768 0
v -240 -752 0
v -256 -768 0
v -256 -752 0

# Texture cooridinates (Count = 8)
vt 0.1000122 0.7000122
vt 0.1999878 0.7000122
vt 0.1999878 0.7999878
vt 0.1000122 0.7999878
vt 0.9000122 0.9000122
vt 0.9999878 0.9000122
vt 0.9999878 0.9999878
vt 0.9000122 0.9999878

# Normal
vn 0 0 -1

# Groups (Count = 2)

g mesh_0001
f 1/1/1 2/2/1 3/3/1 4/4/1
f 2/1/1 5/2/1 6/3/1 3/4/1
f 5/1/1 7/2/1 8/3/1 6/4/1
f 7/1/1 9/2/1 10/3/1 8/4/1
f 9/1/1 11/2/1 12/3/1 10/4/1
f 11/1/1 13/2/1 14/3/1 12/4/1
f 13/1/1 15/2/1 16/3/1 14/4/1
f 17/1/1 18/2/1 19/3/1 20/4/1
f 18/1/1 21/2/1 22/3/1 19/4/1
f 21/1/1 23/2/1 24/3/1 22/4/1
f 23/1/1 25/2/1 26/3/1 24/4/1
f 25/1/1 27/2/1 28/3/1 26/4/1
f 27/1/1 29/2/1 30/3/1 28/4/1
f 29/1/1 31/2/1 32/3/1 30/4/1
f 31/1/1 33/2/1 34/3/1 32/4/1
f 33/1/1 35/2/1 36/3/1 34/4/1
f 37/1/1 38/2/1 5/3/1 2/4/1
f 38/1/1 39/2/1 7/3/1 5/4/1
f 39/1/1 40/2/1 9/3/1 7/4/1
f 40/1/1 41/2/1 11/3/1 9/4/1
f 41/1/1 42/2/1 13/3/1 11/4/1
f 42/1/1 43/2/1 15/3/1 13/4/1
f 43/1/1 44/2/1 45/3/1 15/4/1
f 44/1/1 46/2/1 47/3/1 45/4/1
f 48/1/1 49/2/1 21/3/1 18/4/1
f 49/1/1 50/2/1 23/3/1 21/4/1
f 50/1/1 51/2/1 25/3/1 23/4/1
f 51/1/1 52/2/1 27/3/1 25/4/1
f 52/1/1 53/2/1 29/3/1 27/4/1
f 53/1/1 54/2/1 31/3/1 29/4/1
f 54/1/1 55/2/1 33/3/1 31/4/1
f 55/1/1 56/2/1 35/3/1 33/4/1
f 56/1/1 57/2/1 58/3/1 35/4/1
f 59/1/1 60/2/1 39/3/1 38/4/1
f 60/1/1 61/2/1 40/3/1 39/4/1
f 61/1/1 62/2/1 41/3/1 40/4/1
f 62/1/1 63/2/1 42/3/1 41/4/1
f 63/1/1 64/2/1 43/3/1 42/4/1
f 64/1/1 65/2/1 44/3/1 43/4/1
f 65/1/1 66/2/1 46/3/1 44/4/1
f 66/1/1 67/2/1 68/3/1 46/4/1
f 67/1/1 69/2/1 70/3/1 68/4/1
f 71/1/1 72/2/1 73/3/1 74/4/1
f 72/1/1 75/2/1 76/3/1 73/4/1
f 75/1/1 77/2/1 78/3/1 76/4/1
f 79/1/1 80/2/1 81/3/1 82/4/1
f 80/1/1 83/2/1 71/3/1 81/4/1
f 83/1/1 84/2/1 72/3/1 71/4/1
f 84/1/1 85/2/1 75/3/1 72/4/1
f 85/1/1 86/2/1 77/3/1 75/4/1
f 87/1/1 88/2/1 89/3/1 90/4/1
f 88/1/1 91/2/1 92/3/1 89/4/1
f 91/1/1 93/2/1 94/3/1 92/4/1
f 93/1/1 95/2/1 96/3/1 94/4/1
f 95/1/1 97/2/1 79/3/1 96/4/1
f 97/1/1 98/2/1 80/3/1 79/4/1
f 98/1/1 99/2/1 83/3/1 80/4/1
f 99/1/1 100/2/1 84/3/1 83/4/1
f 100/1/1 101/2/1 85/3/1 84/4/1
f 101/1/1 102/2/1 86/3/1 85/4/1
f 103/1/1 104/2/1 105/3/1 106/4/1
f 104/1/1 107/2/1 108/3/1 105/4/1
f 107/1/1 109/2/1 110/3/1 108/4/1
f 109/1/1 111/2/1 112/3/1 110/4/1
f 111/1/1 113/2/1 114/3/1 112/4/1
f 113/1/1 115/2/1 116/3/1 114/4/1
f 117/1/1 118/2/1 88/3/1 87/4/1
f 118/1/1 119/2/1 91/3/1 88/4/1
f 119/1/1 120/2/1 93/3/1 91/4/1
f 120/1/1 121/2/1 95/3/1 93/4/1
f 121/1/1 122/2/1 97/3/1 95/4/1
f 122/1/1 123/2/1 98/3/1 97/4/1
f 123/1/1 124/2/1 99/3/1 98/4/1
f 125/1/1 126/2/1 127/3/1 128/4/1
f 126/1/1 129/2/1 130/3/1 127/4/1
f 129/1/1 131/2/1 132/3/1 130/4/1
f 131/1/1 133/2/1 134/3/1 132/4/1
f 133/1/1 135/2/1 136/3/1 134/4/1
f 135/1/1 137/2/1 138/3/1 136/4/1
f 139/1/1 140/2/1 141/3/1 142/4/1
f 140/1/1 143/2/1 103/3/1 141/4/1
f 143/1/1 144/2/1 104/3/1 103/4/1
f 144/1/1 145/2/1 107/3/1 104/4/1
f 145/1/1 146/2/1 109/3/1 107/4/1
f 147/1/1 148/2/1 149/3/1 150/4/1
f 148/1/1 151/2/1 152/3/1 149/4/1
f 151/1/1 153/2/1 125/3/1 152/4/1
f 153/1/1 154/2/1 126/3/1 125/4/1
f 154/1/1 155/2/1 129/3/1 126/4/1
f 155/1/1 156/2/1 131/3/1 129/4/1
f 156/1/1 157/2/1 133/3/1 131/4/1
f 157/1/1 158/2/1 135/3/1 133/4/1
f 158/1/1 159/2/1 137/3/1 135/4/1
f 159/1/1 160/2/1 161/3/1 137/4/1
f 160/1/1 162/2/1 163/3/1 161/4/1
f 162/1/1 164/2/1 165/3/1 163/4/1
f 164/1/1 166/2/1 167/3/1 165/4/1
f 166/1/1 168/2/1 169/3/1 167/4/1
f 168/1/1 170/2/1 171/3/1 169/4/1
f 170/1/1 172/2/1 139/3/1 171/4/1
f 172/1/1 173/2/1 140/3/1 139/4/1
f 173/1/1 174/2/1 143/3/1 140/4/1
f 174/1/1 175/2/1 144/3/1 143/4/1
f 175/1/1 176/2/1 145/3/1 144/4/1
f 177/1/1 178/2/1 179/3/1 180/4/1
f 178/1/1 181/2/1 182/3/1 179/4/1
f 181/1/1 183/2/1 184/3/1 182/4/1
f 183/1/1 185/2/1 186/3/1 184/4/1
f 185/1/1 187/2/1 188/3/1 186/4/1

g mesh_0002
f 1/5/1 2/6/1 3/7/1 4/8/1
f 2/5/1 5/6/1 6/7/1 3/8/1
f 5/5/1 7/6/1 8/7/1 6/8/1
f 7/5/1 9/6/1 10/7/1 8/8/1
f 9/5/1 11/6/1 12/7/1 10/8/1
f 11/5/1 13/6/1 14/7/1 12/8/1
f 13/5/1 15/6/1 16/7/1 14/8/1
f 17/5/1 18/6/1 19/7/1 20/8/1
f 18/5/1 21/6/1 22/7/1 19/8/1
f 21/5/1 23/6/1 24/7/1 22/8/1
f 23/5/1 25/6/1 26/7/1 24/8/1
f 25/5/1 27/6/1 28/7/1 26/8/1
f 27/5/1 29/6/1 30/7/1 28/8/1
f 29/5/1 31/6/1 32/7/1 30/8/1
f 31/5/1 33/6/1 34/7/1 32/8/1
f 33/5/1 35/6/1 36/7/1 34/8/1
f 37/5/1 38/6/1 5/7/1 2/8/1
f 38/5/1 39/6/1 7/7/1 5/8/1
f 39/5/1 40/6/1 9/7/1 7/8/1
f 40/5/1 41/6/1 11/7/1 9/8/1
f 41/5/1 42/6/1 13/7/1 11/8/1
f 42/5/1 43/6/1 15/7/1 13/8/1
f 43/5/1 44/6/1 45/7/1 15/8/1
f 44/5/1 46/6/1 47/7/1 45/8/1
f 48/5/1 49/6/1 21/7/1 18/8/1
f 49/5/1 50/6/1 23/7/1 21/8/1
f 50/5/1 51/6/1 25/7/1 23/8/1
f 51/5/1 52/6/1 27/7/1 25/8/1
f 52/5/1 53/6/1 29/7/1 27/8/1
f 53/5/1 54/6/1 31/7/1 29/8/1
f 54/5/1 55/6/1 33/7/1 31/8/1
f 55/5/1 56/6/1 35/7/1 33/8/1
f 56/5/1 57/6/1 58/7/1 35/8/1
f 59/5/1 60/6/1 39/7/1 38/8/1
f 60/5/1 61/6/1 40/7/1 39/8/1
f 61/5/1 62/6/1 41/7/1 40/8/1
f 62/5/1 63/6/1 42/7/1 41/8/1
f 63/5/1 64/6/1 43/7/1 42/8/1
f 64/5/1 65/6/1 44/7/1 43/8/1
f 65/5/1 66/6/1 46/7/1 44/8/1
f 66/5/1 67/6/1 68/7/1 46/8/1
f 67/5/1 69/6/1 70/7/1 68/8/1
f 71/5/1 72/6/1 73/7/1 74/8/1
f 72/5/1 75/6/1 76/7/1 73/8/1
f 75/5/1 77/6/1 78/7/1 76/8/1
f 79/5/1 80/6/1 81/7/1 82/8/1
f 80/5/1 83/6/1 71/7/1 81/8/1
f 83/5/1 84/6/1 72/7/1 71/8/1
f 84/5/1 85/6/1 75/7/1 72/8/1
f 85/5/1 86/6/1 77/7/1 75/8/1
f 87/5/1 88/6/1 89/7/1 90/8/1
f 88/5/1 91/6/1 92/7/1 89/8/1
f 91/5/1 93/6/1 94/7/1 92/8/1
f 93/5/1 95/6/1 96/7/1 94/8/1
f 95/5/1 97/6/1 79/7/1 96/8/1
f 97/5/1 98/6/1 80/7/1 79/8/1
f 98/5/1 99/6/1 83/7/1 80/8/1
f 99/5/1 100/6/1 84/7/1 83/8/1
f 100/5/1 101/6/1 85/7/1 84/8/1
f 101/5/1 102/6/1 86/7/1 85/8/1
f 103/5/1 104/6/1 105/7/1 106/8/1
f 104/5/1 107/6/1 108/7/1 105/8/1
f 107/5/1 109/6/1 110/7/1 108/8/1
f 109/5/1 111/6/1 112/7/1 110/8/1
f 111/5/1 113/6/1 114/7/1 112/8/1
f 113/5/1 115/6/1 116/7/1 114/8/1
f 117/5/1 118/6/1 88/7/1 87/8/1
f 118/5/1 119/6/1 91/7/1 88/8/1
f 119/5/1 120/6/1 93/7/1 91/8/1
f 120/5/1 121/6/1 95/7/1 93/8/1
f 121/5/1 122/6/1 97/7/1 95/8/1
f 122/5/1 123/6/1 98/7/1 97/8/1
f 123/5/1 124/6/1 99/7/1 98/8/1
f 125/5/1 126/6/1 127/7/1 128/8/1
f 126/5/1 129/6/1 130/7/1 127/8/1
f 129/5/1 131/6/1 132/7/1 130/8/1
f 131/5/1 133/6/1 134/7/1 132/8/1
f 133/5/1 135/6/1 136/7/1 134/8/1
f 135/5/1 137/6/1 138/7/1 136/8/1
f 139/5/1 140/6/1 141/7/1 142/8/1
f 140/5/1 143/6/1 103/7/1 141/8/1
f 143/5/1 144/6/1 104/7/1 103/8/1
f 144/5/1 145/6/1 107/7/1 104/8/1
f 145/5/1 146/6/1 109/7/1 107/8/1
f 147/5/1 148/6/1 149/7/1 150/8/1
f 148/5/1 151/6/1 152/7/1 149/8/1
f 151/5/1 153/6/1 125/7/1 152/8/1
f 153/5/1 154/6/1 126/7/1 125/8/1
f 154/5/1 155/6/1 129/7/1 126/8/1
f 155/5/1 156/6/1 131/7/1 129/8/1
f 156/5/1 157/6/1 133/7/1 131/8/1
f 157/5/1 158/6/1 135/7/1 133/8/1
f 158/5/1 159/6/1 137/7/1 135/8/1
f 159/5/1 160/6/1 161/7/1 137/8/1
f 160/5/1 162/6/1 163/7/1 161/8/1
f 162/5/1 164/6/1 165/7/1 163/8/1
f 164/5/1 166/6/1 167/7/1 165/8/1
f 166/5/1 168/6/1 169/7/1 167/8/1
f 168/5/1 170/6/1 171/7/1 169/8/1
f 170/5/1 172/6/1 139/7/1 171/8/1
f 172/5/1 173/6/1 140/7/1 139/8/1
f 173/5/1 174/6/1 143/7/1 140/8/1
f 174/5/1 175/6/1 144/7/1 143/8/1
f 175/5/1 176/6/1 145/7/1 144/8/1
f 177/5/1 178/6/1 179/7/1 180/8/1
f 178/5/1 181/6/1 182/7/1 179/8/1
f 181/5/1 183/6/1 184/7/1 182/8/1
f 183/5/1 185/6/1 186/7/1 184/8/1
f 185/5/1 187/6/1 188/7/1 186/8/1

