# Wavefront OBJ file automatically generated by Tiled2Unity

# Vertices (Count = 70)
v -160 -384 -0.71875
v -176 -384 -0.71875
v -176 -368 -0.71875
v -160 -368 -0.71875
v -192 -384 -0.71875
v -192 -368 -0.71875
v -208 -384 -0.71875
v -208 -368 -0.71875
v -224 -384 -0.71875
v -224 -368 -0.71875
v -16 -400 -0.75
v -32 -400 -0.75
v -32 -384 -0.75
v -16 -384 -0.75
v -48 -400 -0.75
v -48 -384 -0.75
v -64 -400 -0.75
v -64 -384 -0.75
v -160 -400 -0.75
v -176 -400 -0.75
v -176 -384 -0.75
v -160 -384 -0.75
v -208 -400 -0.75
v -224 -400 -0.75
v -224 -384 -0.75
v -208 -384 -0.75
v -208 -416 -0.78125
v -224 -416 -0.78125
v -224 -400 -0.78125
v -208 -400 -0.78125
v -16 -432 -0.8125
v -32 -432 -0.8125
v -32 -416 -0.8125
v -16 -416 -0.8125
v -112 -432 -0.8125
v -128 -432 -0.8125
v -128 -416 -0.8125
v -112 -416 -0.8125
v -208 -432 -0.8125
v -224 -432 -0.8125
v -224 -416 -0.8125
v -208 -416 -0.8125
v -16 -448 -0.84375
v -32 -448 -0.84375
v -32 -432 -0.84375
v -16 -432 -0.84375
v -48 -448 -0.84375
v -48 -432 -0.84375
v -64 -448 -0.84375
v -64 -432 -0.84375
v -80 -448 -0.84375
v -80 -432 -0.84375
v -96 -448 -0.84375
v -96 -432 -0.84375
v -112 -448 -0.84375
v -112 -432 -0.84375
v -128 -448 -0.84375
v -128 -432 -0.84375
v -144 -448 -0.84375
v -144 -432 -0.84375
v -160 -448 -0.84375
v -160 -432 -0.84375
v -176 -448 -0.84375
v -176 -432 -0.84375
v -192 -448 -0.84375
v -192 -432 -0.84375
v -208 -448 -0.84375
v -208 -432 -0.84375
v -224 -448 -0.84375
v -224 -432 -0.84375

# Texture cooridinates (Count = 4)
vt 1.220703E-05 0.9000122
vt 0.09998779 0.9000122
vt 0.09998779 0.9999878
vt 1.220703E-05 0.9999878

# Normal
vn 0 0 -1

# Groups (Count = 1)

g mesh_0001
f 1/1/1 2/2/1 3/3/1 4/4/1
f 2/1/1 5/2/1 6/3/1 3/4/1
f 5/1/1 7/2/1 8/3/1 6/4/1
f 7/1/1 9/2/1 10/3/1 8/4/1
f 11/1/1 12/2/1 13/3/1 14/4/1
f 12/1/1 15/2/1 16/3/1 13/4/1
f 15/1/1 17/2/1 18/3/1 16/4/1
f 19/1/1 20/2/1 21/3/1 22/4/1
f 23/1/1 24/2/1 25/3/1 26/4/1
f 27/1/1 28/2/1 29/3/1 30/4/1
f 31/1/1 32/2/1 33/3/1 34/4/1
f 35/1/1 36/2/1 37/3/1 38/4/1
f 39/1/1 40/2/1 41/3/1 42/4/1
f 43/1/1 44/2/1 45/3/1 46/4/1
f 44/1/1 47/2/1 48/3/1 45/4/1
f 47/1/1 49/2/1 50/3/1 48/4/1
f 49/1/1 51/2/1 52/3/1 50/4/1
f 51/1/1 53/2/1 54/3/1 52/4/1
f 53/1/1 55/2/1 56/3/1 54/4/1
f 55/1/1 57/2/1 58/3/1 56/4/1
f 57/1/1 59/2/1 60/3/1 58/4/1
f 59/1/1 61/2/1 62/3/1 60/4/1
f 61/1/1 63/2/1 64/3/1 62/4/1
f 63/1/1 65/2/1 66/3/1 64/4/1
f 65/1/1 67/2/1 68/3/1 66/4/1
f 67/1/1 69/2/1 70/3/1 68/4/1

