# Wavefront OBJ file automatically generated by Tiled2Unity

# Vertices (Count = 66)
v 0 -480 -0.90625
v -16 -480 -0.90625
v -16 -464 -0.90625
v 0 -464 -0.90625
v -32 -480 -0.90625
v -32 -464 -0.90625
v -48 -480 -0.90625
v -48 -464 -0.90625
v -64 -480 -0.90625
v -64 -464 -0.90625
v -80 -480 -0.90625
v -80 -464 -0.90625
v -96 -480 -0.90625
v -96 -464 -0.90625
v -112 -480 -0.90625
v -112 -464 -0.90625
v -128 -480 -0.90625
v -128 -464 -0.90625
v -144 -480 -0.90625
v -144 -464 -0.90625
v -160 -480 -0.90625
v -160 -464 -0.90625
v -176 -480 -0.90625
v -176 -464 -0.90625
v -192 -480 -0.90625
v -192 -464 -0.90625
v -208 -480 -0.90625
v -208 -464 -0.90625
v -224 -480 -0.90625
v -224 -464 -0.90625
v -240 -480 -0.90625
v -240 -464 -0.90625
v -256 -480 -0.90625
v -256 -464 -0.90625
v -272 -480 -0.90625
v -272 -464 -0.90625
v -288 -480 -0.90625
v -288 -464 -0.90625
v -304 -480 -0.90625
v -304 -464 -0.90625
v -320 -480 -0.90625
v -320 -464 -0.90625
v -336 -480 -0.90625
v -336 -464 -0.90625
v -352 -480 -0.90625
v -352 -464 -0.90625
v -368 -480 -0.90625
v -368 -464 -0.90625
v -384 -480 -0.90625
v -384 -464 -0.90625
v -400 -480 -0.90625
v -400 -464 -0.90625
v -416 -480 -0.90625
v -416 -464 -0.90625
v -432 -480 -0.90625
v -432 -464 -0.90625
v -448 -480 -0.90625
v -448 -464 -0.90625
v -464 -480 -0.90625
v -464 -464 -0.90625
v -480 -480 -0.90625
v -480 -464 -0.90625
v -496 -480 -0.90625
v -496 -464 -0.90625
v -512 -480 -0.90625
v -512 -464 -0.90625

# Texture cooridinates (Count = 4)
vt 0.1000122 0.4000122
vt 0.1999878 0.4000122
vt 0.1999878 0.4999878
vt 0.1000122 0.4999878

# Normal
vn 0 0 -1

# Groups (Count = 1)

g mesh_0001
f 1/1/1 2/2/1 3/3/1 4/4/1
f 2/1/1 5/2/1 6/3/1 3/4/1
f 5/1/1 7/2/1 8/3/1 6/4/1
f 7/1/1 9/2/1 10/3/1 8/4/1
f 9/1/1 11/2/1 12/3/1 10/4/1
f 11/1/1 13/2/1 14/3/1 12/4/1
f 13/1/1 15/2/1 16/3/1 14/4/1
f 15/1/1 17/2/1 18/3/1 16/4/1
f 17/1/1 19/2/1 20/3/1 18/4/1
f 19/1/1 21/2/1 22/3/1 20/4/1
f 21/1/1 23/2/1 24/3/1 22/4/1
f 23/1/1 25/2/1 26/3/1 24/4/1
f 25/1/1 27/2/1 28/3/1 26/4/1
f 27/1/1 29/2/1 30/3/1 28/4/1
f 29/1/1 31/2/1 32/3/1 30/4/1
f 31/1/1 33/2/1 34/3/1 32/4/1
f 33/1/1 35/2/1 36/3/1 34/4/1
f 35/1/1 37/2/1 38/3/1 36/4/1
f 37/1/1 39/2/1 40/3/1 38/4/1
f 39/1/1 41/2/1 42/3/1 40/4/1
f 41/1/1 43/2/1 44/3/1 42/4/1
f 43/1/1 45/2/1 46/3/1 44/4/1
f 45/1/1 47/2/1 48/3/1 46/4/1
f 47/1/1 49/2/1 50/3/1 48/4/1
f 49/1/1 51/2/1 52/3/1 50/4/1
f 51/1/1 53/2/1 54/3/1 52/4/1
f 53/1/1 55/2/1 56/3/1 54/4/1
f 55/1/1 57/2/1 58/3/1 56/4/1
f 57/1/1 59/2/1 60/3/1 58/4/1
f 59/1/1 61/2/1 62/3/1 60/4/1
f 61/1/1 63/2/1 64/3/1 62/4/1
f 63/1/1 65/2/1 66/3/1 64/4/1

