# Wavefront OBJ file automatically generated by Tiled2Unity

# Vertices (Count = 150)
v -304 -416 -0.78125
v -320 -416 -0.78125
v -320 -400 -0.78125
v -304 -400 -0.78125
v -336 -416 -0.78125
v -336 -400 -0.78125
v -352 -416 -0.78125
v -352 -400 -0.78125
v -368 -416 -0.78125
v -368 -400 -0.78125
v -384 -416 -0.78125
v -384 -400 -0.78125
v 0 -432 -0.8125
v -16 -432 -0.8125
v -16 -416 -0.8125
v 0 -416 -0.8125
v -304 -432 -0.8125
v -320 -432 -0.8125
v -320 -416 -0.8125
v -304 -416 -0.8125
v -368 -432 -0.8125
v -384 -432 -0.8125
v -384 -416 -0.8125
v -368 -416 -0.8125
v 0 -448 -0.84375
v -16 -448 -0.84375
v -16 -432 -0.84375
v 0 -432 -0.84375
v -368 -448 -0.84375
v -384 -448 -0.84375
v -384 -432 -0.84375
v -368 -432 -0.84375
v 0 -464 -0.875
v -16 -464 -0.875
v -16 -448 -0.875
v 0 -448 -0.875
v -368 -464 -0.875
v -384 -464 -0.875
v -384 -448 -0.875
v -368 -448 -0.875
v 0 -480 -0.90625
v -16 -480 -0.90625
v -16 -464 -0.90625
v 0 -464 -0.90625
v -192 -480 -0.90625
v -208 -480 -0.90625
v -208 -464 -0.90625
v -192 -464 -0.90625
v -224 -480 -0.90625
v -224 -464 -0.90625
v -240 -480 -0.90625
v -240 -464 -0.90625
v -256 -480 -0.90625
v -256 -464 -0.90625
v -272 -480 -0.90625
v -272 -464 -0.90625
v -288 -480 -0.90625
v -288 -464 -0.90625
v -304 -480 -0.90625
v -304 -464 -0.90625
v -320 -480 -0.90625
v -320 -464 -0.90625
v -336 -480 -0.90625
v -336 -464 -0.90625
v -352 -480 -0.90625
v -352 -464 -0.90625
v -368 -480 -0.90625
v -368 -464 -0.90625
v -384 -480 -0.90625
v -384 -464 -0.90625
v 0 -496 -0.9375
v -16 -496 -0.9375
v -16 -480 -0.9375
v 0 -480 -0.9375
v -192 -496 -0.9375
v -208 -496 -0.9375
v -208 -480 -0.9375
v -192 -480 -0.9375
v -224 -496 -0.9375
v -224 -480 -0.9375
v -240 -496 -0.9375
v -240 -480 -0.9375
v -256 -496 -0.9375
v -256 -480 -0.9375
v -272 -496 -0.9375
v -272 -480 -0.9375
v -288 -496 -0.9375
v -288 -480 -0.9375
v -304 -496 -0.9375
v -304 -480 -0.9375
v -320 -496 -0.9375
v -320 -480 -0.9375
v -336 -496 -0.9375
v -336 -480 -0.9375
v -352 -496 -0.9375
v -352 -480 -0.9375
v -368 -496 -0.9375
v -368 -480 -0.9375
v -384 -496 -0.9375
v -384 -480 -0.9375
v 0 -512 -0.96875
v -16 -512 -0.96875
v -16 -496 -0.96875
v 0 -496 -0.96875
v -32 -512 -0.96875
v -32 -496 -0.96875
v -48 -512 -0.96875
v -48 -496 -0.96875
v -64 -512 -0.96875
v -64 -496 -0.96875
v -80 -512 -0.96875
v -80 -496 -0.96875
v -96 -512 -0.96875
v -96 -496 -0.96875
v -112 -512 -0.96875
v -112 -496 -0.96875
v -128 -512 -0.96875
v -128 -496 -0.96875
v -144 -512 -0.96875
v -144 -496 -0.96875
v -160 -512 -0.96875
v -160 -496 -0.96875
v -176 -512 -0.96875
v -176 -496 -0.96875
v -192 -512 -0.96875
v -192 -496 -0.96875
v -208 -512 -0.96875
v -208 -496 -0.96875
v -224 -512 -0.96875
v -224 -496 -0.96875
v -240 -512 -0.96875
v -240 -496 -0.96875
v -256 -512 -0.96875
v -256 -496 -0.96875
v -272 -512 -0.96875
v -272 -496 -0.96875
v -288 -512 -0.96875
v -288 -496 -0.96875
v -304 -512 -0.96875
v -304 -496 -0.96875
v -320 -512 -0.96875
v -320 -496 -0.96875
v -336 -512 -0.96875
v -336 -496 -0.96875
v -352 -512 -0.96875
v -352 -496 -0.96875
v -368 -512 -0.96875
v -368 -496 -0.96875
v -384 -512 -0.96875
v -384 -496 -0.96875

# Texture cooridinates (Count = 4)
vt 1.220703E-05 0.9000122
vt 0.09998779 0.9000122
vt 0.09998779 0.9999878
vt 1.220703E-05 0.9999878

# Normal
vn 0 0 -1

# Groups (Count = 1)

g mesh_0001
f 1/1/1 2/2/1 3/3/1 4/4/1
f 2/1/1 5/2/1 6/3/1 3/4/1
f 5/1/1 7/2/1 8/3/1 6/4/1
f 7/1/1 9/2/1 10/3/1 8/4/1
f 9/1/1 11/2/1 12/3/1 10/4/1
f 13/1/1 14/2/1 15/3/1 16/4/1
f 17/1/1 18/2/1 19/3/1 20/4/1
f 21/1/1 22/2/1 23/3/1 24/4/1
f 25/1/1 26/2/1 27/3/1 28/4/1
f 29/1/1 30/2/1 31/3/1 32/4/1
f 33/1/1 34/2/1 35/3/1 36/4/1
f 37/1/1 38/2/1 39/3/1 40/4/1
f 41/1/1 42/2/1 43/3/1 44/4/1
f 45/1/1 46/2/1 47/3/1 48/4/1
f 46/1/1 49/2/1 50/3/1 47/4/1
f 49/1/1 51/2/1 52/3/1 50/4/1
f 51/1/1 53/2/1 54/3/1 52/4/1
f 53/1/1 55/2/1 56/3/1 54/4/1
f 55/1/1 57/2/1 58/3/1 56/4/1
f 57/1/1 59/2/1 60/3/1 58/4/1
f 59/1/1 61/2/1 62/3/1 60/4/1
f 61/1/1 63/2/1 64/3/1 62/4/1
f 63/1/1 65/2/1 66/3/1 64/4/1
f 65/1/1 67/2/1 68/3/1 66/4/1
f 67/1/1 69/2/1 70/3/1 68/4/1
f 71/1/1 72/2/1 73/3/1 74/4/1
f 75/1/1 76/2/1 77/3/1 78/4/1
f 76/1/1 79/2/1 80/3/1 77/4/1
f 79/1/1 81/2/1 82/3/1 80/4/1
f 81/1/1 83/2/1 84/3/1 82/4/1
f 83/1/1 85/2/1 86/3/1 84/4/1
f 85/1/1 87/2/1 88/3/1 86/4/1
f 87/1/1 89/2/1 90/3/1 88/4/1
f 89/1/1 91/2/1 92/3/1 90/4/1
f 91/1/1 93/2/1 94/3/1 92/4/1
f 93/1/1 95/2/1 96/3/1 94/4/1
f 95/1/1 97/2/1 98/3/1 96/4/1
f 97/1/1 99/2/1 100/3/1 98/4/1
f 101/1/1 102/2/1 103/3/1 104/4/1
f 102/1/1 105/2/1 106/3/1 103/4/1
f 105/1/1 107/2/1 108/3/1 106/4/1
f 107/1/1 109/2/1 110/3/1 108/4/1
f 109/1/1 111/2/1 112/3/1 110/4/1
f 111/1/1 113/2/1 114/3/1 112/4/1
f 113/1/1 115/2/1 116/3/1 114/4/1
f 115/1/1 117/2/1 118/3/1 116/4/1
f 117/1/1 119/2/1 120/3/1 118/4/1
f 119/1/1 121/2/1 122/3/1 120/4/1
f 121/1/1 123/2/1 124/3/1 122/4/1
f 123/1/1 125/2/1 126/3/1 124/4/1
f 125/1/1 127/2/1 128/3/1 126/4/1
f 127/1/1 129/2/1 130/3/1 128/4/1
f 129/1/1 131/2/1 132/3/1 130/4/1
f 131/1/1 133/2/1 134/3/1 132/4/1
f 133/1/1 135/2/1 136/3/1 134/4/1
f 135/1/1 137/2/1 138/3/1 136/4/1
f 137/1/1 139/2/1 140/3/1 138/4/1
f 139/1/1 141/2/1 142/3/1 140/4/1
f 141/1/1 143/2/1 144/3/1 142/4/1
f 143/1/1 145/2/1 146/3/1 144/4/1
f 145/1/1 147/2/1 148/3/1 146/4/1
f 147/1/1 149/2/1 150/3/1 148/4/1

