# Wavefront OBJ file automatically generated by Tiled2Unity

# Vertices (Count = 268)
v -256 -352 -0.525
v -272 -352 -0.525
v -272 -336 -0.525
v -256 -336 -0.525
v -288 -352 -0.525
v -288 -336 -0.525
v -304 -352 -0.525
v -304 -336 -0.525
v -320 -352 -0.525
v -320 -336 -0.525
v -336 -352 -0.525
v -336 -336 -0.525
v -352 -352 -0.525
v -352 -336 -0.525
v -352 -368 -0.55
v -368 -368 -0.55
v -368 -352 -0.55
v -352 -352 -0.55
v -384 -368 -0.55
v -384 -352 -0.55
v -400 -368 -0.55
v -400 -352 -0.55
v -416 -384 -0.575
v -432 -384 -0.575
v -432 -368 -0.575
v -416 -368 -0.575
v -944 -384 -0.575
v -960 -384 -0.575
v -960 -368 -0.575
v -944 -368 -0.575
v -400 -400 -0.6
v -416 -400 -0.6
v -416 -384 -0.6
v -400 -384 -0.6
v -944 -400 -0.6
v -960 -400 -0.6
v -960 -384 -0.6
v -944 -384 -0.6
v -384 -416 -0.625
v -400 -416 -0.625
v -400 -400 -0.625
v -384 -400 -0.625
v -944 -416 -0.625
v -960 -416 -0.625
v -960 -400 -0.625
v -944 -400 -0.625
v -16 -432 -0.65
v -32 -432 -0.65
v -32 -416 -0.65
v -16 -416 -0.65
v -48 -432 -0.65
v -48 -416 -0.65
v -64 -432 -0.65
v -64 -416 -0.65
v -304 -432 -0.65
v -320 -432 -0.65
v -320 -416 -0.65
v -304 -416 -0.65
v -336 -432 -0.65
v -336 -416 -0.65
v -352 -432 -0.65
v -352 -416 -0.65
v -368 -432 -0.65
v -368 -416 -0.65
v -384 -432 -0.65
v -384 -416 -0.65
v -448 -432 -0.65
v -464 -432 -0.65
v -464 -416 -0.65
v -448 -416 -0.65
v -496 -432 -0.65
v -512 -432 -0.65
v -512 -416 -0.65
v -496 -416 -0.65
v -528 -432 -0.65
v -544 -432 -0.65
v -544 -416 -0.65
v -528 -416 -0.65
v -640 -432 -0.65
v -656 -432 -0.65
v -656 -416 -0.65
v -640 -416 -0.65
v -672 -432 -0.65
v -672 -416 -0.65
v -768 -432 -0.65
v -784 -432 -0.65
v -784 -416 -0.65
v -768 -416 -0.65
v -800 -432 -0.65
v -800 -416 -0.65
v -816 -432 -0.65
v -816 -416 -0.65
v -832 -432 -0.65
v -832 -416 -0.65
v -848 -432 -0.65
v -848 -416 -0.65
v -864 -432 -0.65
v -864 -416 -0.65
v -944 -432 -0.65
v -960 -432 -0.65
v -960 -416 -0.65
v -944 -416 -0.65
v -944 -448 -0.675
v -960 -448 -0.675
v -960 -432 -0.675
v -944 -432 -0.675
v -768 -464 -0.7
v -784 -464 -0.7
v -784 -448 -0.7
v -768 -448 -0.7
v -800 -464 -0.7
v -800 -448 -0.7
v -816 -464 -0.7
v -816 -448 -0.7
v -832 -464 -0.7
v -832 -448 -0.7
v -848 -464 -0.7
v -848 -448 -0.7
v -864 -464 -0.7
v -864 -448 -0.7
v -880 -464 -0.7
v -880 -448 -0.7
v -896 -464 -0.7
v -896 -448 -0.7
v -912 -464 -0.7
v -912 -448 -0.7
v -928 -464 -0.7
v -928 -448 -0.7
v -944 -464 -0.7
v -944 -448 -0.7
v -960 -464 -0.7
v -960 -448 -0.7
v -80 -480 -0.725
v -96 -480 -0.725
v -96 -464 -0.725
v -80 -464 -0.725
v -112 -480 -0.725
v -112 -464 -0.725
v -128 -480 -0.725
v -128 -464 -0.725
v -144 -480 -0.725
v -144 -464 -0.725
v -160 -480 -0.725
v -160 -464 -0.725
v -176 -480 -0.725
v -176 -464 -0.725
v -192 -480 -0.725
v -192 -464 -0.725
v -208 -480 -0.725
v -208 -464 -0.725
v -224 -480 -0.725
v -224 -464 -0.725
v -240 -480 -0.725
v -240 -464 -0.725
v -256 -480 -0.725
v -256 -464 -0.725
v -272 -480 -0.725
v -272 -464 -0.725
v -288 -480 -0.725
v -288 -464 -0.725
v -304 -480 -0.725
v -304 -464 -0.725
v -320 -480 -0.725
v -320 -464 -0.725
v -336 -480 -0.725
v -336 -464 -0.725
v -352 -480 -0.725
v -352 -464 -0.725
v -368 -480 -0.725
v -368 -464 -0.725
v -384 -480 -0.725
v -384 -464 -0.725
v -400 -480 -0.725
v -400 -464 -0.725
v -416 -480 -0.725
v -416 -464 -0.725
v -576 -480 -0.725
v -592 -480 -0.725
v -592 -464 -0.725
v -576 -464 -0.725
v -608 -480 -0.725
v -608 -464 -0.725
v -624 -480 -0.725
v -624 -464 -0.725
v -640 -480 -0.725
v -640 -464 -0.725
v -656 -480 -0.725
v -656 -464 -0.725
v -672 -480 -0.725
v -672 -464 -0.725
v -688 -480 -0.725
v -688 -464 -0.725
v -704 -480 -0.725
v -704 -464 -0.725
v -720 -480 -0.725
v -720 -464 -0.725
v -736 -480 -0.725
v -736 -464 -0.725
v -752 -480 -0.725
v -752 -464 -0.725
v -768 -480 -0.725
v -768 -464 -0.725
v -400 -496 -0.75
v -416 -496 -0.75
v -416 -480 -0.75
v -400 -480 -0.75
v -576 -496 -0.75
v -592 -496 -0.75
v -592 -480 -0.75
v -576 -480 -0.75
v -416 -512 -0.775
v -432 -512 -0.775
v -432 -496 -0.775
v -416 -496 -0.775
v -448 -512 -0.775
v -448 -496 -0.775
v -464 -512 -0.775
v -464 -496 -0.775
v -480 -512 -0.775
v -480 -496 -0.775
v -512 -512 -0.775
v -528 -512 -0.775
v -528 -496 -0.775
v -512 -496 -0.775
v -544 -512 -0.775
v -544 -496 -0.775
v -560 -512 -0.775
v -560 -496 -0.775
v -576 -512 -0.775
v -576 -496 -0.775
v -448 -528 -0.8
v -464 -528 -0.8
v -464 -512 -0.8
v -448 -512 -0.8
v -528 -528 -0.8
v -544 -528 -0.8
v -544 -512 -0.8
v -528 -512 -0.8
v -448 -544 -0.825
v -464 -544 -0.825
v -464 -528 -0.825
v -448 -528 -0.825
v -528 -544 -0.825
v -544 -544 -0.825
v -544 -528 -0.825
v -528 -528 -0.825
v -448 -560 -0.85
v -464 -560 -0.85
v -464 -544 -0.85
v -448 -544 -0.85
v -528 -560 -0.85
v -544 -560 -0.85
v -544 -544 -0.85
v -528 -544 -0.85
v -448 -576 -0.875
v -464 -576 -0.875
v -464 -560 -0.875
v -448 -560 -0.875
v -480 -576 -0.875
v -480 -560 -0.875
v -496 -576 -0.875
v -496 -560 -0.875
v -512 -576 -0.875
v -512 -560 -0.875
v -528 -576 -0.875
v -528 -560 -0.875
v -544 -576 -0.875
v -544 -560 -0.875

# Texture cooridinates (Count = 4)
vt 1.220703E-05 0.9000122
vt 0.09998779 0.9000122
vt 0.09998779 0.9999878
vt 1.220703E-05 0.9999878

# Normal
vn 0 0 -1

# Groups (Count = 1)

g mesh_0001
f 1/1/1 2/2/1 3/3/1 4/4/1
f 2/1/1 5/2/1 6/3/1 3/4/1
f 5/1/1 7/2/1 8/3/1 6/4/1
f 7/1/1 9/2/1 10/3/1 8/4/1
f 9/1/1 11/2/1 12/3/1 10/4/1
f 11/1/1 13/2/1 14/3/1 12/4/1
f 15/1/1 16/2/1 17/3/1 18/4/1
f 16/1/1 19/2/1 20/3/1 17/4/1
f 19/1/1 21/2/1 22/3/1 20/4/1
f 23/1/1 24/2/1 25/3/1 26/4/1
f 27/1/1 28/2/1 29/3/1 30/4/1
f 31/1/1 32/2/1 33/3/1 34/4/1
f 35/1/1 36/2/1 37/3/1 38/4/1
f 39/1/1 40/2/1 41/3/1 42/4/1
f 43/1/1 44/2/1 45/3/1 46/4/1
f 47/1/1 48/2/1 49/3/1 50/4/1
f 48/1/1 51/2/1 52/3/1 49/4/1
f 51/1/1 53/2/1 54/3/1 52/4/1
f 55/1/1 56/2/1 57/3/1 58/4/1
f 56/1/1 59/2/1 60/3/1 57/4/1
f 59/1/1 61/2/1 62/3/1 60/4/1
f 61/1/1 63/2/1 64/3/1 62/4/1
f 63/1/1 65/2/1 66/3/1 64/4/1
f 67/1/1 68/2/1 69/3/1 70/4/1
f 71/1/1 72/2/1 73/3/1 74/4/1
f 75/1/1 76/2/1 77/3/1 78/4/1
f 79/1/1 80/2/1 81/3/1 82/4/1
f 80/1/1 83/2/1 84/3/1 81/4/1
f 85/1/1 86/2/1 87/3/1 88/4/1
f 86/1/1 89/2/1 90/3/1 87/4/1
f 89/1/1 91/2/1 92/3/1 90/4/1
f 91/1/1 93/2/1 94/3/1 92/4/1
f 93/1/1 95/2/1 96/3/1 94/4/1
f 95/1/1 97/2/1 98/3/1 96/4/1
f 99/1/1 100/2/1 101/3/1 102/4/1
f 103/1/1 104/2/1 105/3/1 106/4/1
f 107/1/1 108/2/1 109/3/1 110/4/1
f 108/1/1 111/2/1 112/3/1 109/4/1
f 111/1/1 113/2/1 114/3/1 112/4/1
f 113/1/1 115/2/1 116/3/1 114/4/1
f 115/1/1 117/2/1 118/3/1 116/4/1
f 117/1/1 119/2/1 120/3/1 118/4/1
f 119/1/1 121/2/1 122/3/1 120/4/1
f 121/1/1 123/2/1 124/3/1 122/4/1
f 123/1/1 125/2/1 126/3/1 124/4/1
f 125/1/1 127/2/1 128/3/1 126/4/1
f 127/1/1 129/2/1 130/3/1 128/4/1
f 129/1/1 131/2/1 132/3/1 130/4/1
f 133/1/1 134/2/1 135/3/1 136/4/1
f 134/1/1 137/2/1 138/3/1 135/4/1
f 137/1/1 139/2/1 140/3/1 138/4/1
f 139/1/1 141/2/1 142/3/1 140/4/1
f 141/1/1 143/2/1 144/3/1 142/4/1
f 143/1/1 145/2/1 146/3/1 144/4/1
f 145/1/1 147/2/1 148/3/1 146/4/1
f 147/1/1 149/2/1 150/3/1 148/4/1
f 149/1/1 151/2/1 152/3/1 150/4/1
f 151/1/1 153/2/1 154/3/1 152/4/1
f 153/1/1 155/2/1 156/3/1 154/4/1
f 155/1/1 157/2/1 158/3/1 156/4/1
f 157/1/1 159/2/1 160/3/1 158/4/1
f 159/1/1 161/2/1 162/3/1 160/4/1
f 161/1/1 163/2/1 164/3/1 162/4/1
f 163/1/1 165/2/1 166/3/1 164/4/1
f 165/1/1 167/2/1 168/3/1 166/4/1
f 167/1/1 169/2/1 170/3/1 168/4/1
f 169/1/1 171/2/1 172/3/1 170/4/1
f 171/1/1 173/2/1 174/3/1 172/4/1
f 173/1/1 175/2/1 176/3/1 174/4/1
f 177/1/1 178/2/1 179/3/1 180/4/1
f 178/1/1 181/2/1 182/3/1 179/4/1
f 181/1/1 183/2/1 184/3/1 182/4/1
f 183/1/1 185/2/1 186/3/1 184/4/1
f 185/1/1 187/2/1 188/3/1 186/4/1
f 187/1/1 189/2/1 190/3/1 188/4/1
f 189/1/1 191/2/1 192/3/1 190/4/1
f 191/1/1 193/2/1 194/3/1 192/4/1
f 193/1/1 195/2/1 196/3/1 194/4/1
f 195/1/1 197/2/1 198/3/1 196/4/1
f 197/1/1 199/2/1 200/3/1 198/4/1
f 199/1/1 201/2/1 202/3/1 200/4/1
f 203/1/1 204/2/1 205/3/1 206/4/1
f 207/1/1 208/2/1 209/3/1 210/4/1
f 211/1/1 212/2/1 213/3/1 214/4/1
f 212/1/1 215/2/1 216/3/1 213/4/1
f 215/1/1 217/2/1 218/3/1 216/4/1
f 217/1/1 219/2/1 220/3/1 218/4/1
f 221/1/1 222/2/1 223/3/1 224/4/1
f 222/1/1 225/2/1 226/3/1 223/4/1
f 225/1/1 227/2/1 228/3/1 226/4/1
f 227/1/1 229/2/1 230/3/1 228/4/1
f 231/1/1 232/2/1 233/3/1 234/4/1
f 235/1/1 236/2/1 237/3/1 238/4/1
f 239/1/1 240/2/1 241/3/1 242/4/1
f 243/1/1 244/2/1 245/3/1 246/4/1
f 247/1/1 248/2/1 249/3/1 250/4/1
f 251/1/1 252/2/1 253/3/1 254/4/1
f 255/1/1 256/2/1 257/3/1 258/4/1
f 256/1/1 259/2/1 260/3/1 257/4/1
f 259/1/1 261/2/1 262/3/1 260/4/1
f 261/1/1 263/2/1 264/3/1 262/4/1
f 263/1/1 265/2/1 266/3/1 264/4/1
f 265/1/1 267/2/1 268/3/1 266/4/1

