# Wavefront OBJ file automatically generated by Tiled2Unity

# Vertices (Count = 470)
v 0 -64 -0.09375
v -16 -64 -0.09375
v -16 -48 -0.09375
v 0 -48 -0.09375
v -64 -64 -0.09375
v -80 -64 -0.09375
v -80 -48 -0.09375
v -64 -48 -0.09375
v -96 -64 -0.09375
v -96 -48 -0.09375
v -112 -64 -0.09375
v -112 -48 -0.09375
v -128 -64 -0.09375
v -128 -48 -0.09375
v -144 -64 -0.09375
v -144 -48 -0.09375
v -160 -64 -0.09375
v -160 -48 -0.09375
v -176 -64 -0.09375
v -176 -48 -0.09375
v -192 -64 -0.09375
v -192 -48 -0.09375
v -240 -64 -0.09375
v -256 -64 -0.09375
v -256 -48 -0.09375
v -240 -48 -0.09375
v 0 -80 -0.125
v -16 -80 -0.125
v -16 -64 -0.125
v 0 -64 -0.125
v -112 -80 -0.125
v -128 -80 -0.125
v -128 -64 -0.125
v -112 -64 -0.125
v -176 -80 -0.125
v -192 -80 -0.125
v -192 -64 -0.125
v -176 -64 -0.125
v -240 -80 -0.125
v -256 -80 -0.125
v -256 -64 -0.125
v -240 -64 -0.125
v 0 -96 -0.15625
v -16 -96 -0.15625
v -16 -80 -0.15625
v 0 -80 -0.15625
v -112 -96 -0.15625
v -128 -96 -0.15625
v -128 -80 -0.15625
v -112 -80 -0.15625
v -176 -96 -0.15625
v -192 -96 -0.15625
v -192 -80 -0.15625
v -176 -80 -0.15625
v -240 -96 -0.15625
v -256 -96 -0.15625
v -256 -80 -0.15625
v -240 -80 -0.15625
v 0 -112 -0.1875
v -16 -112 -0.1875
v -16 -96 -0.1875
v 0 -96 -0.1875
v -112 -112 -0.1875
v -128 -112 -0.1875
v -128 -96 -0.1875
v -112 -96 -0.1875
v -240 -112 -0.1875
v -256 -112 -0.1875
v -256 -96 -0.1875
v -240 -96 -0.1875
v 0 -128 -0.21875
v -16 -128 -0.21875
v -16 -112 -0.21875
v 0 -112 -0.21875
v -112 -128 -0.21875
v -128 -128 -0.21875
v -128 -112 -0.21875
v -112 -112 -0.21875
v -240 -128 -0.21875
v -256 -128 -0.21875
v -256 -112 -0.21875
v -240 -112 -0.21875
v 0 -144 -0.25
v -16 -144 -0.25
v -16 -128 -0.25
v 0 -128 -0.25
v -32 -144 -0.25
v -32 -128 -0.25
v -48 -144 -0.25
v -48 -128 -0.25
v -64 -144 -0.25
v -64 -128 -0.25
v -80 -144 -0.25
v -80 -128 -0.25
v -112 -144 -0.25
v -128 -144 -0.25
v -128 -128 -0.25
v -112 -128 -0.25
v -144 -144 -0.25
v -144 -128 -0.25
v -176 -144 -0.25
v -192 -144 -0.25
v -192 -128 -0.25
v -176 -128 -0.25
v -208 -144 -0.25
v -208 -128 -0.25
v -224 -144 -0.25
v -224 -128 -0.25
v -240 -144 -0.25
v -240 -128 -0.25
v -256 -144 -0.25
v -256 -128 -0.25
v 0 -160 -0.28125
v -16 -160 -0.28125
v -16 -144 -0.28125
v 0 -144 -0.28125
v -112 -160 -0.28125
v -128 -160 -0.28125
v -128 -144 -0.28125
v -112 -144 -0.28125
v -240 -160 -0.28125
v -256 -160 -0.28125
v -256 -144 -0.28125
v -240 -144 -0.28125
v 0 -176 -0.3125
v -16 -176 -0.3125
v -16 -160 -0.3125
v 0 -160 -0.3125
v -112 -176 -0.3125
v -128 -176 -0.3125
v -128 -160 -0.3125
v -112 -160 -0.3125
v -240 -176 -0.3125
v -256 -176 -0.3125
v -256 -160 -0.3125
v -240 -160 -0.3125
v 0 -192 -0.34375
v -16 -192 -0.34375
v -16 -176 -0.34375
v 0 -176 -0.34375
v -48 -192 -0.34375
v -64 -192 -0.34375
v -64 -176 -0.34375
v -48 -176 -0.34375
v -80 -192 -0.34375
v -80 -176 -0.34375
v -96 -192 -0.34375
v -96 -176 -0.34375
v -112 -192 -0.34375
v -112 -176 -0.34375
v -128 -192 -0.34375
v -128 -176 -0.34375
v -144 -192 -0.34375
v -144 -176 -0.34375
v -160 -192 -0.34375
v -160 -176 -0.34375
v -192 -192 -0.34375
v -208 -192 -0.34375
v -208 -176 -0.34375
v -192 -176 -0.34375
v -224 -192 -0.34375
v -224 -176 -0.34375
v -240 -192 -0.34375
v -256 -192 -0.34375
v -256 -176 -0.34375
v -240 -176 -0.34375
v 0 -208 -0.375
v -16 -208 -0.375
v -16 -192 -0.375
v 0 -192 -0.375
v -112 -208 -0.375
v -128 -208 -0.375
v -128 -192 -0.375
v -112 -192 -0.375
v -240 -208 -0.375
v -256 -208 -0.375
v -256 -192 -0.375
v -240 -192 -0.375
v 0 -224 -0.40625
v -16 -224 -0.40625
v -16 -208 -0.40625
v 0 -208 -0.40625
v -112 -224 -0.40625
v -128 -224 -0.40625
v -128 -208 -0.40625
v -112 -208 -0.40625
v -240 -224 -0.40625
v -256 -224 -0.40625
v -256 -208 -0.40625
v -240 -208 -0.40625
v 0 -240 -0.4375
v -16 -240 -0.4375
v -16 -224 -0.4375
v 0 -224 -0.4375
v -112 -240 -0.4375
v -128 -240 -0.4375
v -128 -224 -0.4375
v -112 -224 -0.4375
v -176 -240 -0.4375
v -192 -240 -0.4375
v -192 -224 -0.4375
v -176 -224 -0.4375
v -224 -240 -0.4375
v -240 -240 -0.4375
v -240 -224 -0.4375
v -224 -224 -0.4375
v -256 -240 -0.4375
v -256 -224 -0.4375
v 0 -256 -0.46875
v -16 -256 -0.46875
v -16 -240 -0.46875
v 0 -240 -0.46875
v -112 -256 -0.46875
v -128 -256 -0.46875
v -128 -240 -0.46875
v -112 -240 -0.46875
v -240 -256 -0.46875
v -256 -256 -0.46875
v -256 -240 -0.46875
v -240 -240 -0.46875
v 0 -272 -0.5
v -16 -272 -0.5
v -16 -256 -0.5
v 0 -256 -0.5
v -112 -272 -0.5
v -128 -272 -0.5
v -128 -256 -0.5
v -112 -256 -0.5
v -240 -272 -0.5
v -256 -272 -0.5
v -256 -256 -0.5
v -240 -256 -0.5
v 0 -288 -0.53125
v -16 -288 -0.53125
v -16 -272 -0.53125
v 0 -272 -0.53125
v -48 -288 -0.53125
v -64 -288 -0.53125
v -64 -272 -0.53125
v -48 -272 -0.53125
v -80 -288 -0.53125
v -80 -272 -0.53125
v -112 -288 -0.53125
v -128 -288 -0.53125
v -128 -272 -0.53125
v -112 -272 -0.53125
v -144 -288 -0.53125
v -144 -272 -0.53125
v -160 -288 -0.53125
v -160 -272 -0.53125
v -176 -288 -0.53125
v -176 -272 -0.53125
v -192 -288 -0.53125
v -192 -272 -0.53125
v -224 -288 -0.53125
v -240 -288 -0.53125
v -240 -272 -0.53125
v -224 -272 -0.53125
v -256 -288 -0.53125
v -256 -272 -0.53125
v 0 -304 -0.5625
v -16 -304 -0.5625
v -16 -288 -0.5625
v 0 -288 -0.5625
v -112 -304 -0.5625
v -128 -304 -0.5625
v -128 -288 -0.5625
v -112 -288 -0.5625
v -144 -304 -0.5625
v -144 -288 -0.5625
v -240 -304 -0.5625
v -256 -304 -0.5625
v -256 -288 -0.5625
v -240 -288 -0.5625
v 0 -320 -0.59375
v -16 -320 -0.59375
v -16 -304 -0.59375
v 0 -304 -0.59375
v -240 -320 -0.59375
v -256 -320 -0.59375
v -256 -304 -0.59375
v -240 -304 -0.59375
v 0 -336 -0.625
v -16 -336 -0.625
v -16 -320 -0.625
v 0 -320 -0.625
v -208 -336 -0.625
v -224 -336 -0.625
v -224 -320 -0.625
v -208 -320 -0.625
v -240 -336 -0.625
v -256 -336 -0.625
v -256 -320 -0.625
v -240 -320 -0.625
v 0 -352 -0.65625
v -16 -352 -0.65625
v -16 -336 -0.65625
v 0 -336 -0.65625
v -80 -352 -0.65625
v -96 -352 -0.65625
v -96 -336 -0.65625
v -80 -336 -0.65625
v -112 -352 -0.65625
v -112 -336 -0.65625
v -128 -352 -0.65625
v -128 -336 -0.65625
v -144 -352 -0.65625
v -144 -336 -0.65625
v -240 -352 -0.65625
v -256 -352 -0.65625
v -256 -336 -0.65625
v -240 -336 -0.65625
v 0 -368 -0.6875
v -16 -368 -0.6875
v -16 -352 -0.6875
v 0 -352 -0.6875
v -32 -368 -0.6875
v -32 -352 -0.6875
v -48 -368 -0.6875
v -48 -352 -0.6875
v -64 -368 -0.6875
v -64 -352 -0.6875
v -80 -368 -0.6875
v -80 -352 -0.6875
v -96 -368 -0.6875
v -96 -352 -0.6875
v -112 -368 -0.6875
v -112 -352 -0.6875
v -128 -368 -0.6875
v -128 -352 -0.6875
v -144 -368 -0.6875
v -144 -352 -0.6875
v -240 -368 -0.6875
v -256 -368 -0.6875
v -256 -352 -0.6875
v -240 -352 -0.6875
v 0 -384 -0.71875
v -16 -384 -0.71875
v -16 -368 -0.71875
v 0 -368 -0.71875
v -32 -384 -0.71875
v -32 -368 -0.71875
v -48 -384 -0.71875
v -48 -368 -0.71875
v -64 -384 -0.71875
v -64 -368 -0.71875
v -80 -384 -0.71875
v -80 -368 -0.71875
v -96 -384 -0.71875
v -96 -368 -0.71875
v -112 -384 -0.71875
v -112 -368 -0.71875
v -128 -384 -0.71875
v -128 -368 -0.71875
v -144 -384 -0.71875
v -144 -368 -0.71875
v -160 -384 -0.71875
v -160 -368 -0.71875
v -176 -384 -0.71875
v -176 -368 -0.71875
v -192 -384 -0.71875
v -192 -368 -0.71875
v -208 -384 -0.71875
v -208 -368 -0.71875
v -240 -384 -0.71875
v -256 -384 -0.71875
v -256 -368 -0.71875
v -240 -368 -0.71875
v 0 -400 -0.75
v -16 -400 -0.75
v -16 -384 -0.75
v 0 -384 -0.75
v -48 -400 -0.75
v -64 -400 -0.75
v -64 -384 -0.75
v -48 -384 -0.75
v -240 -400 -0.75
v -256 -400 -0.75
v -256 -384 -0.75
v -240 -384 -0.75
v 0 -416 -0.78125
v -16 -416 -0.78125
v -16 -400 -0.78125
v 0 -400 -0.78125
v -240 -416 -0.78125
v -256 -416 -0.78125
v -256 -400 -0.78125
v -240 -400 -0.78125
v 0 -432 -0.8125
v -16 -432 -0.8125
v -16 -416 -0.8125
v 0 -416 -0.8125
v -32 -432 -0.8125
v -32 -416 -0.8125
v -48 -432 -0.8125
v -48 -416 -0.8125
v -64 -432 -0.8125
v -64 -416 -0.8125
v -80 -432 -0.8125
v -80 -416 -0.8125
v -96 -432 -0.8125
v -96 -416 -0.8125
v -112 -432 -0.8125
v -112 -416 -0.8125
v -128 -432 -0.8125
v -128 -416 -0.8125
v -240 -432 -0.8125
v -256 -432 -0.8125
v -256 -416 -0.8125
v -240 -416 -0.8125
v 0 -448 -0.84375
v -16 -448 -0.84375
v -16 -432 -0.84375
v 0 -432 -0.84375
v -32 -448 -0.84375
v -32 -432 -0.84375
v -48 -448 -0.84375
v -48 -432 -0.84375
v -64 -448 -0.84375
v -64 -432 -0.84375
v -80 -448 -0.84375
v -80 -432 -0.84375
v -96 -448 -0.84375
v -96 -432 -0.84375
v -112 -448 -0.84375
v -112 -432 -0.84375
v -128 -448 -0.84375
v -128 -432 -0.84375
v -240 -448 -0.84375
v -256 -448 -0.84375
v -256 -432 -0.84375
v -240 -432 -0.84375
v 0 -464 -0.875
v -16 -464 -0.875
v -16 -448 -0.875
v 0 -448 -0.875
v -32 -464 -0.875
v -32 -448 -0.875
v -48 -464 -0.875
v -48 -448 -0.875
v -64 -464 -0.875
v -64 -448 -0.875
v -80 -464 -0.875
v -80 -448 -0.875
v -96 -464 -0.875
v -96 -448 -0.875
v -112 -464 -0.875
v -112 -448 -0.875
v -128 -464 -0.875
v -128 -448 -0.875
v -144 -464 -0.875
v -144 -448 -0.875
v -160 -464 -0.875
v -160 -448 -0.875
v -176 -464 -0.875
v -176 -448 -0.875
v -192 -464 -0.875
v -192 -448 -0.875
v -208 -464 -0.875
v -208 -448 -0.875
v -224 -464 -0.875
v -224 -448 -0.875
v -240 -464 -0.875
v -240 -448 -0.875
v -256 -464 -0.875
v -256 -448 -0.875
v -32 -304 -0.5625
v -32 -288 -0.5625
v -48 -304 -0.5625
v -48 -288 -0.5625

# Texture cooridinates (Count = 8)
vt 1.220703E-05 0.9000122
vt 0.09998779 0.9000122
vt 0.09998779 0.9999878
vt 1.220703E-05 0.9999878
vt 0.2000122 0.9000122
vt 0.2999878 0.9000122
vt 0.2999878 0.9999878
vt 0.2000122 0.9999878

# Normal
vn 0 0 -1

# Groups (Count = 2)

g mesh_0001
f 1/1/1 2/2/1 3/3/1 4/4/1
f 5/1/1 6/2/1 7/3/1 8/4/1
f 6/1/1 9/2/1 10/3/1 7/4/1
f 9/1/1 11/2/1 12/3/1 10/4/1
f 11/1/1 13/2/1 14/3/1 12/4/1
f 13/1/1 15/2/1 16/3/1 14/4/1
f 15/1/1 17/2/1 18/3/1 16/4/1
f 17/1/1 19/2/1 20/3/1 18/4/1
f 19/1/1 21/2/1 22/3/1 20/4/1
f 23/1/1 24/2/1 25/3/1 26/4/1
f 27/1/1 28/2/1 29/3/1 30/4/1
f 31/1/1 32/2/1 33/3/1 34/4/1
f 35/1/1 36/2/1 37/3/1 38/4/1
f 39/1/1 40/2/1 41/3/1 42/4/1
f 43/1/1 44/2/1 45/3/1 46/4/1
f 47/1/1 48/2/1 49/3/1 50/4/1
f 51/1/1 52/2/1 53/3/1 54/4/1
f 55/1/1 56/2/1 57/3/1 58/4/1
f 59/1/1 60/2/1 61/3/1 62/4/1
f 63/1/1 64/2/1 65/3/1 66/4/1
f 67/1/1 68/2/1 69/3/1 70/4/1
f 71/1/1 72/2/1 73/3/1 74/4/1
f 75/1/1 76/2/1 77/3/1 78/4/1
f 79/1/1 80/2/1 81/3/1 82/4/1
f 83/1/1 84/2/1 85/3/1 86/4/1
f 84/1/1 87/2/1 88/3/1 85/4/1
f 87/1/1 89/2/1 90/3/1 88/4/1
f 89/1/1 91/2/1 92/3/1 90/4/1
f 91/1/1 93/2/1 94/3/1 92/4/1
f 95/1/1 96/2/1 97/3/1 98/4/1
f 96/1/1 99/2/1 100/3/1 97/4/1
f 101/1/1 102/2/1 103/3/1 104/4/1
f 102/1/1 105/2/1 106/3/1 103/4/1
f 105/1/1 107/2/1 108/3/1 106/4/1
f 107/1/1 109/2/1 110/3/1 108/4/1
f 109/1/1 111/2/1 112/3/1 110/4/1
f 113/1/1 114/2/1 115/3/1 116/4/1
f 117/1/1 118/2/1 119/3/1 120/4/1
f 121/1/1 122/2/1 123/3/1 124/4/1
f 125/1/1 126/2/1 127/3/1 128/4/1
f 129/1/1 130/2/1 131/3/1 132/4/1
f 133/1/1 134/2/1 135/3/1 136/4/1
f 137/1/1 138/2/1 139/3/1 140/4/1
f 141/1/1 142/2/1 143/3/1 144/4/1
f 142/1/1 145/2/1 146/3/1 143/4/1
f 145/1/1 147/2/1 148/3/1 146/4/1
f 147/1/1 149/2/1 150/3/1 148/4/1
f 149/1/1 151/2/1 152/3/1 150/4/1
f 151/1/1 153/2/1 154/3/1 152/4/1
f 153/1/1 155/2/1 156/3/1 154/4/1
f 157/1/1 158/2/1 159/3/1 160/4/1
f 158/1/1 161/2/1 162/3/1 159/4/1
f 163/1/1 164/2/1 165/3/1 166/4/1
f 167/1/1 168/2/1 169/3/1 170/4/1
f 171/1/1 172/2/1 173/3/1 174/4/1
f 175/1/1 176/2/1 177/3/1 178/4/1
f 179/1/1 180/2/1 181/3/1 182/4/1
f 183/1/1 184/2/1 185/3/1 186/4/1
f 187/1/1 188/2/1 189/3/1 190/4/1
f 191/1/1 192/2/1 193/3/1 194/4/1
f 195/1/1 196/2/1 197/3/1 198/4/1
f 199/1/1 200/2/1 201/3/1 202/4/1
f 203/1/1 204/2/1 205/3/1 206/4/1
f 204/1/1 207/2/1 208/3/1 205/4/1
f 209/1/1 210/2/1 211/3/1 212/4/1
f 213/1/1 214/2/1 215/3/1 216/4/1
f 217/1/1 218/2/1 219/3/1 220/4/1
f 221/1/1 222/2/1 223/3/1 224/4/1
f 225/1/1 226/2/1 227/3/1 228/4/1
f 229/1/1 230/2/1 231/3/1 232/4/1
f 233/1/1 234/2/1 235/3/1 236/4/1
f 237/1/1 238/2/1 239/3/1 240/4/1
f 238/1/1 241/2/1 242/3/1 239/4/1
f 243/1/1 244/2/1 245/3/1 246/4/1
f 244/1/1 247/2/1 248/3/1 245/4/1
f 247/1/1 249/2/1 250/3/1 248/4/1
f 249/1/1 251/2/1 252/3/1 250/4/1
f 251/1/1 253/2/1 254/3/1 252/4/1
f 255/1/1 256/2/1 257/3/1 258/4/1
f 256/1/1 259/2/1 260/3/1 257/4/1
f 261/1/1 262/2/1 263/3/1 264/4/1
f 265/1/1 266/2/1 267/3/1 268/4/1
f 266/1/1 269/2/1 270/3/1 267/4/1
f 271/1/1 272/2/1 273/3/1 274/4/1
f 275/1/1 276/2/1 277/3/1 278/4/1
f 279/1/1 280/2/1 281/3/1 282/4/1
f 283/1/1 284/2/1 285/3/1 286/4/1
f 287/1/1 288/2/1 289/3/1 290/4/1
f 291/1/1 292/2/1 293/3/1 294/4/1
f 295/1/1 296/2/1 297/3/1 298/4/1
f 299/1/1 300/2/1 301/3/1 302/4/1
f 300/1/1 303/2/1 304/3/1 301/4/1
f 303/1/1 305/2/1 306/3/1 304/4/1
f 305/1/1 307/2/1 308/3/1 306/4/1
f 309/1/1 310/2/1 311/3/1 312/4/1
f 313/1/1 314/2/1 315/3/1 316/4/1
f 314/5/1 317/6/1 318/7/1 315/8/1
f 317/5/1 319/6/1 320/7/1 318/8/1
f 319/5/1 321/6/1 322/7/1 320/8/1
f 321/5/1 323/6/1 324/7/1 322/8/1
f 323/1/1 325/2/1 326/3/1 324/4/1
f 325/1/1 327/2/1 328/3/1 326/4/1
f 327/1/1 329/2/1 330/3/1 328/4/1
f 329/1/1 331/2/1 332/3/1 330/4/1
f 333/1/1 334/2/1 335/3/1 336/4/1
f 337/1/1 338/2/1 339/3/1 340/4/1
f 338/1/1 341/2/1 342/3/1 339/4/1
f 341/1/1 343/2/1 344/3/1 342/4/1
f 343/1/1 345/2/1 346/3/1 344/4/1
f 345/1/1 347/2/1 348/3/1 346/4/1
f 347/1/1 349/2/1 350/3/1 348/4/1
f 349/1/1 351/2/1 352/3/1 350/4/1
f 351/1/1 353/2/1 354/3/1 352/4/1
f 353/1/1 355/2/1 356/3/1 354/4/1
f 355/1/1 357/2/1 358/3/1 356/4/1
f 357/1/1 359/2/1 360/3/1 358/4/1
f 359/1/1 361/2/1 362/3/1 360/4/1
f 361/1/1 363/2/1 364/3/1 362/4/1
f 365/1/1 366/2/1 367/3/1 368/4/1
f 369/1/1 370/2/1 371/3/1 372/4/1
f 373/1/1 374/2/1 375/3/1 376/4/1
f 377/1/1 378/2/1 379/3/1 380/4/1
f 381/1/1 382/2/1 383/3/1 384/4/1
f 385/1/1 386/2/1 387/3/1 388/4/1
f 389/1/1 390/2/1 391/3/1 392/4/1
f 390/1/1 393/2/1 394/3/1 391/4/1
f 393/1/1 395/2/1 396/3/1 394/4/1
f 395/1/1 397/2/1 398/3/1 396/4/1
f 397/1/1 399/2/1 400/3/1 398/4/1
f 399/1/1 401/2/1 402/3/1 400/4/1
f 401/1/1 403/2/1 404/3/1 402/4/1
f 403/1/1 405/2/1 406/3/1 404/4/1
f 407/1/1 408/2/1 409/3/1 410/4/1
f 411/1/1 412/2/1 413/3/1 414/4/1
f 412/1/1 415/2/1 416/3/1 413/4/1
f 415/1/1 417/2/1 418/3/1 416/4/1
f 417/1/1 419/2/1 420/3/1 418/4/1
f 419/1/1 421/2/1 422/3/1 420/4/1
f 421/1/1 423/2/1 424/3/1 422/4/1
f 423/1/1 425/2/1 426/3/1 424/4/1
f 425/1/1 427/2/1 428/3/1 426/4/1
f 429/1/1 430/2/1 431/3/1 432/4/1
f 433/1/1 434/2/1 435/3/1 436/4/1
f 434/1/1 437/2/1 438/3/1 435/4/1
f 437/1/1 439/2/1 440/3/1 438/4/1
f 439/1/1 441/2/1 442/3/1 440/4/1
f 441/1/1 443/2/1 444/3/1 442/4/1
f 443/1/1 445/2/1 446/3/1 444/4/1
f 445/1/1 447/2/1 448/3/1 446/4/1
f 447/1/1 449/2/1 450/3/1 448/4/1
f 449/1/1 451/2/1 452/3/1 450/4/1
f 451/1/1 453/2/1 454/3/1 452/4/1
f 453/1/1 455/2/1 456/3/1 454/4/1
f 455/1/1 457/2/1 458/3/1 456/4/1
f 457/1/1 459/2/1 460/3/1 458/4/1
f 459/1/1 461/2/1 462/3/1 460/4/1
f 461/1/1 463/2/1 464/3/1 462/4/1
f 463/1/1 465/2/1 466/3/1 464/4/1

g mesh_0002
f 262/5/1 467/6/1 468/7/1 263/8/1
f 467/5/1 469/6/1 470/7/1 468/8/1

