# Wavefront OBJ file automatically generated by Tiled2Unity

# Vertices (Count = 466)
v 0 -64 -0.09375
v -16 -64 -0.09375
v -16 -48 -0.09375
v 0 -48 -0.09375
v -240 -64 -0.09375
v -256 -64 -0.09375
v -256 -48 -0.09375
v -240 -48 -0.09375
v 0 -80 -0.125
v -16 -80 -0.125
v -16 -64 -0.125
v 0 -64 -0.125
v -240 -80 -0.125
v -256 -80 -0.125
v -256 -64 -0.125
v -240 -64 -0.125
v 0 -96 -0.15625
v -16 -96 -0.15625
v -16 -80 -0.15625
v 0 -80 -0.15625
v -192 -96 -0.15625
v -208 -96 -0.15625
v -208 -80 -0.15625
v -192 -80 -0.15625
v -224 -96 -0.15625
v -224 -80 -0.15625
v -240 -96 -0.15625
v -240 -80 -0.15625
v -256 -96 -0.15625
v -256 -80 -0.15625
v 0 -112 -0.1875
v -16 -112 -0.1875
v -16 -96 -0.1875
v 0 -96 -0.1875
v -192 -112 -0.1875
v -208 -112 -0.1875
v -208 -96 -0.1875
v -192 -96 -0.1875
v -224 -112 -0.1875
v -224 -96 -0.1875
v -240 -112 -0.1875
v -240 -96 -0.1875
v -256 -112 -0.1875
v -256 -96 -0.1875
v 0 -128 -0.21875
v -16 -128 -0.21875
v -16 -112 -0.21875
v 0 -112 -0.21875
v -64 -128 -0.21875
v -80 -128 -0.21875
v -80 -112 -0.21875
v -64 -112 -0.21875
v -96 -128 -0.21875
v -96 -112 -0.21875
v -112 -128 -0.21875
v -112 -112 -0.21875
v -144 -128 -0.21875
v -160 -128 -0.21875
v -160 -112 -0.21875
v -144 -112 -0.21875
v -176 -128 -0.21875
v -176 -112 -0.21875
v -192 -128 -0.21875
v -192 -112 -0.21875
v -208 -128 -0.21875
v -208 -112 -0.21875
v -224 -128 -0.21875
v -224 -112 -0.21875
v -240 -128 -0.21875
v -240 -112 -0.21875
v -256 -128 -0.21875
v -256 -112 -0.21875
v 0 -144 -0.25
v -16 -144 -0.25
v -16 -128 -0.25
v 0 -128 -0.25
v -96 -144 -0.25
v -112 -144 -0.25
v -112 -128 -0.25
v -96 -128 -0.25
v -144 -144 -0.25
v -160 -144 -0.25
v -160 -128 -0.25
v -144 -128 -0.25
v -240 -144 -0.25
v -256 -144 -0.25
v -256 -128 -0.25
v -240 -128 -0.25
v 0 -160 -0.28125
v -16 -160 -0.28125
v -16 -144 -0.28125
v 0 -144 -0.28125
v -32 -160 -0.28125
v -32 -144 -0.28125
v -48 -160 -0.28125
v -48 -144 -0.28125
v -64 -160 -0.28125
v -64 -144 -0.28125
v -240 -160 -0.28125
v -256 -160 -0.28125
v -256 -144 -0.28125
v -240 -144 -0.28125
v 0 -176 -0.3125
v -16 -176 -0.3125
v -16 -160 -0.3125
v 0 -160 -0.3125
v -32 -176 -0.3125
v -32 -160 -0.3125
v -48 -176 -0.3125
v -48 -160 -0.3125
v -64 -176 -0.3125
v -64 -160 -0.3125
v -240 -176 -0.3125
v -256 -176 -0.3125
v -256 -160 -0.3125
v -240 -160 -0.3125
v 0 -192 -0.34375
v -16 -192 -0.34375
v -16 -176 -0.34375
v 0 -176 -0.34375
v -32 -192 -0.34375
v -32 -176 -0.34375
v -48 -192 -0.34375
v -48 -176 -0.34375
v -64 -192 -0.34375
v -64 -176 -0.34375
v -80 -192 -0.34375
v -80 -176 -0.34375
v -96 -192 -0.34375
v -96 -176 -0.34375
v -112 -192 -0.34375
v -112 -176 -0.34375
v -144 -192 -0.34375
v -160 -192 -0.34375
v -160 -176 -0.34375
v -144 -176 -0.34375
v -176 -192 -0.34375
v -176 -176 -0.34375
v -192 -192 -0.34375
v -192 -176 -0.34375
v -240 -192 -0.34375
v -256 -192 -0.34375
v -256 -176 -0.34375
v -240 -176 -0.34375
v 0 -208 -0.375
v -16 -208 -0.375
v -16 -192 -0.375
v 0 -192 -0.375
v -240 -208 -0.375
v -256 -208 -0.375
v -256 -192 -0.375
v -240 -192 -0.375
v 0 -224 -0.40625
v -16 -224 -0.40625
v -16 -208 -0.40625
v 0 -208 -0.40625
v -192 -224 -0.40625
v -208 -224 -0.40625
v -208 -208 -0.40625
v -192 -208 -0.40625
v -224 -224 -0.40625
v -224 -208 -0.40625
v -240 -224 -0.40625
v -240 -208 -0.40625
v -256 -224 -0.40625
v -256 -208 -0.40625
v 0 -240 -0.4375
v -16 -240 -0.4375
v -16 -224 -0.4375
v 0 -224 -0.4375
v -192 -240 -0.4375
v -208 -240 -0.4375
v -208 -224 -0.4375
v -192 -224 -0.4375
v -224 -240 -0.4375
v -224 -224 -0.4375
v -240 -240 -0.4375
v -240 -224 -0.4375
v -256 -240 -0.4375
v -256 -224 -0.4375
v 0 -256 -0.46875
v -16 -256 -0.46875
v -16 -240 -0.46875
v 0 -240 -0.46875
v -64 -256 -0.46875
v -80 -256 -0.46875
v -80 -240 -0.46875
v -64 -240 -0.46875
v -96 -256 -0.46875
v -96 -240 -0.46875
v -112 -256 -0.46875
v -112 -240 -0.46875
v -144 -256 -0.46875
v -160 -256 -0.46875
v -160 -240 -0.46875
v -144 -240 -0.46875
v -176 -256 -0.46875
v -176 -240 -0.46875
v -192 -256 -0.46875
v -192 -240 -0.46875
v -208 -256 -0.46875
v -208 -240 -0.46875
v -224 -256 -0.46875
v -224 -240 -0.46875
v -240 -256 -0.46875
v -240 -240 -0.46875
v -256 -256 -0.46875
v -256 -240 -0.46875
v 0 -272 -0.5
v -16 -272 -0.5
v -16 -256 -0.5
v 0 -256 -0.5
v 0 -288 -0.53125
v -16 -288 -0.53125
v -16 -272 -0.53125
v 0 -272 -0.53125
v -32 -288 -0.53125
v -32 -272 -0.53125
v -48 -288 -0.53125
v -48 -272 -0.53125
v -64 -288 -0.53125
v -64 -272 -0.53125
v 0 -304 -0.5625
v -16 -304 -0.5625
v -16 -288 -0.5625
v 0 -288 -0.5625
v -32 -304 -0.5625
v -32 -288 -0.5625
v -48 -304 -0.5625
v -48 -288 -0.5625
v -64 -304 -0.5625
v -64 -288 -0.5625
v -240 -304 -0.5625
v -256 -304 -0.5625
v -256 -288 -0.5625
v -240 -288 -0.5625
v 0 -320 -0.59375
v -16 -320 -0.59375
v -16 -304 -0.59375
v 0 -304 -0.59375
v -32 -320 -0.59375
v -32 -304 -0.59375
v -48 -320 -0.59375
v -48 -304 -0.59375
v -64 -320 -0.59375
v -64 -304 -0.59375
v -80 -320 -0.59375
v -80 -304 -0.59375
v -96 -320 -0.59375
v -96 -304 -0.59375
v -112 -320 -0.59375
v -112 -304 -0.59375
v -144 -320 -0.59375
v -160 -320 -0.59375
v -160 -304 -0.59375
v -144 -304 -0.59375
v -176 -320 -0.59375
v -176 -304 -0.59375
v -192 -320 -0.59375
v -192 -304 -0.59375
v -240 -320 -0.59375
v -256 -320 -0.59375
v -256 -304 -0.59375
v -240 -304 -0.59375
v 0 -336 -0.625
v -16 -336 -0.625
v -16 -320 -0.625
v 0 -320 -0.625
v -240 -336 -0.625
v -256 -336 -0.625
v -256 -320 -0.625
v -240 -320 -0.625
v 0 -352 -0.65625
v -16 -352 -0.65625
v -16 -336 -0.65625
v 0 -336 -0.65625
v -192 -352 -0.65625
v -208 -352 -0.65625
v -208 -336 -0.65625
v -192 -336 -0.65625
v -224 -352 -0.65625
v -224 -336 -0.65625
v -240 -352 -0.65625
v -240 -336 -0.65625
v -256 -352 -0.65625
v -256 -336 -0.65625
v 0 -368 -0.6875
v -16 -368 -0.6875
v -16 -352 -0.6875
v 0 -352 -0.6875
v -192 -368 -0.6875
v -208 -368 -0.6875
v -208 -352 -0.6875
v -192 -352 -0.6875
v -224 -368 -0.6875
v -224 -352 -0.6875
v -240 -368 -0.6875
v -240 -352 -0.6875
v -256 -368 -0.6875
v -256 -352 -0.6875
v 0 -384 -0.71875
v -16 -384 -0.71875
v -16 -368 -0.71875
v 0 -368 -0.71875
v -64 -384 -0.71875
v -80 -384 -0.71875
v -80 -368 -0.71875
v -64 -368 -0.71875
v -96 -384 -0.71875
v -96 -368 -0.71875
v -112 -384 -0.71875
v -112 -368 -0.71875
v -144 -384 -0.71875
v -160 -384 -0.71875
v -160 -368 -0.71875
v -144 -368 -0.71875
v -176 -384 -0.71875
v -176 -368 -0.71875
v -192 -384 -0.71875
v -192 -368 -0.71875
v -208 -384 -0.71875
v -208 -368 -0.71875
v -224 -384 -0.71875
v -224 -368 -0.71875
v -240 -384 -0.71875
v -240 -368 -0.71875
v -256 -384 -0.71875
v -256 -368 -0.71875
v 0 -400 -0.75
v -16 -400 -0.75
v -16 -384 -0.75
v 0 -384 -0.75
v -240 -400 -0.75
v -256 -400 -0.75
v -256 -384 -0.75
v -240 -384 -0.75
v 0 -416 -0.78125
v -16 -416 -0.78125
v -16 -400 -0.78125
v 0 -400 -0.78125
v -32 -416 -0.78125
v -32 -400 -0.78125
v -48 -416 -0.78125
v -48 -400 -0.78125
v -64 -416 -0.78125
v -64 -400 -0.78125
v -240 -416 -0.78125
v -256 -416 -0.78125
v -256 -400 -0.78125
v -240 -400 -0.78125
v 0 -432 -0.8125
v -16 -432 -0.8125
v -16 -416 -0.8125
v 0 -416 -0.8125
v -32 -432 -0.8125
v -32 -416 -0.8125
v -48 -432 -0.8125
v -48 -416 -0.8125
v -64 -432 -0.8125
v -64 -416 -0.8125
v -240 -432 -0.8125
v -256 -432 -0.8125
v -256 -416 -0.8125
v -240 -416 -0.8125
v 0 -448 -0.84375
v -16 -448 -0.84375
v -16 -432 -0.84375
v 0 -432 -0.84375
v -32 -448 -0.84375
v -32 -432 -0.84375
v -48 -448 -0.84375
v -48 -432 -0.84375
v -64 -448 -0.84375
v -64 -432 -0.84375
v -80 -448 -0.84375
v -80 -432 -0.84375
v -96 -448 -0.84375
v -96 -432 -0.84375
v -112 -448 -0.84375
v -112 -432 -0.84375
v -144 -448 -0.84375
v -160 -448 -0.84375
v -160 -432 -0.84375
v -144 -432 -0.84375
v -176 -448 -0.84375
v -176 -432 -0.84375
v -192 -448 -0.84375
v -192 -432 -0.84375
v -240 -448 -0.84375
v -256 -448 -0.84375
v -256 -432 -0.84375
v -240 -432 -0.84375
v 0 -464 -0.875
v -16 -464 -0.875
v -16 -448 -0.875
v 0 -448 -0.875
v -64 -464 -0.875
v -80 -464 -0.875
v -80 -448 -0.875
v -64 -448 -0.875
v -240 -464 -0.875
v -256 -464 -0.875
v -256 -448 -0.875
v -240 -448 -0.875
v 0 -480 -0.90625
v -16 -480 -0.90625
v -16 -464 -0.90625
v 0 -464 -0.90625
v -192 -480 -0.90625
v -208 -480 -0.90625
v -208 -464 -0.90625
v -192 -464 -0.90625
v -224 -480 -0.90625
v -224 -464 -0.90625
v -240 -480 -0.90625
v -240 -464 -0.90625
v -256 -480 -0.90625
v -256 -464 -0.90625
v 0 -496 -0.9375
v -16 -496 -0.9375
v -16 -480 -0.9375
v 0 -480 -0.9375
v -192 -496 -0.9375
v -208 -496 -0.9375
v -208 -480 -0.9375
v -192 -480 -0.9375
v -224 -496 -0.9375
v -224 -480 -0.9375
v -240 -496 -0.9375
v -240 -480 -0.9375
v -256 -496 -0.9375
v -256 -480 -0.9375
v 0 -512 -0.96875
v -16 -512 -0.96875
v -16 -496 -0.96875
v 0 -496 -0.96875
v -32 -512 -0.96875
v -32 -496 -0.96875
v -48 -512 -0.96875
v -48 -496 -0.96875
v -64 -512 -0.96875
v -64 -496 -0.96875
v -80 -512 -0.96875
v -80 -496 -0.96875
v -96 -512 -0.96875
v -96 -496 -0.96875
v -112 -512 -0.96875
v -112 -496 -0.96875
v -128 -512 -0.96875
v -128 -496 -0.96875
v -144 -512 -0.96875
v -144 -496 -0.96875
v -160 -512 -0.96875
v -160 -496 -0.96875
v -176 -512 -0.96875
v -176 -496 -0.96875
v -192 -512 -0.96875
v -192 -496 -0.96875
v -208 -512 -0.96875
v -208 -496 -0.96875
v -224 -512 -0.96875
v -224 -496 -0.96875
v -240 -512 -0.96875
v -240 -496 -0.96875
v -256 -512 -0.96875
v -256 -496 -0.96875

# Texture cooridinates (Count = 4)
vt 1.220703E-05 0.9000122
vt 0.09998779 0.9000122
vt 0.09998779 0.9999878
vt 1.220703E-05 0.9999878

# Normal
vn 0 0 -1

# Groups (Count = 1)

g mesh_0001
f 1/1/1 2/2/1 3/3/1 4/4/1
f 5/1/1 6/2/1 7/3/1 8/4/1
f 9/1/1 10/2/1 11/3/1 12/4/1
f 13/1/1 14/2/1 15/3/1 16/4/1
f 17/1/1 18/2/1 19/3/1 20/4/1
f 21/1/1 22/2/1 23/3/1 24/4/1
f 22/1/1 25/2/1 26/3/1 23/4/1
f 25/1/1 27/2/1 28/3/1 26/4/1
f 27/1/1 29/2/1 30/3/1 28/4/1
f 31/1/1 32/2/1 33/3/1 34/4/1
f 35/1/1 36/2/1 37/3/1 38/4/1
f 36/1/1 39/2/1 40/3/1 37/4/1
f 39/1/1 41/2/1 42/3/1 40/4/1
f 41/1/1 43/2/1 44/3/1 42/4/1
f 45/1/1 46/2/1 47/3/1 48/4/1
f 49/1/1 50/2/1 51/3/1 52/4/1
f 50/1/1 53/2/1 54/3/1 51/4/1
f 53/1/1 55/2/1 56/3/1 54/4/1
f 57/1/1 58/2/1 59/3/1 60/4/1
f 58/1/1 61/2/1 62/3/1 59/4/1
f 61/1/1 63/2/1 64/3/1 62/4/1
f 63/1/1 65/2/1 66/3/1 64/4/1
f 65/1/1 67/2/1 68/3/1 66/4/1
f 67/1/1 69/2/1 70/3/1 68/4/1
f 69/1/1 71/2/1 72/3/1 70/4/1
f 73/1/1 74/2/1 75/3/1 76/4/1
f 77/1/1 78/2/1 79/3/1 80/4/1
f 81/1/1 82/2/1 83/3/1 84/4/1
f 85/1/1 86/2/1 87/3/1 88/4/1
f 89/1/1 90/2/1 91/3/1 92/4/1
f 90/1/1 93/2/1 94/3/1 91/4/1
f 93/1/1 95/2/1 96/3/1 94/4/1
f 95/1/1 97/2/1 98/3/1 96/4/1
f 99/1/1 100/2/1 101/3/1 102/4/1
f 103/1/1 104/2/1 105/3/1 106/4/1
f 104/1/1 107/2/1 108/3/1 105/4/1
f 107/1/1 109/2/1 110/3/1 108/4/1
f 109/1/1 111/2/1 112/3/1 110/4/1
f 113/1/1 114/2/1 115/3/1 116/4/1
f 117/1/1 118/2/1 119/3/1 120/4/1
f 118/1/1 121/2/1 122/3/1 119/4/1
f 121/1/1 123/2/1 124/3/1 122/4/1
f 123/1/1 125/2/1 126/3/1 124/4/1
f 125/1/1 127/2/1 128/3/1 126/4/1
f 127/1/1 129/2/1 130/3/1 128/4/1
f 129/1/1 131/2/1 132/3/1 130/4/1
f 133/1/1 134/2/1 135/3/1 136/4/1
f 134/1/1 137/2/1 138/3/1 135/4/1
f 137/1/1 139/2/1 140/3/1 138/4/1
f 141/1/1 142/2/1 143/3/1 144/4/1
f 145/1/1 146/2/1 147/3/1 148/4/1
f 149/1/1 150/2/1 151/3/1 152/4/1
f 153/1/1 154/2/1 155/3/1 156/4/1
f 157/1/1 158/2/1 159/3/1 160/4/1
f 158/1/1 161/2/1 162/3/1 159/4/1
f 161/1/1 163/2/1 164/3/1 162/4/1
f 163/1/1 165/2/1 166/3/1 164/4/1
f 167/1/1 168/2/1 169/3/1 170/4/1
f 171/1/1 172/2/1 173/3/1 174/4/1
f 172/1/1 175/2/1 176/3/1 173/4/1
f 175/1/1 177/2/1 178/3/1 176/4/1
f 177/1/1 179/2/1 180/3/1 178/4/1
f 181/1/1 182/2/1 183/3/1 184/4/1
f 185/1/1 186/2/1 187/3/1 188/4/1
f 186/1/1 189/2/1 190/3/1 187/4/1
f 189/1/1 191/2/1 192/3/1 190/4/1
f 193/1/1 194/2/1 195/3/1 196/4/1
f 194/1/1 197/2/1 198/3/1 195/4/1
f 197/1/1 199/2/1 200/3/1 198/4/1
f 199/1/1 201/2/1 202/3/1 200/4/1
f 201/1/1 203/2/1 204/3/1 202/4/1
f 203/1/1 205/2/1 206/3/1 204/4/1
f 205/1/1 207/2/1 208/3/1 206/4/1
f 209/1/1 210/2/1 211/3/1 212/4/1
f 213/1/1 214/2/1 215/3/1 216/4/1
f 214/1/1 217/2/1 218/3/1 215/4/1
f 217/1/1 219/2/1 220/3/1 218/4/1
f 219/1/1 221/2/1 222/3/1 220/4/1
f 223/1/1 224/2/1 225/3/1 226/4/1
f 224/1/1 227/2/1 228/3/1 225/4/1
f 227/1/1 229/2/1 230/3/1 228/4/1
f 229/1/1 231/2/1 232/3/1 230/4/1
f 233/1/1 234/2/1 235/3/1 236/4/1
f 237/1/1 238/2/1 239/3/1 240/4/1
f 238/1/1 241/2/1 242/3/1 239/4/1
f 241/1/1 243/2/1 244/3/1 242/4/1
f 243/1/1 245/2/1 246/3/1 244/4/1
f 245/1/1 247/2/1 248/3/1 246/4/1
f 247/1/1 249/2/1 250/3/1 248/4/1
f 249/1/1 251/2/1 252/3/1 250/4/1
f 253/1/1 254/2/1 255/3/1 256/4/1
f 254/1/1 257/2/1 258/3/1 255/4/1
f 257/1/1 259/2/1 260/3/1 258/4/1
f 261/1/1 262/2/1 263/3/1 264/4/1
f 265/1/1 266/2/1 267/3/1 268/4/1
f 269/1/1 270/2/1 271/3/1 272/4/1
f 273/1/1 274/2/1 275/3/1 276/4/1
f 277/1/1 278/2/1 279/3/1 280/4/1
f 278/1/1 281/2/1 282/3/1 279/4/1
f 281/1/1 283/2/1 284/3/1 282/4/1
f 283/1/1 285/2/1 286/3/1 284/4/1
f 287/1/1 288/2/1 289/3/1 290/4/1
f 291/1/1 292/2/1 293/3/1 294/4/1
f 292/1/1 295/2/1 296/3/1 293/4/1
f 295/1/1 297/2/1 298/3/1 296/4/1
f 297/1/1 299/2/1 300/3/1 298/4/1
f 301/1/1 302/2/1 303/3/1 304/4/1
f 305/1/1 306/2/1 307/3/1 308/4/1
f 306/1/1 309/2/1 310/3/1 307/4/1
f 309/1/1 311/2/1 312/3/1 310/4/1
f 313/1/1 314/2/1 315/3/1 316/4/1
f 314/1/1 317/2/1 318/3/1 315/4/1
f 317/1/1 319/2/1 320/3/1 318/4/1
f 319/1/1 321/2/1 322/3/1 320/4/1
f 321/1/1 323/2/1 324/3/1 322/4/1
f 323/1/1 325/2/1 326/3/1 324/4/1
f 325/1/1 327/2/1 328/3/1 326/4/1
f 329/1/1 330/2/1 331/3/1 332/4/1
f 333/1/1 334/2/1 335/3/1 336/4/1
f 337/1/1 338/2/1 339/3/1 340/4/1
f 338/1/1 341/2/1 342/3/1 339/4/1
f 341/1/1 343/2/1 344/3/1 342/4/1
f 343/1/1 345/2/1 346/3/1 344/4/1
f 347/1/1 348/2/1 349/3/1 350/4/1
f 351/1/1 352/2/1 353/3/1 354/4/1
f 352/1/1 355/2/1 356/3/1 353/4/1
f 355/1/1 357/2/1 358/3/1 356/4/1
f 357/1/1 359/2/1 360/3/1 358/4/1
f 361/1/1 362/2/1 363/3/1 364/4/1
f 365/1/1 366/2/1 367/3/1 368/4/1
f 366/1/1 369/2/1 370/3/1 367/4/1
f 369/1/1 371/2/1 372/3/1 370/4/1
f 371/1/1 373/2/1 374/3/1 372/4/1
f 373/1/1 375/2/1 376/3/1 374/4/1
f 375/1/1 377/2/1 378/3/1 376/4/1
f 377/1/1 379/2/1 380/3/1 378/4/1
f 381/1/1 382/2/1 383/3/1 384/4/1
f 382/1/1 385/2/1 386/3/1 383/4/1
f 385/1/1 387/2/1 388/3/1 386/4/1
f 389/1/1 390/2/1 391/3/1 392/4/1
f 393/1/1 394/2/1 395/3/1 396/4/1
f 397/1/1 398/2/1 399/3/1 400/4/1
f 401/1/1 402/2/1 403/3/1 404/4/1
f 405/1/1 406/2/1 407/3/1 408/4/1
f 409/1/1 410/2/1 411/3/1 412/4/1
f 410/1/1 413/2/1 414/3/1 411/4/1
f 413/1/1 415/2/1 416/3/1 414/4/1
f 415/1/1 417/2/1 418/3/1 416/4/1
f 419/1/1 420/2/1 421/3/1 422/4/1
f 423/1/1 424/2/1 425/3/1 426/4/1
f 424/1/1 427/2/1 428/3/1 425/4/1
f 427/1/1 429/2/1 430/3/1 428/4/1
f 429/1/1 431/2/1 432/3/1 430/4/1
f 433/1/1 434/2/1 435/3/1 436/4/1
f 434/1/1 437/2/1 438/3/1 435/4/1
f 437/1/1 439/2/1 440/3/1 438/4/1
f 439/1/1 441/2/1 442/3/1 440/4/1
f 441/1/1 443/2/1 444/3/1 442/4/1
f 443/1/1 445/2/1 446/3/1 444/4/1
f 445/1/1 447/2/1 448/3/1 446/4/1
f 447/1/1 449/2/1 450/3/1 448/4/1
f 449/1/1 451/2/1 452/3/1 450/4/1
f 451/1/1 453/2/1 454/3/1 452/4/1
f 453/1/1 455/2/1 456/3/1 454/4/1
f 455/1/1 457/2/1 458/3/1 456/4/1
f 457/1/1 459/2/1 460/3/1 458/4/1
f 459/1/1 461/2/1 462/3/1 460/4/1
f 461/1/1 463/2/1 464/3/1 462/4/1
f 463/1/1 465/2/1 466/3/1 464/4/1

