# Wavefront OBJ file automatically generated by Tiled2Unity

# Vertices (Count = 164)
v -96 -192 -0.6875
v -112 -192 -0.6875
v -112 -176 -0.6875
v -96 -176 -0.6875
v -128 -192 -0.6875
v -128 -176 -0.6875
v -144 -192 -0.6875
v -144 -176 -0.6875
v -48 -208 -0.75
v -64 -208 -0.75
v -64 -192 -0.75
v -48 -192 -0.75
v -80 -208 -0.75
v -80 -192 -0.75
v -96 -208 -0.75
v -96 -192 -0.75
v -112 -208 -0.75
v -112 -192 -0.75
v -128 -208 -0.75
v -128 -192 -0.75
v -144 -208 -0.75
v -144 -192 -0.75
v -848 -208 -0.75
v -864 -208 -0.75
v -864 -192 -0.75
v -848 -192 -0.75
v -880 -208 -0.75
v -880 -192 -0.75
v -896 -208 -0.75
v -896 -192 -0.75
v -912 -208 -0.75
v -912 -192 -0.75
v -928 -208 -0.75
v -928 -192 -0.75
v 0 -224 -0.8125
v -16 -224 -0.8125
v -16 -208 -0.8125
v 0 -208 -0.8125
v -32 -224 -0.8125
v -32 -208 -0.8125
v -48 -224 -0.8125
v -48 -208 -0.8125
v -64 -224 -0.8125
v -64 -208 -0.8125
v -80 -224 -0.8125
v -80 -208 -0.8125
v -96 -224 -0.8125
v -96 -208 -0.8125
v -112 -224 -0.8125
v -112 -208 -0.8125
v -128 -224 -0.8125
v -128 -208 -0.8125
v -144 -224 -0.8125
v -144 -208 -0.8125
v -160 -224 -0.8125
v -160 -208 -0.8125
v -176 -224 -0.8125
v -176 -208 -0.8125
v -192 -224 -0.8125
v -192 -208 -0.8125
v -208 -224 -0.8125
v -208 -208 -0.8125
v -224 -224 -0.8125
v -224 -208 -0.8125
v -240 -224 -0.8125
v -240 -208 -0.8125
v -256 -224 -0.8125
v -256 -208 -0.8125
v -272 -224 -0.8125
v -272 -208 -0.8125
v -288 -224 -0.8125
v -288 -208 -0.8125
v -304 -224 -0.8125
v -304 -208 -0.8125
v -320 -224 -0.8125
v -320 -208 -0.8125
v -336 -224 -0.8125
v -336 -208 -0.8125
v -352 -224 -0.8125
v -352 -208 -0.8125
v -368 -224 -0.8125
v -368 -208 -0.8125
v -384 -224 -0.8125
v -384 -208 -0.8125
v -400 -224 -0.8125
v -400 -208 -0.8125
v -416 -224 -0.8125
v -416 -208 -0.8125
v -432 -224 -0.8125
v -432 -208 -0.8125
v -448 -224 -0.8125
v -448 -208 -0.8125
v -464 -224 -0.8125
v -464 -208 -0.8125
v -480 -224 -0.8125
v -480 -208 -0.8125
v -496 -224 -0.8125
v -496 -208 -0.8125
v -512 -224 -0.8125
v -512 -208 -0.8125
v -528 -224 -0.8125
v -528 -208 -0.8125
v -544 -224 -0.8125
v -544 -208 -0.8125
v -560 -224 -0.8125
v -560 -208 -0.8125
v -576 -224 -0.8125
v -576 -208 -0.8125
v -592 -224 -0.8125
v -592 -208 -0.8125
v -608 -224 -0.8125
v -608 -208 -0.8125
v -624 -224 -0.8125
v -624 -208 -0.8125
v -640 -224 -0.8125
v -640 -208 -0.8125
v -656 -224 -0.8125
v -656 -208 -0.8125
v -672 -224 -0.8125
v -672 -208 -0.8125
v -688 -224 -0.8125
v -688 -208 -0.8125
v -704 -224 -0.8125
v -704 -208 -0.8125
v -720 -224 -0.8125
v -720 -208 -0.8125
v -736 -224 -0.8125
v -736 -208 -0.8125
v -752 -224 -0.8125
v -752 -208 -0.8125
v -768 -224 -0.8125
v -768 -208 -0.8125
v -784 -224 -0.8125
v -784 -208 -0.8125
v -800 -224 -0.8125
v -800 -208 -0.8125
v -816 -224 -0.8125
v -816 -208 -0.8125
v -832 -224 -0.8125
v -832 -208 -0.8125
v -848 -224 -0.8125
v -848 -208 -0.8125
v -864 -224 -0.8125
v -864 -208 -0.8125
v -880 -224 -0.8125
v -880 -208 -0.8125
v -896 -224 -0.8125
v -896 -208 -0.8125
v -912 -224 -0.8125
v -912 -208 -0.8125
v -928 -224 -0.8125
v -928 -208 -0.8125
v -944 -224 -0.8125
v -944 -208 -0.8125
v -960 -224 -0.8125
v -960 -208 -0.8125
v -976 -224 -0.8125
v -976 -208 -0.8125
v -992 -224 -0.8125
v -992 -208 -0.8125
v -1008 -224 -0.8125
v -1008 -208 -0.8125
v -1024 -224 -0.8125
v -1024 -208 -0.8125

# Texture cooridinates (Count = 8)
vt 1.220703E-05 0.9000122
vt 0.09998779 0.9000122
vt 0.09998779 0.9999878
vt 1.220703E-05 0.9999878
vt 0.1000122 0.9000122
vt 0.1999878 0.9000122
vt 0.1999878 0.9999878
vt 0.1000122 0.9999878

# Normal
vn 0 0 -1

# Groups (Count = 2)

g mesh_0001
f 1/1/1 2/2/1 3/3/1 4/4/1
f 2/1/1 5/2/1 6/3/1 3/4/1
f 5/1/1 7/2/1 8/3/1 6/4/1
f 9/1/1 10/2/1 11/3/1 12/4/1
f 10/1/1 13/2/1 14/3/1 11/4/1
f 13/1/1 15/2/1 16/3/1 14/4/1
f 15/1/1 17/2/1 18/3/1 16/4/1
f 17/1/1 19/2/1 20/3/1 18/4/1
f 19/1/1 21/2/1 22/3/1 20/4/1
f 23/1/1 24/2/1 25/3/1 26/4/1
f 24/1/1 27/2/1 28/3/1 25/4/1
f 27/1/1 29/2/1 30/3/1 28/4/1
f 29/1/1 31/2/1 32/3/1 30/4/1
f 31/1/1 33/2/1 34/3/1 32/4/1
f 35/1/1 36/2/1 37/3/1 38/4/1
f 36/1/1 39/2/1 40/3/1 37/4/1
f 39/1/1 41/2/1 42/3/1 40/4/1
f 41/1/1 43/2/1 44/3/1 42/4/1
f 43/1/1 45/2/1 46/3/1 44/4/1
f 45/1/1 47/2/1 48/3/1 46/4/1
f 47/1/1 49/2/1 50/3/1 48/4/1
f 49/1/1 51/2/1 52/3/1 50/4/1
f 51/1/1 53/2/1 54/3/1 52/4/1
f 53/1/1 55/2/1 56/3/1 54/4/1
f 55/1/1 57/2/1 58/3/1 56/4/1
f 57/1/1 59/2/1 60/3/1 58/4/1
f 59/1/1 61/2/1 62/3/1 60/4/1
f 61/1/1 63/2/1 64/3/1 62/4/1
f 63/1/1 65/2/1 66/3/1 64/4/1
f 65/1/1 67/2/1 68/3/1 66/4/1
f 67/1/1 69/2/1 70/3/1 68/4/1
f 69/1/1 71/2/1 72/3/1 70/4/1
f 71/1/1 73/2/1 74/3/1 72/4/1
f 73/1/1 75/2/1 76/3/1 74/4/1
f 75/1/1 77/2/1 78/3/1 76/4/1
f 77/1/1 79/2/1 80/3/1 78/4/1
f 79/1/1 81/2/1 82/3/1 80/4/1
f 81/1/1 83/2/1 84/3/1 82/4/1
f 83/1/1 85/2/1 86/3/1 84/4/1
f 85/1/1 87/2/1 88/3/1 86/4/1
f 87/1/1 89/2/1 90/3/1 88/4/1
f 89/1/1 91/2/1 92/3/1 90/4/1
f 91/1/1 93/2/1 94/3/1 92/4/1
f 93/1/1 95/2/1 96/3/1 94/4/1
f 95/1/1 97/2/1 98/3/1 96/4/1
f 97/1/1 99/2/1 100/3/1 98/4/1
f 99/1/1 101/2/1 102/3/1 100/4/1
f 101/1/1 103/2/1 104/3/1 102/4/1
f 103/1/1 105/2/1 106/3/1 104/4/1
f 105/1/1 107/2/1 108/3/1 106/4/1
f 107/1/1 109/2/1 110/3/1 108/4/1
f 109/1/1 111/2/1 112/3/1 110/4/1
f 111/1/1 113/2/1 114/3/1 112/4/1
f 113/1/1 115/2/1 116/3/1 114/4/1
f 115/1/1 117/2/1 118/3/1 116/4/1
f 117/1/1 119/2/1 120/3/1 118/4/1
f 119/1/1 121/2/1 122/3/1 120/4/1
f 121/1/1 123/2/1 124/3/1 122/4/1
f 123/1/1 125/2/1 126/3/1 124/4/1
f 125/1/1 127/2/1 128/3/1 126/4/1
f 127/1/1 129/2/1 130/3/1 128/4/1
f 129/1/1 131/2/1 132/3/1 130/4/1
f 131/1/1 133/2/1 134/3/1 132/4/1
f 133/1/1 135/2/1 136/3/1 134/4/1
f 135/1/1 137/2/1 138/3/1 136/4/1
f 137/1/1 139/2/1 140/3/1 138/4/1
f 139/1/1 141/2/1 142/3/1 140/4/1
f 141/1/1 143/2/1 144/3/1 142/4/1
f 143/1/1 145/2/1 146/3/1 144/4/1
f 145/1/1 147/2/1 148/3/1 146/4/1
f 147/1/1 149/2/1 150/3/1 148/4/1
f 149/1/1 151/2/1 152/3/1 150/4/1
f 151/1/1 153/2/1 154/3/1 152/4/1
f 153/1/1 155/2/1 156/3/1 154/4/1
f 155/1/1 157/2/1 158/3/1 156/4/1
f 157/1/1 159/2/1 160/3/1 158/4/1
f 159/1/1 161/2/1 162/3/1 160/4/1
f 161/1/1 163/2/1 164/3/1 162/4/1

g mesh_0002
f 1/5/1 2/6/1 3/7/1 4/8/1
f 2/5/1 5/6/1 6/7/1 3/8/1
f 5/5/1 7/6/1 8/7/1 6/8/1
f 9/5/1 10/6/1 11/7/1 12/8/1
f 10/5/1 13/6/1 14/7/1 11/8/1
f 13/5/1 15/6/1 16/7/1 14/8/1
f 15/5/1 17/6/1 18/7/1 16/8/1
f 17/5/1 19/6/1 20/7/1 18/8/1
f 19/5/1 21/6/1 22/7/1 20/8/1
f 23/5/1 24/6/1 25/7/1 26/8/1
f 24/5/1 27/6/1 28/7/1 25/8/1
f 27/5/1 29/6/1 30/7/1 28/8/1
f 29/5/1 31/6/1 32/7/1 30/8/1
f 31/5/1 33/6/1 34/7/1 32/8/1
f 35/5/1 36/6/1 37/7/1 38/8/1
f 36/5/1 39/6/1 40/7/1 37/8/1
f 39/5/1 41/6/1 42/7/1 40/8/1
f 41/5/1 43/6/1 44/7/1 42/8/1
f 43/5/1 45/6/1 46/7/1 44/8/1
f 45/5/1 47/6/1 48/7/1 46/8/1
f 47/5/1 49/6/1 50/7/1 48/8/1
f 49/5/1 51/6/1 52/7/1 50/8/1
f 51/5/1 53/6/1 54/7/1 52/8/1
f 53/5/1 55/6/1 56/7/1 54/8/1
f 55/5/1 57/6/1 58/7/1 56/8/1
f 57/5/1 59/6/1 60/7/1 58/8/1
f 59/5/1 61/6/1 62/7/1 60/8/1
f 61/5/1 63/6/1 64/7/1 62/8/1
f 63/5/1 65/6/1 66/7/1 64/8/1
f 65/5/1 67/6/1 68/7/1 66/8/1
f 67/5/1 69/6/1 70/7/1 68/8/1
f 69/5/1 71/6/1 72/7/1 70/8/1
f 71/5/1 73/6/1 74/7/1 72/8/1
f 73/5/1 75/6/1 76/7/1 74/8/1
f 75/5/1 77/6/1 78/7/1 76/8/1
f 77/5/1 79/6/1 80/7/1 78/8/1
f 79/5/1 81/6/1 82/7/1 80/8/1
f 81/5/1 83/6/1 84/7/1 82/8/1
f 83/5/1 85/6/1 86/7/1 84/8/1
f 85/5/1 87/6/1 88/7/1 86/8/1
f 87/5/1 89/6/1 90/7/1 88/8/1
f 89/5/1 91/6/1 92/7/1 90/8/1
f 91/5/1 93/6/1 94/7/1 92/8/1
f 93/5/1 95/6/1 96/7/1 94/8/1
f 95/5/1 97/6/1 98/7/1 96/8/1
f 97/5/1 99/6/1 100/7/1 98/8/1
f 99/5/1 101/6/1 102/7/1 100/8/1
f 101/5/1 103/6/1 104/7/1 102/8/1
f 103/5/1 105/6/1 106/7/1 104/8/1
f 105/5/1 107/6/1 108/7/1 106/8/1
f 107/5/1 109/6/1 110/7/1 108/8/1
f 109/5/1 111/6/1 112/7/1 110/8/1
f 111/5/1 113/6/1 114/7/1 112/8/1
f 113/5/1 115/6/1 116/7/1 114/8/1
f 115/5/1 117/6/1 118/7/1 116/8/1
f 117/5/1 119/6/1 120/7/1 118/8/1
f 119/5/1 121/6/1 122/7/1 120/8/1
f 121/5/1 123/6/1 124/7/1 122/8/1
f 123/5/1 125/6/1 126/7/1 124/8/1
f 125/5/1 127/6/1 128/7/1 126/8/1
f 127/5/1 129/6/1 130/7/1 128/8/1
f 129/5/1 131/6/1 132/7/1 130/8/1
f 131/5/1 133/6/1 134/7/1 132/8/1
f 133/5/1 135/6/1 136/7/1 134/8/1
f 135/5/1 137/6/1 138/7/1 136/8/1
f 137/5/1 139/6/1 140/7/1 138/8/1
f 139/5/1 141/6/1 142/7/1 140/8/1
f 141/5/1 143/6/1 144/7/1 142/8/1
f 143/5/1 145/6/1 146/7/1 144/8/1
f 145/5/1 147/6/1 148/7/1 146/8/1
f 147/5/1 149/6/1 150/7/1 148/8/1
f 149/5/1 151/6/1 152/7/1 150/8/1
f 151/5/1 153/6/1 154/7/1 152/8/1
f 153/5/1 155/6/1 156/7/1 154/8/1
f 155/5/1 157/6/1 158/7/1 156/8/1
f 157/5/1 159/6/1 160/7/1 158/8/1
f 159/5/1 161/6/1 162/7/1 160/8/1
f 161/5/1 163/6/1 164/7/1 162/8/1

