# Wavefront OBJ file automatically generated by Tiled2Unity

# Vertices (Count = 66)
v -176 -448 -0.84375
v -192 -448 -0.84375
v -192 -432 -0.84375
v -176 -432 -0.84375
v -208 -448 -0.84375
v -208 -432 -0.84375
v -224 -448 -0.84375
v -224 -432 -0.84375
v -240 -448 -0.84375
v -240 -432 -0.84375
v -256 -448 -0.84375
v -256 -432 -0.84375
v -176 -464 -0.875
v -192 -464 -0.875
v -192 -448 -0.875
v -176 -448 -0.875
v -240 -464 -0.875
v -256 -464 -0.875
v -256 -448 -0.875
v -240 -448 -0.875
v -240 -480 -0.90625
v -256 -480 -0.90625
v -256 -464 -0.90625
v -240 -464 -0.90625
v 0 -496 -0.9375
v -16 -496 -0.9375
v -16 -480 -0.9375
v 0 -480 -0.9375
v -240 -496 -0.9375
v -256 -496 -0.9375
v -256 -480 -0.9375
v -240 -480 -0.9375
v 0 -512 -0.96875
v -16 -512 -0.96875
v -16 -496 -0.96875
v 0 -496 -0.96875
v -32 -512 -0.96875
v -32 -496 -0.96875
v -48 -512 -0.96875
v -48 -496 -0.96875
v -64 -512 -0.96875
v -64 -496 -0.96875
v -80 -512 -0.96875
v -80 -496 -0.96875
v -96 -512 -0.96875
v -96 -496 -0.96875
v -112 -512 -0.96875
v -112 -496 -0.96875
v -128 -512 -0.96875
v -128 -496 -0.96875
v -144 -512 -0.96875
v -144 -496 -0.96875
v -160 -512 -0.96875
v -160 -496 -0.96875
v -176 -512 -0.96875
v -176 -496 -0.96875
v -192 -512 -0.96875
v -192 -496 -0.96875
v -208 -512 -0.96875
v -208 -496 -0.96875
v -224 -512 -0.96875
v -224 -496 -0.96875
v -240 -512 -0.96875
v -240 -496 -0.96875
v -256 -512 -0.96875
v -256 -496 -0.96875

# Texture cooridinates (Count = 8)
vt 1.220703E-05 0.9000122
vt 0.09998779 0.9000122
vt 0.09998779 0.9999878
vt 1.220703E-05 0.9999878
vt 0.1000122 0.9000122
vt 0.1999878 0.9000122
vt 0.1999878 0.9999878
vt 0.1000122 0.9999878

# Normal
vn 0 0 -1

# Groups (Count = 2)

g mesh_0001
f 1/1/1 2/2/1 3/3/1 4/4/1
f 2/1/1 5/2/1 6/3/1 3/4/1
f 5/1/1 7/2/1 8/3/1 6/4/1
f 7/1/1 9/2/1 10/3/1 8/4/1
f 9/1/1 11/2/1 12/3/1 10/4/1
f 13/1/1 14/2/1 15/3/1 16/4/1
f 17/1/1 18/2/1 19/3/1 20/4/1
f 21/1/1 22/2/1 23/3/1 24/4/1
f 25/1/1 26/2/1 27/3/1 28/4/1
f 29/1/1 30/2/1 31/3/1 32/4/1
f 33/1/1 34/2/1 35/3/1 36/4/1
f 34/1/1 37/2/1 38/3/1 35/4/1
f 37/1/1 39/2/1 40/3/1 38/4/1
f 39/1/1 41/2/1 42/3/1 40/4/1
f 41/1/1 43/2/1 44/3/1 42/4/1
f 43/1/1 45/2/1 46/3/1 44/4/1
f 45/1/1 47/2/1 48/3/1 46/4/1
f 47/1/1 49/2/1 50/3/1 48/4/1
f 49/1/1 51/2/1 52/3/1 50/4/1
f 51/1/1 53/2/1 54/3/1 52/4/1
f 53/1/1 55/2/1 56/3/1 54/4/1
f 55/1/1 57/2/1 58/3/1 56/4/1
f 57/1/1 59/2/1 60/3/1 58/4/1
f 59/1/1 61/2/1 62/3/1 60/4/1
f 61/1/1 63/2/1 64/3/1 62/4/1
f 63/1/1 65/2/1 66/3/1 64/4/1

g mesh_0002
f 1/5/1 2/6/1 3/7/1 4/8/1
f 2/5/1 5/6/1 6/7/1 3/8/1
f 5/5/1 7/6/1 8/7/1 6/8/1
f 7/5/1 9/6/1 10/7/1 8/8/1
f 9/5/1 11/6/1 12/7/1 10/8/1
f 13/5/1 14/6/1 15/7/1 16/8/1
f 17/5/1 18/6/1 19/7/1 20/8/1
f 21/5/1 22/6/1 23/7/1 24/8/1
f 25/5/1 26/6/1 27/7/1 28/8/1
f 29/5/1 30/6/1 31/7/1 32/8/1
f 33/5/1 34/6/1 35/7/1 36/8/1
f 34/5/1 37/6/1 38/7/1 35/8/1
f 37/5/1 39/6/1 40/7/1 38/8/1
f 39/5/1 41/6/1 42/7/1 40/8/1
f 41/5/1 43/6/1 44/7/1 42/8/1
f 43/5/1 45/6/1 46/7/1 44/8/1
f 45/5/1 47/6/1 48/7/1 46/8/1
f 47/5/1 49/6/1 50/7/1 48/8/1
f 49/5/1 51/6/1 52/7/1 50/8/1
f 51/5/1 53/6/1 54/7/1 52/8/1
f 53/5/1 55/6/1 56/7/1 54/8/1
f 55/5/1 57/6/1 58/7/1 56/8/1
f 57/5/1 59/6/1 60/7/1 58/8/1
f 59/5/1 61/6/1 62/7/1 60/8/1
f 61/5/1 63/6/1 64/7/1 62/8/1
f 63/5/1 65/6/1 66/7/1 64/8/1

