# Wavefront OBJ file automatically generated by Tiled2Unity

# Vertices (Count = 210)
v 0 -144 -0.8
v -16 -144 -0.8
v -16 -128 -0.8
v 0 -128 -0.8
v -1584 -144 -0.8
v -1600 -144 -0.8
v -1600 -128 -0.8
v -1584 -128 -0.8
v 0 -160 -0.9
v -16 -160 -0.9
v -16 -144 -0.9
v 0 -144 -0.9
v -32 -160 -0.9
v -32 -144 -0.9
v -48 -160 -0.9
v -48 -144 -0.9
v -64 -160 -0.9
v -64 -144 -0.9
v -80 -160 -0.9
v -80 -144 -0.9
v -96 -160 -0.9
v -96 -144 -0.9
v -112 -160 -0.9
v -112 -144 -0.9
v -128 -160 -0.9
v -128 -144 -0.9
v -144 -160 -0.9
v -144 -144 -0.9
v -160 -160 -0.9
v -160 -144 -0.9
v -176 -160 -0.9
v -176 -144 -0.9
v -192 -160 -0.9
v -192 -144 -0.9
v -208 -160 -0.9
v -208 -144 -0.9
v -224 -160 -0.9
v -224 -144 -0.9
v -240 -160 -0.9
v -240 -144 -0.9
v -256 -160 -0.9
v -256 -144 -0.9
v -272 -160 -0.9
v -272 -144 -0.9
v -288 -160 -0.9
v -288 -144 -0.9
v -304 -160 -0.9
v -304 -144 -0.9
v -320 -160 -0.9
v -320 -144 -0.9
v -336 -160 -0.9
v -336 -144 -0.9
v -352 -160 -0.9
v -352 -144 -0.9
v -368 -160 -0.9
v -368 -144 -0.9
v -384 -160 -0.9
v -384 -144 -0.9
v -400 -160 -0.9
v -400 -144 -0.9
v -416 -160 -0.9
v -416 -144 -0.9
v -432 -160 -0.9
v -432 -144 -0.9
v -448 -160 -0.9
v -448 -144 -0.9
v -464 -160 -0.9
v -464 -144 -0.9
v -480 -160 -0.9
v -480 -144 -0.9
v -496 -160 -0.9
v -496 -144 -0.9
v -512 -160 -0.9
v -512 -144 -0.9
v -528 -160 -0.9
v -528 -144 -0.9
v -544 -160 -0.9
v -544 -144 -0.9
v -560 -160 -0.9
v -560 -144 -0.9
v -576 -160 -0.9
v -576 -144 -0.9
v -592 -160 -0.9
v -592 -144 -0.9
v -608 -160 -0.9
v -608 -144 -0.9
v -624 -160 -0.9
v -624 -144 -0.9
v -640 -160 -0.9
v -640 -144 -0.9
v -656 -160 -0.9
v -656 -144 -0.9
v -672 -160 -0.9
v -672 -144 -0.9
v -688 -160 -0.9
v -688 -144 -0.9
v -704 -160 -0.9
v -704 -144 -0.9
v -720 -160 -0.9
v -720 -144 -0.9
v -736 -160 -0.9
v -736 -144 -0.9
v -752 -160 -0.9
v -752 -144 -0.9
v -768 -160 -0.9
v -768 -144 -0.9
v -784 -160 -0.9
v -784 -144 -0.9
v -800 -160 -0.9
v -800 -144 -0.9
v -816 -160 -0.9
v -816 -144 -0.9
v -832 -160 -0.9
v -832 -144 -0.9
v -848 -160 -0.9
v -848 -144 -0.9
v -864 -160 -0.9
v -864 -144 -0.9
v -880 -160 -0.9
v -880 -144 -0.9
v -896 -160 -0.9
v -896 -144 -0.9
v -912 -160 -0.9
v -912 -144 -0.9
v -928 -160 -0.9
v -928 -144 -0.9
v -944 -160 -0.9
v -944 -144 -0.9
v -960 -160 -0.9
v -960 -144 -0.9
v -976 -160 -0.9
v -976 -144 -0.9
v -992 -160 -0.9
v -992 -144 -0.9
v -1008 -160 -0.9
v -1008 -144 -0.9
v -1024 -160 -0.9
v -1024 -144 -0.9
v -1040 -160 -0.9
v -1040 -144 -0.9
v -1056 -160 -0.9
v -1056 -144 -0.9
v -1072 -160 -0.9
v -1072 -144 -0.9
v -1088 -160 -0.9
v -1088 -144 -0.9
v -1104 -160 -0.9
v -1104 -144 -0.9
v -1120 -160 -0.9
v -1120 -144 -0.9
v -1136 -160 -0.9
v -1136 -144 -0.9
v -1152 -160 -0.9
v -1152 -144 -0.9
v -1168 -160 -0.9
v -1168 -144 -0.9
v -1184 -160 -0.9
v -1184 -144 -0.9
v -1200 -160 -0.9
v -1200 -144 -0.9
v -1216 -160 -0.9
v -1216 -144 -0.9
v -1232 -160 -0.9
v -1232 -144 -0.9
v -1248 -160 -0.9
v -1248 -144 -0.9
v -1264 -160 -0.9
v -1264 -144 -0.9
v -1280 -160 -0.9
v -1280 -144 -0.9
v -1296 -160 -0.9
v -1296 -144 -0.9
v -1312 -160 -0.9
v -1312 -144 -0.9
v -1328 -160 -0.9
v -1328 -144 -0.9
v -1344 -160 -0.9
v -1344 -144 -0.9
v -1360 -160 -0.9
v -1360 -144 -0.9
v -1376 -160 -0.9
v -1376 -144 -0.9
v -1392 -160 -0.9
v -1392 -144 -0.9
v -1408 -160 -0.9
v -1408 -144 -0.9
v -1424 -160 -0.9
v -1424 -144 -0.9
v -1440 -160 -0.9
v -1440 -144 -0.9
v -1456 -160 -0.9
v -1456 -144 -0.9
v -1472 -160 -0.9
v -1472 -144 -0.9
v -1488 -160 -0.9
v -1488 -144 -0.9
v -1504 -160 -0.9
v -1504 -144 -0.9
v -1520 -160 -0.9
v -1520 -144 -0.9
v -1536 -160 -0.9
v -1536 -144 -0.9
v -1552 -160 -0.9
v -1552 -144 -0.9
v -1568 -160 -0.9
v -1568 -144 -0.9
v -1584 -160 -0.9
v -1584 -144 -0.9
v -1600 -160 -0.9
v -1600 -144 -0.9

# Texture cooridinates (Count = 8)
vt 1.220703E-05 0.9000122
vt 0.09998779 0.9000122
vt 0.09998779 0.9999878
vt 1.220703E-05 0.9999878
vt 0.1000122 0.9000122
vt 0.1999878 0.9000122
vt 0.1999878 0.9999878
vt 0.1000122 0.9999878

# Normal
vn 0 0 -1

# Groups (Count = 2)

g mesh_0001
f 1/1/1 2/2/1 3/3/1 4/4/1
f 5/1/1 6/2/1 7/3/1 8/4/1
f 9/1/1 10/2/1 11/3/1 12/4/1
f 10/1/1 13/2/1 14/3/1 11/4/1
f 13/1/1 15/2/1 16/3/1 14/4/1
f 15/1/1 17/2/1 18/3/1 16/4/1
f 17/1/1 19/2/1 20/3/1 18/4/1
f 19/1/1 21/2/1 22/3/1 20/4/1
f 21/1/1 23/2/1 24/3/1 22/4/1
f 23/1/1 25/2/1 26/3/1 24/4/1
f 25/1/1 27/2/1 28/3/1 26/4/1
f 27/1/1 29/2/1 30/3/1 28/4/1
f 29/1/1 31/2/1 32/3/1 30/4/1
f 31/1/1 33/2/1 34/3/1 32/4/1
f 33/1/1 35/2/1 36/3/1 34/4/1
f 35/1/1 37/2/1 38/3/1 36/4/1
f 37/1/1 39/2/1 40/3/1 38/4/1
f 39/1/1 41/2/1 42/3/1 40/4/1
f 41/1/1 43/2/1 44/3/1 42/4/1
f 43/1/1 45/2/1 46/3/1 44/4/1
f 45/1/1 47/2/1 48/3/1 46/4/1
f 47/1/1 49/2/1 50/3/1 48/4/1
f 49/1/1 51/2/1 52/3/1 50/4/1
f 51/1/1 53/2/1 54/3/1 52/4/1
f 53/1/1 55/2/1 56/3/1 54/4/1
f 55/1/1 57/2/1 58/3/1 56/4/1
f 57/1/1 59/2/1 60/3/1 58/4/1
f 59/1/1 61/2/1 62/3/1 60/4/1
f 61/1/1 63/2/1 64/3/1 62/4/1
f 63/1/1 65/2/1 66/3/1 64/4/1
f 65/1/1 67/2/1 68/3/1 66/4/1
f 67/1/1 69/2/1 70/3/1 68/4/1
f 69/1/1 71/2/1 72/3/1 70/4/1
f 71/1/1 73/2/1 74/3/1 72/4/1
f 73/1/1 75/2/1 76/3/1 74/4/1
f 75/1/1 77/2/1 78/3/1 76/4/1
f 77/1/1 79/2/1 80/3/1 78/4/1
f 79/1/1 81/2/1 82/3/1 80/4/1
f 81/1/1 83/2/1 84/3/1 82/4/1
f 83/1/1 85/2/1 86/3/1 84/4/1
f 85/1/1 87/2/1 88/3/1 86/4/1
f 87/1/1 89/2/1 90/3/1 88/4/1
f 89/1/1 91/2/1 92/3/1 90/4/1
f 91/1/1 93/2/1 94/3/1 92/4/1
f 93/1/1 95/2/1 96/3/1 94/4/1
f 95/1/1 97/2/1 98/3/1 96/4/1
f 97/1/1 99/2/1 100/3/1 98/4/1
f 99/1/1 101/2/1 102/3/1 100/4/1
f 101/1/1 103/2/1 104/3/1 102/4/1
f 103/1/1 105/2/1 106/3/1 104/4/1
f 105/1/1 107/2/1 108/3/1 106/4/1
f 107/1/1 109/2/1 110/3/1 108/4/1
f 109/1/1 111/2/1 112/3/1 110/4/1
f 111/1/1 113/2/1 114/3/1 112/4/1
f 113/1/1 115/2/1 116/3/1 114/4/1
f 115/1/1 117/2/1 118/3/1 116/4/1
f 117/1/1 119/2/1 120/3/1 118/4/1
f 119/1/1 121/2/1 122/3/1 120/4/1
f 121/1/1 123/2/1 124/3/1 122/4/1
f 123/1/1 125/2/1 126/3/1 124/4/1
f 125/1/1 127/2/1 128/3/1 126/4/1
f 127/1/1 129/2/1 130/3/1 128/4/1
f 129/1/1 131/2/1 132/3/1 130/4/1
f 131/1/1 133/2/1 134/3/1 132/4/1
f 133/1/1 135/2/1 136/3/1 134/4/1
f 135/1/1 137/2/1 138/3/1 136/4/1
f 137/1/1 139/2/1 140/3/1 138/4/1
f 139/1/1 141/2/1 142/3/1 140/4/1
f 141/1/1 143/2/1 144/3/1 142/4/1
f 143/1/1 145/2/1 146/3/1 144/4/1
f 145/1/1 147/2/1 148/3/1 146/4/1
f 147/1/1 149/2/1 150/3/1 148/4/1
f 149/1/1 151/2/1 152/3/1 150/4/1
f 151/1/1 153/2/1 154/3/1 152/4/1
f 153/1/1 155/2/1 156/3/1 154/4/1
f 155/1/1 157/2/1 158/3/1 156/4/1
f 157/1/1 159/2/1 160/3/1 158/4/1
f 159/1/1 161/2/1 162/3/1 160/4/1
f 161/1/1 163/2/1 164/3/1 162/4/1
f 163/1/1 165/2/1 166/3/1 164/4/1
f 165/1/1 167/2/1 168/3/1 166/4/1
f 167/1/1 169/2/1 170/3/1 168/4/1
f 169/1/1 171/2/1 172/3/1 170/4/1
f 171/1/1 173/2/1 174/3/1 172/4/1
f 173/1/1 175/2/1 176/3/1 174/4/1
f 175/1/1 177/2/1 178/3/1 176/4/1
f 177/1/1 179/2/1 180/3/1 178/4/1
f 179/1/1 181/2/1 182/3/1 180/4/1
f 181/1/1 183/2/1 184/3/1 182/4/1
f 183/1/1 185/2/1 186/3/1 184/4/1
f 185/1/1 187/2/1 188/3/1 186/4/1
f 187/1/1 189/2/1 190/3/1 188/4/1
f 189/1/1 191/2/1 192/3/1 190/4/1
f 191/1/1 193/2/1 194/3/1 192/4/1
f 193/1/1 195/2/1 196/3/1 194/4/1
f 195/1/1 197/2/1 198/3/1 196/4/1
f 197/1/1 199/2/1 200/3/1 198/4/1
f 199/1/1 201/2/1 202/3/1 200/4/1
f 201/1/1 203/2/1 204/3/1 202/4/1
f 203/1/1 205/2/1 206/3/1 204/4/1
f 205/1/1 207/2/1 208/3/1 206/4/1
f 207/1/1 209/2/1 210/3/1 208/4/1

g mesh_0002
f 1/5/1 2/6/1 3/7/1 4/8/1
f 5/5/1 6/6/1 7/7/1 8/8/1
f 9/5/1 10/6/1 11/7/1 12/8/1
f 10/5/1 13/6/1 14/7/1 11/8/1
f 13/5/1 15/6/1 16/7/1 14/8/1
f 15/5/1 17/6/1 18/7/1 16/8/1
f 17/5/1 19/6/1 20/7/1 18/8/1
f 19/5/1 21/6/1 22/7/1 20/8/1
f 21/5/1 23/6/1 24/7/1 22/8/1
f 23/5/1 25/6/1 26/7/1 24/8/1
f 25/5/1 27/6/1 28/7/1 26/8/1
f 27/5/1 29/6/1 30/7/1 28/8/1
f 29/5/1 31/6/1 32/7/1 30/8/1
f 31/5/1 33/6/1 34/7/1 32/8/1
f 33/5/1 35/6/1 36/7/1 34/8/1
f 35/5/1 37/6/1 38/7/1 36/8/1
f 37/5/1 39/6/1 40/7/1 38/8/1
f 39/5/1 41/6/1 42/7/1 40/8/1
f 41/5/1 43/6/1 44/7/1 42/8/1
f 43/5/1 45/6/1 46/7/1 44/8/1
f 45/5/1 47/6/1 48/7/1 46/8/1
f 47/5/1 49/6/1 50/7/1 48/8/1
f 49/5/1 51/6/1 52/7/1 50/8/1
f 51/5/1 53/6/1 54/7/1 52/8/1
f 53/5/1 55/6/1 56/7/1 54/8/1
f 55/5/1 57/6/1 58/7/1 56/8/1
f 57/5/1 59/6/1 60/7/1 58/8/1
f 59/5/1 61/6/1 62/7/1 60/8/1
f 61/5/1 63/6/1 64/7/1 62/8/1
f 63/5/1 65/6/1 66/7/1 64/8/1
f 65/5/1 67/6/1 68/7/1 66/8/1
f 67/5/1 69/6/1 70/7/1 68/8/1
f 69/5/1 71/6/1 72/7/1 70/8/1
f 71/5/1 73/6/1 74/7/1 72/8/1
f 73/5/1 75/6/1 76/7/1 74/8/1
f 75/5/1 77/6/1 78/7/1 76/8/1
f 77/5/1 79/6/1 80/7/1 78/8/1
f 79/5/1 81/6/1 82/7/1 80/8/1
f 81/5/1 83/6/1 84/7/1 82/8/1
f 83/5/1 85/6/1 86/7/1 84/8/1
f 85/5/1 87/6/1 88/7/1 86/8/1
f 87/5/1 89/6/1 90/7/1 88/8/1
f 89/5/1 91/6/1 92/7/1 90/8/1
f 91/5/1 93/6/1 94/7/1 92/8/1
f 93/5/1 95/6/1 96/7/1 94/8/1
f 95/5/1 97/6/1 98/7/1 96/8/1
f 97/5/1 99/6/1 100/7/1 98/8/1
f 99/5/1 101/6/1 102/7/1 100/8/1
f 101/5/1 103/6/1 104/7/1 102/8/1
f 103/5/1 105/6/1 106/7/1 104/8/1
f 105/5/1 107/6/1 108/7/1 106/8/1
f 107/5/1 109/6/1 110/7/1 108/8/1
f 109/5/1 111/6/1 112/7/1 110/8/1
f 111/5/1 113/6/1 114/7/1 112/8/1
f 113/5/1 115/6/1 116/7/1 114/8/1
f 115/5/1 117/6/1 118/7/1 116/8/1
f 117/5/1 119/6/1 120/7/1 118/8/1
f 119/5/1 121/6/1 122/7/1 120/8/1
f 121/5/1 123/6/1 124/7/1 122/8/1
f 123/5/1 125/6/1 126/7/1 124/8/1
f 125/5/1 127/6/1 128/7/1 126/8/1
f 127/5/1 129/6/1 130/7/1 128/8/1
f 129/5/1 131/6/1 132/7/1 130/8/1
f 131/5/1 133/6/1 134/7/1 132/8/1
f 133/5/1 135/6/1 136/7/1 134/8/1
f 135/5/1 137/6/1 138/7/1 136/8/1
f 137/5/1 139/6/1 140/7/1 138/8/1
f 139/5/1 141/6/1 142/7/1 140/8/1
f 141/5/1 143/6/1 144/7/1 142/8/1
f 143/5/1 145/6/1 146/7/1 144/8/1
f 145/5/1 147/6/1 148/7/1 146/8/1
f 147/5/1 149/6/1 150/7/1 148/8/1
f 149/5/1 151/6/1 152/7/1 150/8/1
f 151/5/1 153/6/1 154/7/1 152/8/1
f 153/5/1 155/6/1 156/7/1 154/8/1
f 155/5/1 157/6/1 158/7/1 156/8/1
f 157/5/1 159/6/1 160/7/1 158/8/1
f 159/5/1 161/6/1 162/7/1 160/8/1
f 161/5/1 163/6/1 164/7/1 162/8/1
f 163/5/1 165/6/1 166/7/1 164/8/1
f 165/5/1 167/6/1 168/7/1 166/8/1
f 167/5/1 169/6/1 170/7/1 168/8/1
f 169/5/1 171/6/1 172/7/1 170/8/1
f 171/5/1 173/6/1 174/7/1 172/8/1
f 173/5/1 175/6/1 176/7/1 174/8/1
f 175/5/1 177/6/1 178/7/1 176/8/1
f 177/5/1 179/6/1 180/7/1 178/8/1
f 179/5/1 181/6/1 182/7/1 180/8/1
f 181/5/1 183/6/1 184/7/1 182/8/1
f 183/5/1 185/6/1 186/7/1 184/8/1
f 185/5/1 187/6/1 188/7/1 186/8/1
f 187/5/1 189/6/1 190/7/1 188/8/1
f 189/5/1 191/6/1 192/7/1 190/8/1
f 191/5/1 193/6/1 194/7/1 192/8/1
f 193/5/1 195/6/1 196/7/1 194/8/1
f 195/5/1 197/6/1 198/7/1 196/8/1
f 197/5/1 199/6/1 200/7/1 198/8/1
f 199/5/1 201/6/1 202/7/1 200/8/1
f 201/5/1 203/6/1 204/7/1 202/8/1
f 203/5/1 205/6/1 206/7/1 204/8/1
f 205/5/1 207/6/1 208/7/1 206/8/1
f 207/5/1 209/6/1 210/7/1 208/8/1

