# Wavefront OBJ file automatically generated by Tiled2Unity

# Vertices (Count = 132)
v 0 -912 -0.9032258
v -16 -912 -0.9032258
v -16 -896 -0.9032258
v 0 -896 -0.9032258
v -144 -912 -0.9032258
v -160 -912 -0.9032258
v -160 -896 -0.9032258
v -144 -896 -0.9032258
v -176 -912 -0.9032258
v -176 -896 -0.9032258
v -192 -912 -0.9032258
v -192 -896 -0.9032258
v -208 -912 -0.9032258
v -208 -896 -0.9032258
v -240 -912 -0.9032258
v -256 -912 -0.9032258
v -256 -896 -0.9032258
v -240 -896 -0.9032258
v 0 -928 -0.9193549
v -16 -928 -0.9193549
v -16 -912 -0.9193549
v 0 -912 -0.9193549
v -64 -928 -0.9193549
v -80 -928 -0.9193549
v -80 -912 -0.9193549
v -64 -912 -0.9193549
v -96 -928 -0.9193549
v -96 -912 -0.9193549
v -112 -928 -0.9193549
v -112 -912 -0.9193549
v -128 -928 -0.9193549
v -128 -912 -0.9193549
v -240 -928 -0.9193549
v -256 -928 -0.9193549
v -256 -912 -0.9193549
v -240 -912 -0.9193549
v 0 -944 -0.9354839
v -16 -944 -0.9354839
v -16 -928 -0.9354839
v 0 -928 -0.9354839
v -32 -944 -0.9354839
v -32 -928 -0.9354839
v -224 -944 -0.9354839
v -240 -944 -0.9354839
v -240 -928 -0.9354839
v -224 -928 -0.9354839
v -256 -944 -0.9354839
v -256 -928 -0.9354839
v 0 -960 -0.9516129
v -16 -960 -0.9516129
v -16 -944 -0.9516129
v 0 -944 -0.9516129
v -32 -960 -0.9516129
v -32 -944 -0.9516129
v -48 -960 -0.9516129
v -48 -944 -0.9516129
v -208 -960 -0.9516129
v -224 -960 -0.9516129
v -224 -944 -0.9516129
v -208 -944 -0.9516129
v -240 -960 -0.9516129
v -240 -944 -0.9516129
v -256 -960 -0.9516129
v -256 -944 -0.9516129
v 0 -976 -0.9677419
v -16 -976 -0.9677419
v -16 -960 -0.9677419
v 0 -960 -0.9677419
v -32 -976 -0.9677419
v -32 -960 -0.9677419
v -48 -976 -0.9677419
v -48 -960 -0.9677419
v -64 -976 -0.9677419
v -64 -960 -0.9677419
v -80 -976 -0.9677419
v -80 -960 -0.9677419
v -96 -976 -0.9677419
v -96 -960 -0.9677419
v -112 -976 -0.9677419
v -112 -960 -0.9677419
v -128 -976 -0.9677419
v -128 -960 -0.9677419
v -144 -976 -0.9677419
v -144 -960 -0.9677419
v -160 -976 -0.9677419
v -160 -960 -0.9677419
v -176 -976 -0.9677419
v -176 -960 -0.9677419
v -192 -976 -0.9677419
v -192 -960 -0.9677419
v -208 -976 -0.9677419
v -208 -960 -0.9677419
v -224 -976 -0.9677419
v -224 -960 -0.9677419
v -240 -976 -0.9677419
v -240 -960 -0.9677419
v -256 -976 -0.9677419
v -256 -960 -0.9677419
v 0 -992 -0.983871
v -16 -992 -0.983871
v -16 -976 -0.983871
v 0 -976 -0.983871
v -32 -992 -0.983871
v -32 -976 -0.983871
v -48 -992 -0.983871
v -48 -976 -0.983871
v -64 -992 -0.983871
v -64 -976 -0.983871
v -80 -992 -0.983871
v -80 -976 -0.983871
v -96 -992 -0.983871
v -96 -976 -0.983871
v -112 -992 -0.983871
v -112 -976 -0.983871
v -128 -992 -0.983871
v -128 -976 -0.983871
v -144 -992 -0.983871
v -144 -976 -0.983871
v -160 -992 -0.983871
v -160 -976 -0.983871
v -176 -992 -0.983871
v -176 -976 -0.983871
v -192 -992 -0.983871
v -192 -976 -0.983871
v -208 -992 -0.983871
v -208 -976 -0.983871
v -224 -992 -0.983871
v -224 -976 -0.983871
v -240 -992 -0.983871
v -240 -976 -0.983871
v -256 -992 -0.983871
v -256 -976 -0.983871

# Texture cooridinates (Count = 8)
vt 1.220703E-05 0.9000122
vt 0.09998779 0.9000122
vt 0.09998779 0.9999878
vt 1.220703E-05 0.9999878
vt 0.1000122 0.9000122
vt 0.1999878 0.9000122
vt 0.1999878 0.9999878
vt 0.1000122 0.9999878

# Normal
vn 0 0 -1

# Groups (Count = 2)

g mesh_0001
f 1/1/1 2/2/1 3/3/1 4/4/1
f 5/1/1 6/2/1 7/3/1 8/4/1
f 6/1/1 9/2/1 10/3/1 7/4/1
f 9/1/1 11/2/1 12/3/1 10/4/1
f 11/1/1 13/2/1 14/3/1 12/4/1
f 15/1/1 16/2/1 17/3/1 18/4/1
f 19/1/1 20/2/1 21/3/1 22/4/1
f 23/1/1 24/2/1 25/3/1 26/4/1
f 24/1/1 27/2/1 28/3/1 25/4/1
f 27/1/1 29/2/1 30/3/1 28/4/1
f 29/1/1 31/2/1 32/3/1 30/4/1
f 33/1/1 34/2/1 35/3/1 36/4/1
f 37/1/1 38/2/1 39/3/1 40/4/1
f 38/1/1 41/2/1 42/3/1 39/4/1
f 43/1/1 44/2/1 45/3/1 46/4/1
f 44/1/1 47/2/1 48/3/1 45/4/1
f 49/1/1 50/2/1 51/3/1 52/4/1
f 50/1/1 53/2/1 54/3/1 51/4/1
f 53/1/1 55/2/1 56/3/1 54/4/1
f 57/1/1 58/2/1 59/3/1 60/4/1
f 58/1/1 61/2/1 62/3/1 59/4/1
f 61/1/1 63/2/1 64/3/1 62/4/1
f 65/1/1 66/2/1 67/3/1 68/4/1
f 66/1/1 69/2/1 70/3/1 67/4/1
f 69/1/1 71/2/1 72/3/1 70/4/1
f 71/1/1 73/2/1 74/3/1 72/4/1
f 73/1/1 75/2/1 76/3/1 74/4/1
f 75/1/1 77/2/1 78/3/1 76/4/1
f 77/1/1 79/2/1 80/3/1 78/4/1
f 79/1/1 81/2/1 82/3/1 80/4/1
f 81/1/1 83/2/1 84/3/1 82/4/1
f 83/1/1 85/2/1 86/3/1 84/4/1
f 85/1/1 87/2/1 88/3/1 86/4/1
f 87/1/1 89/2/1 90/3/1 88/4/1
f 89/1/1 91/2/1 92/3/1 90/4/1
f 91/1/1 93/2/1 94/3/1 92/4/1
f 93/1/1 95/2/1 96/3/1 94/4/1
f 95/1/1 97/2/1 98/3/1 96/4/1
f 99/1/1 100/2/1 101/3/1 102/4/1
f 100/1/1 103/2/1 104/3/1 101/4/1
f 103/1/1 105/2/1 106/3/1 104/4/1
f 105/1/1 107/2/1 108/3/1 106/4/1
f 107/1/1 109/2/1 110/3/1 108/4/1
f 109/1/1 111/2/1 112/3/1 110/4/1
f 111/1/1 113/2/1 114/3/1 112/4/1
f 113/1/1 115/2/1 116/3/1 114/4/1
f 115/1/1 117/2/1 118/3/1 116/4/1
f 117/1/1 119/2/1 120/3/1 118/4/1
f 119/1/1 121/2/1 122/3/1 120/4/1
f 121/1/1 123/2/1 124/3/1 122/4/1
f 123/1/1 125/2/1 126/3/1 124/4/1
f 125/1/1 127/2/1 128/3/1 126/4/1
f 127/1/1 129/2/1 130/3/1 128/4/1
f 129/1/1 131/2/1 132/3/1 130/4/1

g mesh_0002
f 1/5/1 2/6/1 3/7/1 4/8/1
f 5/5/1 6/6/1 7/7/1 8/8/1
f 6/5/1 9/6/1 10/7/1 7/8/1
f 9/5/1 11/6/1 12/7/1 10/8/1
f 11/5/1 13/6/1 14/7/1 12/8/1
f 15/5/1 16/6/1 17/7/1 18/8/1
f 19/5/1 20/6/1 21/7/1 22/8/1
f 23/5/1 24/6/1 25/7/1 26/8/1
f 24/5/1 27/6/1 28/7/1 25/8/1
f 27/5/1 29/6/1 30/7/1 28/8/1
f 29/5/1 31/6/1 32/7/1 30/8/1
f 33/5/1 34/6/1 35/7/1 36/8/1
f 37/5/1 38/6/1 39/7/1 40/8/1
f 38/5/1 41/6/1 42/7/1 39/8/1
f 43/5/1 44/6/1 45/7/1 46/8/1
f 44/5/1 47/6/1 48/7/1 45/8/1
f 49/5/1 50/6/1 51/7/1 52/8/1
f 50/5/1 53/6/1 54/7/1 51/8/1
f 53/5/1 55/6/1 56/7/1 54/8/1
f 57/5/1 58/6/1 59/7/1 60/8/1
f 58/5/1 61/6/1 62/7/1 59/8/1
f 61/5/1 63/6/1 64/7/1 62/8/1
f 65/5/1 66/6/1 67/7/1 68/8/1
f 66/5/1 69/6/1 70/7/1 67/8/1
f 69/5/1 71/6/1 72/7/1 70/8/1
f 71/5/1 73/6/1 74/7/1 72/8/1
f 73/5/1 75/6/1 76/7/1 74/8/1
f 75/5/1 77/6/1 78/7/1 76/8/1
f 77/5/1 79/6/1 80/7/1 78/8/1
f 79/5/1 81/6/1 82/7/1 80/8/1
f 81/5/1 83/6/1 84/7/1 82/8/1
f 83/5/1 85/6/1 86/7/1 84/8/1
f 85/5/1 87/6/1 88/7/1 86/8/1
f 87/5/1 89/6/1 90/7/1 88/8/1
f 89/5/1 91/6/1 92/7/1 90/8/1
f 91/5/1 93/6/1 94/7/1 92/8/1
f 93/5/1 95/6/1 96/7/1 94/8/1
f 95/5/1 97/6/1 98/7/1 96/8/1
f 99/5/1 100/6/1 101/7/1 102/8/1
f 100/5/1 103/6/1 104/7/1 101/8/1
f 103/5/1 105/6/1 106/7/1 104/8/1
f 105/5/1 107/6/1 108/7/1 106/8/1
f 107/5/1 109/6/1 110/7/1 108/8/1
f 109/5/1 111/6/1 112/7/1 110/8/1
f 111/5/1 113/6/1 114/7/1 112/8/1
f 113/5/1 115/6/1 116/7/1 114/8/1
f 115/5/1 117/6/1 118/7/1 116/8/1
f 117/5/1 119/6/1 120/7/1 118/8/1
f 119/5/1 121/6/1 122/7/1 120/8/1
f 121/5/1 123/6/1 124/7/1 122/8/1
f 123/5/1 125/6/1 126/7/1 124/8/1
f 125/5/1 127/6/1 128/7/1 126/8/1
f 127/5/1 129/6/1 130/7/1 128/8/1
f 129/5/1 131/6/1 132/7/1 130/8/1

